

<svg width="40" height="40" viewBox="1.842698097229004 2.0498404502868652 350.09112548828125 634.9030151367188" xmlns="http://www.w3.org/2000/svg" xmlns:xlink="http://www.w3.org/1999/xlink" fill="none">
  <linearGradient id="linearGradient1" x1="63.863446" y1="-448.32356" x2="278.917644" y2="1074.159304" gradientUnits="userSpaceOnUse">
    <stop offset="1e-05" stop-color="#db0101" stop-opacity="1"/>
    <stop offset="1" stop-color="#8a151e" stop-opacity="1"/>
  </linearGradient>
  <path id="Shape-copy-copy" fill="url(#linearGradient1)" fill-rule="evenodd" stroke="none" d="M 173.5 636.950195 C 161.122681 636.926758 156.86499 636.575684 154.695374 635.399414 C 153.152832 634.56311 151.624756 633.18573 151.299667 632.338501 C 150.974564 631.491333 151.336639 630.400452 152.104279 629.914368 C 152.871933 629.428345 163.457397 629.023743 175.627548 629.01532 C 194.038712 629.002563 197.96312 629.25061 198.993576 630.492249 C 200.041092 631.754456 199.404739 632.369629 194.866013 634.482483 C 189.835953 636.824097 188.498276 636.978577 173.5 636.950195 Z M 118 614.515259 C 108.954132 614.905334 103.922615 614.734985 102.75 613.999023 C 101.762657 613.379272 101 611.682434 101 610.105286 C 101 608.567871 101.79686 606.588806 102.770805 605.707397 C 104.13224 604.475342 109.275917 603.740662 125.020805 602.529541 C 136.284363 601.663086 162.808212 599.839539 183.962708 598.477112 C 205.117188 597.114685 228.764694 596 236.512711 596 C 246.136154 596 250.98024 596.380249 251.800003 597.200012 C 252.460007 597.859985 253 599.140259 253 600.045044 C 253 600.949768 252.181213 602.43103 251.180481 603.33667 C 250.179733 604.24231 247.066925 605.418396 244.263123 605.950073 C 241.459305 606.481812 227.090591 607.627136 212.332642 608.4953 C 197.574692 609.363403 173.350006 610.942017 158.5 612.003418 C 143.649994 613.064758 125.425003 614.195068 118 614.515259 Z M 121 581.369385 C 112.454224 581.664185 104.490517 581.491455 103.25 580.984253 C 101.758865 580.374695 101 579.21814 101 577.555298 C 101 576.052673 101.907463 574.451538 103.262115 573.563904 C 104.819443 572.543518 112.84211 571.451965 129.012115 570.060425 C 141.93045 568.94873 162.850006 567.328125 175.5 566.459229 C 188.149994 565.590271 209.929123 564.613281 223.898041 564.288147 C 240.184906 563.909058 249.870773 564.05658 250.898041 564.699341 C 251.779114 565.250671 252.642365 566.893616 252.816376 568.350403 C 253.061981 570.406555 252.573792 571.211548 250.633835 571.949097 C 249.259415 572.47168 237.192047 573.820496 223.817459 574.946594 C 210.442856 576.072632 185.324997 577.858093 168 578.914307 C 150.675003 579.97052 129.524994 581.075317 121 581.369385 Z M 117.488258 549 C 107.086281 549 102.02729 548.627319 101.199997 547.799988 C 100.540001 547.140015 100 545.575378 100 544.323059 C 100 543.04364 101.018364 541.378845 102.324509 540.52301 C 103.664749 539.644897 109.063499 538.563354 115.074509 537.968872 C 120.808533 537.401794 133.149994 536.300781 142.5 535.522217 C 151.850006 534.743591 165.574997 533.831848 173 533.495972 C 180.425003 533.160156 193.361908 532.452637 201.748672 531.923645 C 210.135452 531.394653 223.18544 530.551575 230.748672 530.05011 C 238.311905 529.548584 246.070313 529.462158 247.989594 529.858032 C 250.563583 530.388916 251.731339 531.294739 252.440216 533.310425 C 253.223907 535.538879 253.025192 536.41925 251.363464 538.080994 C 249.976273 539.46814 247.118622 540.417419 242.412842 541.054199 C 238.610779 541.568665 222.899994 542.887573 207.5 543.985168 C 192.100006 545.082764 168.942215 546.660156 156.038254 547.490417 C 143.134293 548.320679 125.786797 549 117.488258 549 Z M 112.449997 516.985168 C 105.94825 516.994751 101.976326 516.576294 101.199997 515.799988 C 100.540001 515.140015 100 513.634766 100 512.454956 C 100 511.275269 100.787498 509.609985 101.75 508.754395 C 102.712502 507.898804 105.300003 506.705566 107.5 506.102661 C 109.699997 505.499817 117.574997 504.562927 125 504.02063 C 132.425003 503.478333 147.725006 502.55957 159 501.978882 C 170.274994 501.398193 188.050003 500.264893 198.5 499.46051 C 208.949997 498.656067 224.757248 497.704895 233.627228 497.346802 C 249.75444 496.695618 249.75444 496.695618 251.492233 499.347778 C 253.087952 501.783203 253.100754 502.197266 251.648895 504.413086 C 250.779282 505.740295 248.815018 507.088501 247.28389 507.409058 C 245.752747 507.729614 241.350006 508.414246 237.5 508.930359 C 233.649994 509.446533 223.524994 510.360229 215 510.960938 C 206.475006 511.561584 188.588058 512.72467 175.251251 513.545532 C 161.914444 514.366455 144.589447 515.472839 136.751251 516.004211 C 128.913071 516.535583 117.977501 516.977051 112.449997 516.985168 Z M 190.730927 481.604065 C 156.503922 481.661316 121.876862 481.43634 113.781921 481.104065 C 102.646088 480.647034 98.699936 480.134918 97.56871 479 C 96.556938 477.984924 95.755211 473.782196 95.088783 466 C 94.547142 459.674988 93.832726 449.549988 93.50119 443.5 C 93.169647 437.450012 92.460785 426.649994 91.925926 419.5 C 91.391068 412.350006 90.252541 400.451721 89.395851 393.059418 C 88.539169 385.667084 86.778099 375.439575 85.482361 370.331604 C 84.186615 365.223633 81.285561 356.455933 79.035568 350.847809 C 76.785576 345.239655 72.471077 335.892181 69.447784 330.075592 C 66.424492 324.259033 59.013462 312.636414 52.978832 304.247589 C 46.944199 295.858765 38.160374 283.708771 33.459213 277.247589 C 28.758057 270.786407 22.461897 260.549988 19.467749 254.5 C 16.4736 248.450012 12.644047 239.450012 10.95763 234.5 C 9.271213 229.549988 6.759623 221.450012 5.376319 216.5 C 3.212473 208.756897 2.760054 204.497375 2.136813 186 C 1.738388 174.174988 1.745693 160.225006 2.153045 155 C 2.560398 149.774994 4.26752 139.960632 5.946651 133.190247 C 7.625783 126.419861 11.056104 115.859375 13.569587 109.722534 C 16.083071 103.585693 20.543337 94.480286 23.481291 89.488281 C 26.419245 84.496277 31.61714 76.606689 35.032169 71.955933 C 38.447201 67.305176 46.474518 58.309692 52.870659 51.965942 C 61.076298 43.827515 68.180023 37.966003 77 32.05603 C 83.875 27.449341 94.449997 21.311279 100.5 18.415894 C 106.550003 15.520508 115.460449 11.772034 120.301003 10.085938 C 125.141556 8.39978 133.466553 6.07373 138.80101 4.91687 C 146.584671 3.228882 153.311264 2.708496 172.863708 2.281921 C 195.023987 1.798401 198.279816 1.947205 208.863708 3.927246 C 215.263672 5.124512 225.78743 7.865173 232.249832 10.017639 C 238.712234 12.170105 250.187241 17.094788 257.749817 20.961487 C 265.312408 24.828186 275.757935 31.031189 280.962036 34.745911 C 286.166168 38.460632 295.41983 46.450012 301.525757 52.5 C 307.631683 58.549988 315.603607 67.506348 319.24115 72.403015 C 322.878723 77.299622 328.148163 85.445618 330.95108 90.505188 C 333.753967 95.564758 338.079803 104.760986 340.564026 110.941345 C 343.048248 117.121643 346.463745 127.425598 348.153992 133.839111 C 351.112854 145.066162 351.247253 146.485931 351.765991 172 C 352.119385 189.381683 351.912689 201.225098 351.165253 206.419739 C 350.538513 210.775604 347.755219 221.049927 344.980164 229.251617 C 342.205078 237.453278 337.520477 248.964417 334.569916 254.831879 C 331.619354 260.699341 326.323425 269.549988 322.801208 274.5 C 319.278992 279.450012 312.870087 288.225006 308.559204 294 C 304.248322 299.774994 297.611145 309.1315 293.809906 314.792267 C 290.008667 320.453003 284.445892 329.963776 281.448151 335.927307 C 278.450409 341.890869 274.007111 352.784363 271.574127 360.135071 C 269.141144 367.485779 266.443237 377.774994 265.578735 383 C 264.714264 388.225006 263.585724 397.899994 263.070892 404.5 C 262.556061 411.100006 261.855804 422.575012 261.514771 430 C 261.173767 437.424988 260.444061 450.700012 259.893219 459.5 C 258.902954 475.320099 258.858337 475.533752 255.926758 478.5 C 252.961838 481.5 252.961838 481.5 190.730927 481.604065 Z M 154.953003 480 C 155.477142 480 156.38707 478.3125 156.975052 476.25 C 157.563034 474.1875 158.529968 467.774994 159.123795 462 C 159.717621 456.225006 160.534439 436.200012 160.938934 417.5 C 161.602158 386.838715 161.496857 382.616211 159.866501 374.5 C 158.872162 369.549988 157.408188 361.450012 156.61322 356.5 C 155.818253 351.549988 153.099258 338.950012 150.57103 328.5 C 148.042786 318.049988 144.596405 305.225006 142.912399 300 C 141.228409 294.774994 138.01619 287.350006 135.774139 283.5 C 133.532089 279.649994 130.411255 274.191681 128.838943 271.370392 C 126.573647 267.305664 125.45929 262.946259 123.470871 250.370392 C 122.090736 241.641693 120.681541 230.401733 120.339325 225.392761 C 119.77459 217.126801 119.934303 215.850616 122.068283 211.577728 C 123.361427 208.988464 125.935143 205.099213 127.787651 202.934967 C 129.993851 200.357544 131.994629 199 133.587173 199 C 135.425613 199 136.763489 200.210785 139.073685 203.965332 C 140.754044 206.696259 143.484406 210.071259 145.141174 211.465332 C 146.797928 212.859406 149.35643 213.983826 150.826721 213.96405 C 152.297028 213.944244 154.634964 212.931763 156.022141 211.71405 C 157.409317 210.496307 160.508179 207.25 162.908493 204.5 C 165.308807 201.75 168.078766 198.904236 169.06398 198.176086 C 170.40097 197.187927 171.366669 197.125885 172.871811 197.931396 C 173.980927 198.524963 176.352768 201.758087 178.142563 205.116089 C 180.443375 209.432861 182.375671 211.688354 184.73819 212.814972 C 187.470825 214.118073 188.664566 214.195435 191.289825 213.239471 C 193.05542 212.596558 197.233429 209.092133 200.574295 205.451874 C 205.737701 199.825775 207.078629 198.88324 209.51622 199.166626 C 211.803543 199.432526 213.052246 200.646454 215.686996 205.165405 C 218.505157 209.998962 219.688339 211.077606 223.745087 212.511414 C 226.360291 213.43576 229.568237 214.614563 230.873871 215.131012 C 233.021088 215.980347 233.19841 216.520142 232.731171 220.785004 C 232.447067 223.378235 231.277115 231.125 230.131287 238 C 228.985458 244.875 227.116028 254.774994 225.977005 260 C 224.340683 267.506287 222.792755 271.388794 218.601227 278.5 C 215.683578 283.450012 212.107025 290.649994 210.653336 294.5 C 209.199661 298.350006 206.675873 306.225006 205.044922 312 C 203.413971 317.774994 200.73555 328.575012 199.09285 336 C 197.450165 343.424988 195.176178 356.024994 194.039566 364 C 192.210815 376.831451 191.945786 384.13858 191.736496 427.5 C 191.60643 454.450012 191.854034 477.367401 192.286743 478.427551 C 192.975784 480.115692 193.254456 480.174133 194.530594 478.897949 C 195.723511 477.705078 196.090302 471.462738 196.553558 444.470428 C 196.864761 426.3367 197.516876 402.725006 198.002701 392 C 198.635422 378.031677 199.742371 367.648987 201.904846 355.399445 C 203.565201 345.994141 206.963989 330.339142 209.457703 320.610565 C 211.951401 310.882019 215.319489 299.502838 216.942322 295.323517 C 218.565155 291.144196 222.447449 283.502563 225.569656 278.342072 C 231.246399 268.959381 231.246399 268.959381 235.158218 246.229675 C 237.309708 233.728363 239.346085 219.559265 239.683502 214.742828 C 240.213638 207.175232 240.05304 205.716095 238.501251 204.001373 C 236.967911 202.307068 235.912354 202.110352 231.277115 202.655151 C 226.733017 203.189209 225.538483 202.98291 223.944412 201.388855 C 222.897064 200.341492 221.5811 197.064117 221.020065 194.105804 C 220.45903 191.147461 220 187.307129 220 185.571716 C 220 183.164978 221.008255 181.45047 224.25 178.344696 C 226.587494 176.105255 230.004791 173.199066 231.843979 171.886505 C 233.683167 170.573914 235.626892 168.683746 236.163376 167.686066 C 236.831223 166.444122 236.76297 165.419342 235.946945 164.436066 C 235.291443 163.64624 233.527725 163 232.027588 163 C 230.527466 163 227.320053 164.440369 224.90004 166.200867 C 222.480011 167.961334 219.375 169.569519 218 169.774658 C 216.1026 170.057709 214.21875 168.949677 210.184525 165.177856 C 207.261017 162.444489 203.661163 159.977234 202.184845 159.695007 C 200.708542 159.412781 197.925507 159.727386 196.00032 160.394135 C 194.07515 161.060852 190.087006 163.269928 187.137787 165.303192 C 184.188568 167.336426 180.654694 169 179.284714 169 C 177.751022 169 174.922623 167.317596 171.92424 164.621796 C 169.245956 162.213776 165.852509 160.013794 164.383224 159.732941 C 162.913956 159.452057 160.401642 159.598022 158.800308 160.057281 C 157.198975 160.516541 153.551315 162.572449 150.694397 164.625946 C 147.837479 166.679474 144.298645 168.813721 142.830322 169.368744 C 140.470474 170.260712 139.681961 169.945404 136.036285 166.651733 C 133.767899 164.602386 130.404236 162.206665 128.561493 161.327942 C 126.53923 160.363586 124.189606 159.986572 122.634384 160.376923 C 121.217224 160.732605 119.529121 162.011322 118.883041 163.218536 C 117.946342 164.968781 117.991142 165.583801 119.104179 166.254364 C 119.87188 166.716858 121.966614 167.969696 123.75914 169.038483 C 125.551666 170.107269 127.912483 172.448334 129.005402 174.240845 C 130.098312 176.033386 130.994202 178.87439 130.996262 180.55423 C 130.998322 182.237854 129.701035 185.603485 128.105377 188.05423 C 126.513344 190.49939 123.318748 194.740479 121.006287 197.478821 C 118.693817 200.217163 115.667229 204.696594 114.280533 207.433105 C 112.158447 211.620819 111.85186 213.286591 112.344093 217.954285 C 112.665749 221.004425 113.392746 226.875 113.959648 231 C 114.526558 235.125 115.477844 241.875 116.073631 246 C 116.669411 250.125 118.050232 257.100006 119.142113 261.5 C 120.445778 266.753448 123.015564 272.82196 126.627205 279.175964 C 129.65213 284.497742 133.686981 293.2164 135.593536 298.55072 C 137.500107 303.885071 140.379944 313.480896 141.993179 319.874756 C 143.606415 326.268646 146.509155 340.164246 148.443726 350.753845 C 150.378296 361.343475 152.916351 375.293488 154.083847 381.753845 C 156.125381 393.050659 156.164368 394.657501 155.103287 423.757355 C 154.496475 440.398895 154 459.861389 154 467.007355 C 154 474.575226 154.397903 480 154.953003 480 Z M 152.184692 202.627777 C 151.808121 202.698059 150.731018 202.556122 149.791138 202.312378 C 148.851273 202.068634 147.163162 200.38205 146.039795 198.564392 C 144.916443 196.746765 143.709198 193.157532 143.357056 190.588318 C 142.962769 187.7117 143.179718 184.90097 143.921722 183.27243 C 144.584457 181.817932 146.531235 178.854462 148.24791 176.686981 C 149.964584 174.519501 152.748581 171.904938 154.43457 170.876801 C 156.12056 169.848663 158.697495 169.005798 160.161102 169.003723 C 161.930481 169.001251 163.725128 170.073059 165.516678 172.202179 C 167.905334 175.040955 168.164291 176.05191 167.798431 181.109802 C 167.443985 186.010162 166.761719 187.624115 162.963562 192.547241 C 160.531372 195.699799 157.265182 199.228882 155.705383 200.389587 C 154.145584 201.550323 152.561279 202.557495 152.184692 202.627777 Z M 189.881821 202.506134 C 187.806915 203.016907 186.833359 202.603607 185.18988 200.514252 C 184.049301 199.06427 182.558304 195.385376 181.876556 192.338959 C 180.959656 188.241852 180.921265 186.046936 181.72905 183.90686 C 182.329681 182.315613 184.242416 179.219116 185.979584 177.025787 C 187.716736 174.832428 190.413956 172.129364 191.973389 171.018951 C 193.532837 169.908539 196.115768 169 197.713242 169 C 199.310715 169 201.328796 169.5625 202.197861 170.25 C 203.06694 170.9375 204.277939 172.48291 204.888992 173.684265 C 205.500046 174.88559 206 178.30838 206 181.290466 C 206 185.924866 205.50705 187.350586 202.606216 191.106201 C 200.739639 193.522797 197.702148 196.931366 195.856216 198.680817 C 194.0103 200.430267 191.321823 202.151672 189.881821 202.506134 Z"/>
  
</svg>
