<?xml version="1.0" encoding="UTF-8"?>
<!-- Generated by Pixelmator Pro 3.3.6 -->
<svg width="200" height="46" viewBox="0 0 200 46" xmlns="http://www.w3.org/2000/svg">
    <g id="Group">
        <linearGradient id="linearGradient1" x1="40.730418" y1="23" x2="75.949167" y2="23" gradientUnits="userSpaceOnUse">
            <stop offset="0" stop-color="#8f5e25" stop-opacity="1"/>
            <stop offset="0.508742" stop-color="#fbf4a1" stop-opacity="1"/>
            <stop offset="1" stop-color="#8f5e25" stop-opacity="1"/>
        </linearGradient>
        <filter id="filter1" x="0" y="0" width="200" height="46" filterUnits="userSpaceOnUse" primitiveUnits="userSpaceOnUse" color-interpolation-filters="sRGB">
            <feGaussianBlur stdDeviation="10"/>
            <feOffset dx="-3.682612" dy="-8.212087" result="offsetblur"/>
            <feFlood flood-color="#000000" flood-opacity="1"/>
            <feComposite in2="offsetblur" operator="in"/>
            <feMerge>
                <feMergeNode/>
                <feMergeNode in="SourceGraphic"/>
            </feMerge>
        </filter>
        <path id="Path" fill="url(#linearGradient1)" stroke="none" filter="url(#filter1)" d="M 64.936371 17.055944 C 63.826141 16.6423 63.095032 16.337145 62.595398 16.110947 C 62.095772 15.884756 61.591835 15.681498 61.475536 15.659256 C 61.335423 15.632471 61.15023 15.732512 60.92659 15.955811 C 60.740959 16.14115 60.426785 16.546391 60.228416 16.856348 C 60.030052 17.166302 59.652435 17.870975 59.389271 18.422281 C 59.12611 18.973589 58.642666 20.106594 58.314949 20.940073 C 57.987236 21.773554 57.420387 23.107574 57.05529 23.904562 C 56.690189 24.70155 56.094666 25.872305 55.731895 26.506241 C 55.369125 27.140175 54.779594 28.102011 54.421833 28.643661 C 54.064068 29.185305 53.410107 30.060368 52.968594 30.58824 C 52.527077 31.116112 51.796455 31.859364 51.34499 32.239914 C 50.893524 32.620468 50.166893 33.146599 49.730251 33.4091 C 49.293606 33.671593 48.555244 34.016769 48.089439 34.176147 C 47.357635 34.426544 47.06406 34.469894 45.929501 34.495106 C 45.08564 34.513851 44.454071 34.47834 44.161968 34.395721 C 43.911991 34.325012 43.494766 34.160343 43.23481 34.029789 C 42.97485 33.899235 42.531727 33.590794 42.250088 33.34436 C 41.891296 33.030411 41.632191 32.676205 41.384445 32.160992 C 41.157707 31.689461 41.007404 31.201153 40.965466 30.799776 C 40.92556 30.4179 40.949921 29.949379 41.027943 29.598087 C 41.098278 29.281406 41.24044 28.85541 41.343857 28.651432 C 41.447273 28.447453 41.636505 28.158901 41.764366 28.010208 C 41.892231 27.861521 42.119827 27.716349 42.270138 27.687607 C 42.466225 27.650118 42.561874 27.683435 42.608727 27.805563 C 42.652855 27.920593 42.556641 28.096258 42.311909 28.347496 C 42.112743 28.551945 41.876915 28.894184 41.787846 29.10803 C 41.680321 29.366173 41.626373 29.796497 41.627312 30.388519 C 41.628429 31.090113 41.675346 31.379398 41.847378 31.745483 C 41.96764 32.001381 42.267872 32.43531 42.514572 32.70977 C 42.787224 33.013107 43.208073 33.328865 43.587791 33.514999 C 43.98571 33.71006 44.513844 33.86343 45.042694 33.937511 C 45.674374 34.025993 46.045544 34.025284 46.594791 33.934559 C 46.991825 33.868973 47.595417 33.722408 47.936108 33.608864 C 48.276802 33.495312 48.805527 33.263271 49.111057 33.093216 C 49.416588 32.923157 50.036575 32.49596 50.488808 32.143883 C 50.94104 31.791809 51.657589 31.12727 52.081139 30.667133 C 52.504692 30.207005 53.09668 29.489561 53.396667 29.072821 C 53.696655 28.65608 54.244759 27.815022 54.614677 27.203804 C 54.984596 26.592587 55.576172 25.501486 55.929298 24.779133 C 56.282421 24.056784 56.839504 22.829296 57.167259 22.05138 C 57.49501 21.273464 58.020672 20.023245 58.335392 19.273113 C 58.650108 18.522982 59.122437 17.52903 59.384998 17.064329 C 59.647568 16.599634 60.039639 16.018009 60.256275 15.771841 C 60.472912 15.525663 60.633194 15.308514 60.612461 15.289282 C 60.591728 15.270048 60.065201 15.022207 59.442394 14.738523 C 58.819588 14.45483 57.978748 14.091503 57.57386 13.931114 C 57.168968 13.770729 56.384048 13.494537 55.829586 13.317352 C 55.275124 13.140167 54.407249 12.909946 53.900982 12.805748 C 53.394711 12.70155 52.416656 12.566433 51.727535 12.505493 C 51.03841 12.444546 50.133698 12.421486 49.717068 12.454239 C 49.300438 12.486996 48.641399 12.560558 48.252541 12.617714 C 47.863686 12.674866 47.159195 12.83651 46.687012 12.97691 C 46.214828 13.117317 45.567837 13.361252 45.249252 13.519005 C 44.930664 13.676746 44.475487 13.939682 44.237743 14.103294 C 44 14.266911 43.477882 14.745745 43.07748 15.167366 C 42.669762 15.596701 42.211929 16.206524 42.036823 16.553499 C 41.864857 16.894245 41.634869 17.520535 41.525742 17.945248 C 41.39286 18.462399 41.327526 19.051153 41.327942 19.727739 C 41.3283 20.317743 41.3941 20.987116 41.486115 21.336811 C 41.572769 21.666149 41.776394 22.211697 41.938614 22.549145 C 42.100838 22.886593 42.450302 23.408886 42.71521 23.709806 C 42.980118 24.010721 43.467545 24.431917 43.798382 24.645802 C 44.129219 24.85969 44.698608 25.128168 45.063698 25.242424 C 45.428787 25.356678 46.1418 25.475977 46.64817 25.50753 C 47.312763 25.548946 47.77179 25.519068 48.298489 25.400089 C 48.699795 25.309439 49.335354 25.073795 49.710831 24.876436 C 50.086311 24.679073 50.646965 24.264086 50.956734 23.954243 C 51.266499 23.644396 51.65881 23.130278 51.828537 22.811754 C 51.998268 22.493229 52.205833 21.936312 52.289803 21.574156 C 52.41003 21.055616 52.421478 20.750097 52.343697 20.136436 C 52.2747 19.592104 52.147675 19.174683 51.922348 18.751812 C 51.74493 18.418865 51.41478 17.986814 51.188679 17.791708 C 50.962578 17.596601 50.607586 17.349316 50.399811 17.242184 C 50.192036 17.13505 49.805706 17.003685 49.541294 16.950266 C 49.27689 16.896849 48.890114 16.827293 48.681801 16.795704 C 48.362587 16.747292 48.30304 16.699276 48.30304 16.490271 C 48.30304 16.261274 48.340324 16.242275 48.789719 16.242275 C 49.057392 16.242275 49.523262 16.315536 49.824989 16.405085 C 50.126713 16.494631 50.591103 16.678076 50.856964 16.812737 C 51.122829 16.947399 51.517323 17.217506 51.733624 17.41297 C 51.949924 17.608433 52.266354 17.985748 52.43681 18.251438 C 52.607258 18.517136 52.814877 18.957993 52.898178 19.231127 C 52.981483 19.504269 53.077961 20.023441 53.112579 20.384859 C 53.156628 20.844706 53.125607 21.238977 53.009235 21.698219 C 52.917782 22.059156 52.731983 22.581776 52.596355 22.859604 C 52.460728 23.13743 52.125145 23.641218 51.850616 23.979141 C 51.576088 24.317059 51.040546 24.805235 50.660522 25.063978 C 50.280499 25.32272 49.628689 25.653847 49.212059 25.79981 C 48.631172 26.003321 48.188824 26.077265 47.314911 26.116947 C 46.443863 26.156496 46.003494 26.127773 45.446377 25.995058 C 45.045483 25.899561 44.38279 25.662271 43.973721 25.467751 C 43.439316 25.213633 43.024319 24.91053 42.499382 24.390949 C 41.96965 23.866627 41.667011 23.459518 41.398548 22.910118 C 41.194908 22.493378 40.961494 21.834167 40.879852 21.445213 C 40.79821 21.056259 40.730968 20.351585 40.730423 19.87928 C 40.729877 19.406975 40.776882 18.728012 40.834877 18.370466 C 40.892876 18.012922 41.028091 17.459797 41.135361 17.141298 C 41.242626 16.822792 41.493484 16.283854 41.692818 15.943657 C 41.892151 15.603458 42.329872 15.031456 42.665535 14.672539 C 43.001198 14.313623 43.591797 13.809853 43.977985 13.553055 C 44.36417 13.296249 45.052151 12.928562 45.506824 12.735966 C 45.961498 12.543365 46.729393 12.298782 47.213253 12.192451 C 47.697117 12.086117 48.537952 11.950729 49.081787 11.89159 C 49.772141 11.816517 50.487812 11.815552 51.453003 11.888374 C 52.213341 11.945755 53.288239 12.084995 53.841675 12.197803 C 54.395107 12.310616 55.498497 12.612453 56.293644 12.868565 C 57.088795 13.124668 58.286438 13.572964 58.955067 13.864784 C 59.623695 14.156595 60.895424 14.723694 61.781128 15.124989 C 62.666836 15.526287 63.82354 16.016512 64.351578 16.214367 C 65.311653 16.574114 65.311653 16.574114 65.468254 16.336212 C 65.554382 16.20537 65.810791 15.846563 66.03804 15.538872 C 66.265289 15.231176 66.66774 14.740141 66.932373 14.447687 C 67.197006 14.155228 67.783737 13.618813 68.236221 13.255665 C 68.688705 12.892509 69.406471 12.420738 69.831253 12.207291 C 70.256042 11.993835 70.93821 11.740292 71.347176 11.643852 C 71.883141 11.517464 72.37252 11.479973 73.099884 11.509571 C 73.937157 11.54364 74.184967 11.593117 74.555061 11.800121 C 74.841736 11.960472 75.076317 12.194012 75.211571 12.453728 C 75.361778 12.742138 75.41951 13.032982 75.413216 13.46954 C 75.407059 13.896332 75.32737 14.247528 75.14959 14.631359 C 75.009453 14.933924 74.70858 15.390814 74.481003 15.646658 C 74.253426 15.902502 73.781197 16.296434 73.43161 16.522053 C 73.082016 16.747669 72.409645 17.067099 71.937469 17.231899 C 71.465286 17.39669 70.656662 17.589123 70.140533 17.659529 C 69.561935 17.738443 68.787376 17.763985 68.120491 17.726124 C 67.495735 17.690655 66.723953 17.573601 66.293274 17.448999 C 65.681091 17.271887 65.532433 17.257607 65.462463 17.369209 C 65.415596 17.443962 65.107224 18.027945 64.777206 18.666946 C 64.447189 19.305948 63.851505 20.556168 63.45348 21.445213 C 63.05545 22.334257 62.703503 23.129852 62.671371 23.213202 C 62.63443 23.309032 62.702442 23.284618 62.856384 23.146784 C 62.990269 23.026907 63.281612 22.838097 63.503819 22.727196 C 63.726021 22.616301 64.116783 22.496689 64.372177 22.461393 C 64.627579 22.426098 65.059357 22.446638 65.331696 22.507029 C 65.604034 22.567429 65.991791 22.725296 66.193382 22.857845 C 66.410797 23.000799 66.65464 23.294603 66.792793 23.580057 C 66.963539 23.932858 67.024094 24.230577 67.019714 24.695723 C 67.014732 25.225731 66.948631 25.459438 66.618164 26.115448 C 66.400589 26.547344 65.842857 27.423538 65.378777 28.062542 C 64.914688 28.701546 64.418335 29.474403 64.27578 29.780016 C 64.104309 30.147594 64.002884 30.566071 63.97612 31.01638 C 63.936333 31.68589 63.9417 31.703123 64.302406 32.063919 C 64.655853 32.417458 64.690735 32.429188 65.265083 32.387634 C 65.707268 32.355644 65.967026 32.271034 66.271896 32.059708 C 66.497871 31.903065 66.836563 31.542 67.024544 31.257341 C 67.212517 30.972683 67.479675 30.51247 67.61824 30.234642 C 67.75679 29.956816 68.018173 29.320339 68.199081 28.820251 C 68.379997 28.32016 68.726608 27.524567 68.969337 27.052261 C 69.212067 26.579956 69.672913 25.854128 69.993454 25.439312 C 70.313988 25.02449 70.848427 24.46553 71.181107 24.197168 C 71.513779 23.928814 72.02063 23.594238 72.307442 23.453667 C 72.594254 23.313095 73.120941 23.148048 73.477844 23.086897 C 73.985069 22.99999 74.231667 23.005096 74.607208 23.110268 C 74.871452 23.184271 75.237923 23.386572 75.42157 23.559818 C 75.621452 23.748384 75.803879 24.054611 75.87606 24.322733 C 75.942383 24.569086 75.968414 24.947214 75.933914 25.163015 C 75.899414 25.37882 75.783485 25.727345 75.676292 25.937521 C 75.569092 26.147692 75.336273 26.441792 75.158905 26.591076 C 74.981537 26.740355 74.570358 26.996841 74.245178 27.16103 C 73.919998 27.325224 73.279099 27.552105 72.820953 27.665207 C 72.289436 27.796417 71.466972 27.892624 70.548393 27.931028 C 69.108826 27.991211 69.108826 27.991211 68.851738 28.805254 C 68.682152 29.34223 68.593903 29.85553 68.592453 30.313381 C 68.59079 30.839481 68.646973 31.121786 68.824593 31.479794 C 68.98172 31.796528 69.192001 32.028568 69.462921 32.184196 C 69.813606 32.385643 69.975647 32.411446 70.690552 32.379616 C 71.370804 32.349327 71.630539 32.285645 72.182632 32.013783 C 72.550285 31.832741 73.122147 31.433599 73.453438 31.126804 C 73.784729 30.820015 74.265839 30.252941 74.522583 29.86665 C 74.77932 29.480354 75.041275 29.181322 75.104706 29.202122 C 75.168129 29.222927 75.233589 29.352983 75.250168 29.49114 C 75.26973 29.654203 75.128372 29.97049 74.847275 30.392601 C 74.6091 30.750244 74.128609 31.325047 73.779518 31.66993 C 73.371666 32.072861 72.883911 32.42564 72.414886 32.656902 C 72.01342 32.854855 71.416962 33.060097 71.089409 33.112999 C 70.702904 33.175426 70.335892 33.173779 70.043831 33.108311 C 69.79631 33.052826 69.466652 32.941662 69.311249 32.861275 C 69.155838 32.780891 68.8703 32.530037 68.67672 32.303818 C 68.480446 32.074451 68.260361 31.66102 68.179207 31.3692 C 68.033661 30.84589 68.033661 30.84589 67.676384 31.404551 C 67.479881 31.711809 67.096977 32.15461 66.825485 32.388542 C 66.54435 32.630791 66.114479 32.879917 65.826859 32.967278 C 65.509499 33.063675 65.17173 33.096214 64.917847 33.054844 C 64.695641 33.018639 64.395592 32.92852 64.251068 32.854584 C 64.106552 32.78064 63.847454 32.559677 63.675297 32.363548 C 63.503136 32.167419 63.331512 31.842926 63.293919 31.642456 C 63.256317 31.441982 63.254738 31.020481 63.290409 30.705788 C 63.32608 30.391092 63.490116 29.860836 63.654926 29.527447 C 63.819736 29.194056 64.384674 28.339985 64.910332 27.629511 C 65.435997 26.919041 65.985489 26.09362 66.131439 25.795233 C 66.322258 25.405119 66.396797 25.092972 66.396797 24.684021 C 66.396797 24.312607 66.331734 24.003887 66.209251 23.794119 C 66.10611 23.617462 65.878738 23.389397 65.703987 23.287313 C 65.494484 23.164921 65.181519 23.100723 64.785172 23.098824 C 64.362724 23.096807 64.056015 23.161301 63.753193 23.315826 C 63.516209 23.436758 63.097813 23.769917 62.823418 24.056171 C 62.54903 24.342434 62.119694 24.884836 61.869343 25.261509 C 61.618996 25.638186 61.118519 26.524807 60.757179 27.231773 C 60.395836 27.938742 59.825203 29.017256 59.489101 29.628473 C 59.152996 30.239693 58.646191 31.08075 58.362862 31.49749 C 58.079529 31.914228 57.52956 32.57415 57.140705 32.963978 C 56.68671 33.419098 56.175049 33.807945 55.710972 34.050518 C 55.284481 34.273445 54.920052 34.402107 54.821865 34.364418 C 54.724911 34.327209 54.668243 34.213703 54.686066 34.092422 C 54.706654 33.952366 54.914871 33.785622 55.32267 33.582626 C 55.733269 33.378235 56.205513 32.99884 56.787197 32.406055 C 57.330635 31.852238 57.871376 31.163467 58.260593 30.529297 C 58.598774 29.978279 59.264214 28.777315 59.739342 27.860487 C 60.21447 26.943657 61.180485 24.943304 61.886032 23.415257 C 62.591587 21.887209 63.566547 19.831251 64.052612 18.846464 L 64.936371 17.055944 Z M 70.6828 27.329363 C 71.345093 27.297838 72.227844 27.194197 72.644478 27.099052 C 73.061111 27.003901 73.62925 26.811611 73.907005 26.671741 C 74.184753 26.531868 74.555733 26.307873 74.731384 26.173979 C 74.907043 26.040077 75.126587 25.740965 75.219269 25.509287 C 75.337387 25.214005 75.367821 24.955002 75.32106 24.643082 C 75.281647 24.380215 75.157883 24.101622 75.018631 23.962334 C 74.888985 23.832657 74.663269 23.696526 74.517052 23.659811 C 74.370819 23.623102 74.014664 23.6127 73.725586 23.636694 C 73.436508 23.660692 72.938522 23.800074 72.618965 23.946438 C 72.2994 24.0928 71.78244 24.453686 71.470161 24.748407 C 71.157883 25.043135 70.69886 25.548264 70.450089 25.870918 C 70.201332 26.193575 69.880997 26.666613 69.73822 26.922117 C 69.478653 27.386677 69.478653 27.386677 70.6828 27.329363 Z M 69.210419 17.068659 C 69.627052 17.048656 70.389427 16.948874 70.904587 16.846914 C 71.465813 16.735842 72.134926 16.516392 72.573944 16.299414 C 72.991707 16.092936 73.532104 15.71529 73.831161 15.420815 C 74.119644 15.136761 74.470619 14.673635 74.611099 14.391651 C 74.788651 14.035259 74.866516 13.714142 74.866516 13.338322 C 74.866516 12.886032 74.823654 12.757942 74.60424 12.554543 C 74.459984 12.420815 74.18708 12.260277 73.997803 12.197792 C 73.808517 12.135303 73.299278 12.084179 72.866158 12.084179 C 72.433037 12.084179 71.785561 12.159649 71.427315 12.251881 C 71.069061 12.344124 70.503242 12.551842 70.169937 12.713482 C 69.836632 12.87513 69.336678 13.172546 69.058914 13.374413 C 68.781158 13.576279 68.099403 14.207121 67.543884 14.776285 C 66.98838 15.345449 66.385712 16.018478 66.204628 16.271906 C 65.875389 16.732677 65.875389 16.732677 66.457138 16.857651 C 66.777092 16.926386 67.357033 17.010166 67.745895 17.043827 C 68.13475 17.077488 68.793785 17.088663 69.210419 17.068659 Z"/>
        <linearGradient id="linearGradient2" x1="76.00375" y1="23" x2="159.269579" y2="23" gradientUnits="userSpaceOnUse">
            <stop offset="0" stop-color="#8f5e25" stop-opacity="1"/>
            <stop offset="0.508742" stop-color="#fbf4a1" stop-opacity="1"/>
            <stop offset="1" stop-color="#8f5e25" stop-opacity="1"/>
        </linearGradient>
        <filter id="filter2" x="0" y="0" width="200" height="46" filterUnits="userSpaceOnUse" primitiveUnits="userSpaceOnUse" color-interpolation-filters="sRGB">
            <feGaussianBlur stdDeviation="10"/>
            <feOffset dx="-3.682612" dy="-8.212087" result="offsetblur"/>
            <feFlood flood-color="#000000" flood-opacity="1"/>
            <feComposite in2="offsetblur" operator="in"/>
            <feMerge>
                <feMergeNode/>
                <feMergeNode in="SourceGraphic"/>
            </feMerge>
        </filter>
        <path id="path1" fill="url(#linearGradient2)" stroke="none" filter="url(#filter2)" d="M 89.472046 45.998905 C 87.966911 45.981228 86.194077 45.839394 85.532425 45.683712 C 84.870766 45.528027 83.603813 45.033569 82.716965 44.584915 C 81.830116 44.136253 80.5411 43.261005 79.852486 42.639912 C 79.163864 42.018814 78.247459 40.908134 77.816025 40.17173 C 77.384583 39.435322 76.799545 38.050869 76.515945 37.095161 C 76.232338 36.13945 76.001854 34.483856 76.003761 33.416061 C 76.005676 32.348267 76.210449 30.806168 76.458817 29.989172 C 76.707184 29.172174 77.265335 27.942385 77.699165 27.256306 C 78.13298 26.570227 79.030937 25.532904 79.694626 24.951141 C 80.358315 24.369383 81.52903 23.624775 82.296234 23.296461 C 83.691132 22.699524 83.691132 22.699524 83.691132 15.468893 C 83.691132 11.142056 83.559204 7.992168 83.362625 7.625462 C 83.181946 7.288414 82.641174 6.799763 82.160934 6.539577 C 81.369026 6.110531 81.990341 6.065304 88.835724 6.053692 C 96.383713 6.040878 96.383713 6.040878 97.842293 6.964355 C 98.811867 7.57822 99.531235 8.362915 99.987976 9.304813 C 100.36586 10.084152 100.675056 11.3288 100.675056 12.070702 C 100.675056 12.812611 100.466064 13.918983 100.210625 14.52931 C 99.955185 15.139637 99.342323 16.017702 98.848717 16.480562 C 98.355095 16.943422 97.520737 17.50601 96.994583 17.730761 C 96.037971 18.139397 96.037971 18.139397 97.866119 18.94655 C 98.87159 19.390484 100.398109 20.410984 101.258362 21.214327 C 102.289688 22.17741 103.193542 23.465347 103.911804 24.995298 C 104.975807 27.261675 105.001152 27.412516 105.001152 31.480305 C 105.001152 35.558014 104.978722 35.690453 103.927185 37.823921 C 103.29126 39.114136 102.16188 40.68214 101.158218 41.668262 C 100.22596 42.584229 98.665749 43.723484 97.691071 44.199944 C 96.7164 44.676403 95.084122 45.283314 94.063805 45.548634 C 93.036362 45.815807 90.987686 46.016705 89.472046 45.998905 Z M 90.420609 45.143368 C 91.389984 45.052383 92.79866 44.796276 93.55101 44.574234 C 94.30336 44.352196 95.64286 43.706749 96.527672 43.139908 C 97.412483 42.573071 98.631584 41.505989 99.236809 40.76862 C 99.842026 40.03125 100.737671 38.574223 101.227142 37.530777 C 102.045349 35.786514 102.117081 35.32362 102.117081 31.787815 C 102.117081 28.056376 102.084496 27.875961 101.021263 25.719799 C 100.418175 24.496773 99.228119 22.801382 98.374588 21.949259 C 97.485123 21.061279 95.921814 19.979597 94.708969 19.412985 C 92.960358 18.596064 92.073204 18.397812 89.584717 18.267862 C 86.575203 18.110706 86.575203 18.110706 86.575203 20.191713 C 86.575203 22.27272 86.575203 22.27272 88.919647 22.42293 C 90.507431 22.524658 91.756798 22.818798 92.790627 23.334259 C 93.630211 23.752874 94.826607 24.658352 95.44928 25.346432 C 96.07193 26.03451 96.865082 27.237761 97.211823 28.020325 C 97.558563 28.802885 97.921257 30.20731 98.017807 31.141264 C 98.114365 32.075226 98.018059 33.568916 97.80381 34.460579 C 97.589539 35.352249 97.234573 36.230648 97.014992 36.412579 C 96.700317 36.673309 96.645035 36.219257 96.754059 34.268955 C 96.864662 32.290035 96.75676 31.435888 96.215225 30.003464 C 95.842812 29.01837 94.999542 27.667179 94.341286 27.000814 C 93.683022 26.334457 92.511887 25.505404 91.738762 25.15848 C 90.965622 24.81156 89.487549 24.451172 88.454132 24.35762 C 86.575203 24.187525 86.575203 24.187525 86.575203 30.651415 C 86.575203 35.236561 86.691612 37.318413 86.975761 37.814098 C 87.196075 38.198433 87.424385 38.620865 87.483147 38.752831 C 87.541893 38.884796 86.48439 38.992771 85.133171 38.992771 C 83.781921 38.992771 82.724442 38.884796 82.783188 38.752831 C 82.841942 38.620865 83.070259 38.198433 83.290558 37.814098 C 83.571754 37.323574 83.691132 35.333961 83.691132 31.13842 C 83.691132 25.266348 83.679581 25.164547 83.032822 25.333399 C 82.670753 25.427925 82.057884 25.716774 81.670914 25.975281 C 81.28392 26.233789 80.586609 26.857071 80.121307 27.360353 C 79.656021 27.863636 78.97879 28.866371 78.616371 29.588663 C 78.253944 30.310949 77.861526 31.62356 77.744331 32.505569 C 77.627136 33.387577 77.689316 34.845047 77.882515 35.744392 C 78.075699 36.643738 78.555801 38.066456 78.949402 38.905991 C 79.342995 39.745525 80.356819 41.125328 81.202347 41.972218 C 82.047882 42.819107 83.403755 43.805286 84.215408 44.163727 C 85.027069 44.522171 86.358711 44.926441 87.174644 45.062115 C 87.990555 45.197784 89.451248 45.234352 90.420609 45.143368 Z M 123.959335 36.913284 C 124.320663 35.921528 124.554497 35.587914 124.712074 35.53207 C 124.869698 35.476231 125.47419 35.110649 126.055473 34.719673 C 127.112289 34.008797 127.112289 34.008797 127.201752 24.103838 C 127.268799 16.680552 127.191093 13.998482 126.891586 13.399067 C 126.671768 12.959179 126.43924 12.491295 126.374847 12.359325 C 126.310448 12.227356 129.510208 12.119385 133.485428 12.119385 C 140.713135 12.119385 140.713135 12.119385 140.994522 13.15913 C 141.149246 13.730988 141.241745 14.242622 141.200027 14.296095 C 141.15831 14.349564 140.639252 14.098166 140.046585 13.737423 C 139.09848 13.160343 138.43959 13.081394 134.56279 13.080345 L 130.15657 13.079147 L 130.15657 16.918203 C 130.15657 20.757259 130.15657 20.757259 132.901459 20.757259 C 134.510452 20.757259 135.93605 20.591766 136.346329 20.357357 C 136.731293 20.137409 137.154419 19.909466 137.286606 19.850813 C 137.418808 19.792162 137.526962 20.404015 137.526962 21.21048 C 137.526962 22.016949 137.400406 22.676786 137.245728 22.676786 C 137.091064 22.676786 136.785019 22.460836 136.565598 22.196905 C 136.262894 21.832773 135.441849 21.717022 133.161621 21.717022 L 130.15657 21.717022 L 130.15657 28.222956 C 130.15657 34.728893 130.15657 34.728893 131.999161 35.243599 C 133.012604 35.526684 135.355896 36.500259 137.206512 37.407089 C 139.057114 38.313923 141.639771 39.329605 142.94577 39.664165 C 144.251755 39.998726 146.373367 40.272457 147.6604 40.272457 C 149.253342 40.272457 150.575027 40.057858 151.799881 39.600338 C 153.032715 39.139839 154.188614 38.352489 155.471039 37.099716 C 156.951981 35.653008 157.449448 34.905022 157.8535 33.517399 C 158.258057 32.128036 158.29686 31.409128 158.040176 30.057896 C 157.861969 29.119772 157.413925 27.863964 157.044479 27.267216 C 156.675079 26.670469 155.917847 25.836218 155.361725 25.413324 C 154.805649 24.990431 153.675888 24.475111 152.851181 24.268171 C 151.679855 23.974257 151.08374 23.979609 150.127335 24.292622 C 149.453934 24.513014 148.572586 24.907871 148.168823 25.17009 C 147.76503 25.432306 147.080078 26.250921 146.646683 26.989235 C 146.191025 27.765451 145.858673 28.834633 145.858673 29.524252 C 145.858673 30.180199 146.006012 30.991737 146.186096 31.327671 C 146.366196 31.663597 146.609497 32.194004 146.726791 32.50634 C 146.916718 33.012165 146.878647 33.024326 146.378235 32.617645 C 146.069229 32.366524 145.609619 31.761827 145.356873 31.273872 C 145.104111 30.78591 144.900497 29.69569 144.904373 28.851158 C 144.908234 28.006626 145.174103 26.739786 145.495178 26.035961 C 145.816254 25.332132 146.667099 24.22691 147.38591 23.579908 C 148.325851 22.733847 149.109726 22.341127 150.177582 22.181257 C 150.994186 22.059004 152.151672 22.038256 152.749786 22.135153 C 153.347885 22.232052 154.35553 22.556881 154.989029 22.856997 C 155.622498 23.15711 156.625732 23.995152 157.218353 24.719307 C 157.811005 25.443466 158.543472 26.889397 158.8461 27.932489 C 159.21138 29.191629 159.341171 30.435894 159.232285 31.634743 C 159.14209 32.627892 158.748795 34.077885 158.358322 34.856956 C 157.967834 35.636021 157.050583 36.896782 156.319946 37.658642 C 155.589325 38.420502 154.380707 39.404762 153.634109 39.845886 C 152.887527 40.28701 151.517593 40.849667 150.589813 41.096237 C 149.653336 41.345127 147.477509 41.538399 145.698471 41.530731 C 143.60112 41.521687 141.67688 41.303272 140.129074 40.89859 C 138.742508 40.536053 135.958664 39.325722 133.399597 37.972809 C 129.508621 35.915756 128.838791 35.663635 127.22683 35.649479 C 125.859772 35.637474 125.240662 35.789688 124.688995 36.273441 L 123.959335 36.913284 Z M 107.616295 5.241077 C 108.940308 6.40036 109.508293 6.51535 111.36557 6.491997 C 113.422935 6.466141 114.234207 6.231113 119.42144 4.158318 C 122.593925 2.89061 126.26696 1.570641 127.583778 1.225044 C 128.900574 0.879444 131.615524 0.426281 133.616989 0.217995 C 136.376526 -0.069183 137.865112 -0.072071 139.776413 0.206051 C 141.162674 0.407764 143.00563 0.931358 143.871872 1.369595 C 144.738113 1.807827 145.892029 2.540348 146.436142 2.997417 C 146.980225 3.454487 147.714478 4.295422 148.067795 4.866158 C 148.421112 5.43689 148.814651 6.175629 148.942337 6.50779 C 149.070007 6.839954 148.557892 6.496185 147.804321 5.743851 C 147.050751 4.991531 145.61972 3.99575 144.624283 3.531025 C 143.137695 2.836987 142.24736 2.665745 139.640106 2.572365 C 137.643829 2.500866 135.443726 2.645763 133.711761 2.962784 C 132.197037 3.240044 128.722549 4.125912 125.990707 4.931374 C 123.25885 5.736843 119.725891 6.68623 118.139641 7.041126 C 116.553413 7.396023 114.931122 7.750793 114.534576 7.829494 C 113.82959 7.969414 113.813553 8.068546 113.813553 12.285439 L 113.813553 16.598282 L 117.779945 16.598282 C 120.914726 16.598282 121.830009 16.497665 122.145294 16.118399 C 122.364693 15.854465 122.670761 15.638519 122.825432 15.638519 C 122.980095 15.638519 123.106636 16.298355 123.106636 17.104824 C 123.106636 17.911293 122.998489 18.523144 122.866302 18.464491 C 122.734108 18.405838 122.310989 18.177895 121.92601 17.957945 C 121.476906 17.701355 119.897865 17.558044 117.519814 17.558044 L 113.813553 17.558044 L 113.813553 27.272501 C 113.813553 36.448616 113.84848 37.031296 114.443962 37.787064 C 114.790688 38.227119 114.982956 38.678429 114.871216 38.78997 C 114.759506 38.901512 113.610596 38.992771 112.318123 38.992771 C 111.025635 38.992771 109.968147 38.866436 109.968147 38.712021 C 109.968147 38.55761 110.184433 38.252056 110.448807 38.033005 C 110.863289 37.68959 110.929482 35.614567 110.929482 22.965752 C 110.929482 8.296757 110.929482 8.296757 109.888016 7.773884 C 109.315216 7.486305 108.674095 7.086708 108.46331 6.885887 C 108.252533 6.685066 107.975708 6.232834 107.848183 5.88092 L 107.616295 5.241077 Z M 86.575203 6.611668 L 86.575203 17.558044 L 89.095078 17.558044 C 90.48101 17.558044 92.384178 17.412403 93.324379 17.234394 C 94.279572 17.053545 95.37751 16.594793 95.812798 16.194653 C 96.241241 15.800804 96.789505 15.015297 97.031158 14.449087 C 97.272827 13.882881 97.470535 12.822746 97.470535 12.093239 C 97.470535 11.317261 97.176407 10.244381 96.761734 9.507782 C 96.371887 8.815292 95.542709 7.932682 94.919136 7.546421 C 93.967499 6.956951 93.206207 6.825455 90.180267 6.727898 L 86.575203 6.611668 Z"/>
    </g>
</svg>
