<?xml version="1.0" encoding="UTF-8"?>
<!-- Generated by Pixelmator Pro 3.3.5 -->
<svg width="482" height="96" viewBox="0 0 482 96" xmlns="http://www.w3.org/2000/svg">
    <defs>
        <style>
            svg path,
            svg text {
                fill: black;
                color-scheme: light;
            }

            @media (prefers-color-scheme:dark) {

                svg path,
                svg text {
                    fill: white;
                }
            }
        </style>
    </defs>
    <g id="Group-copy">
        <path id="Path-2" fill="#ffffff" fill-rule="evenodd" stroke="none" d="M 0.174881 78 C -0.105892 78 -0.291871 77.859543 -0.291871 77.531639 C 1.99705 70.060501 2.464928 68.520676 8.116796 52.78455 C 14.889948 35.46059 22.130644 19.117828 29.791563 3.801323 L 30.258318 3.521011 L 31.193596 3.521011 C 31.520716 3.521011 31.660353 3.707825 31.660353 3.987602 C 31.660353 4.360924 29.74469 8.423943 25.913778 16.175751 C 17.785814 33.406124 12.602409 45.547421 3.21322 72.631538 L 3.445707 73.797127 C 2.278077 76.598473 1.530679 78 1.156307 78 L 0.174881 78 Z M 29.417095 46.200817 C 28.342148 46.200817 27.782568 45.734619 27.782568 44.847179 C 27.782568 44.692547 27.794249 44.5345 27.819838 44.373486 C 26.950806 45.120083 26.221542 45.638397 25.635149 45.920506 L 23.580009 45.920506 C 23.346483 45.920506 23.11232 45.686409 22.925137 45.265862 L 22.925137 44.332684 C 22.925137 43.632355 23.298738 42.370209 24.092909 40.642525 L 23.860415 40.642525 C 21.711437 44.33131 20.124067 46.152916 19.049128 46.152916 L 18.582373 46.152916 C 17.741859 46.152916 17.273726 45.920616 17.226482 45.500042 L 17.226482 45.265862 C 18.16058 41.950417 21.665232 32.658501 27.830486 17.389236 L 27.596224 16.2201 C 27.969685 15.941231 28.343008 15.801414 28.623791 15.801414 C 29.278021 16.082115 29.651628 16.363228 29.791563 16.690247 L 29.791563 17.156837 C 29.604378 18.09063 26.382593 26.356033 20.122837 42.045856 C 20.122837 42.092175 20.028515 42.418579 19.888575 42.979031 C 21.756777 39.897015 23.53261 38.355694 25.214537 38.355694 L 25.867636 38.355694 C 26.194754 38.355694 26.428724 38.729149 26.568653 39.523067 C 25.914415 41.110836 25.353926 42.7449 24.934132 44.332684 C 25.72427 43.844135 27.005644 42.801308 28.716078 41.222664 L 28.716078 41.110897 C 28.763947 41.110897 28.832699 41.085804 28.914845 41.039932 C 29.26981 40.710087 29.635235 40.364635 30.025826 39.989658 L 30.151833 39.989658 C 30.683426 39.476601 31.349287 38.796898 32.173252 37.935234 L 33.85569 37.468639 L 34.276302 37.468639 C 35.537525 37.608555 36.143314 38.12249 36.143314 39.102604 C 36.143314 39.943726 34.462681 40.830673 31.053396 41.811661 C 30.305569 43.493031 29.885626 44.566555 29.885626 45.033459 L 30.118113 45.033459 C 31.986313 44.893581 34.509789 43.445652 37.685555 40.644306 L 38.432716 40.644306 C 38.713493 40.69062 38.853329 40.831104 38.853329 41.110897 L 38.853329 41.57748 C 35.770252 44.6595 33.109146 46.200817 30.772985 46.200817 L 29.417095 46.200817 Z M 32.92041 39.803379 L 33.108528 39.803379 L 34.089958 38.87019 C 33.388466 39.149944 33.014011 39.476379 32.92041 39.803379 Z M 79.398788 3.755188 C 79.398788 3.568077 79.165031 3.287857 78.651634 3.054428 C 58.284916 2.447647 43.85302 2.121239 35.39793 2.121239 L 30.772985 2.121239 C 19.515591 2.121239 8.44511 2.446732 -2.345232 3.054428 L -2.811987 2.399773 C -2.157751 1.932877 -1.549979 1.74691 -0.989341 1.74691 C 11.107658 1.233688 21.149754 1 29.090546 1 L 37.172665 1 C 43.525101 1 58.567059 1.326408 82.343071 1.933189 C 83.089989 2.07309 83.509064 2.307854 83.509064 2.633949 L 83.509064 3.286827 L 79.398788 3.755188 Z"/>
        <path id="Shape-51" fill="#ffffff" fill-rule="evenodd" stroke="none" d="M 364.486176 52.489075 C 366.601135 50.641037 368.292755 49.041122 369.607391 47.744095 C 370.916046 46.45295 372.945496 44.614429 374.118988 43.656139 C 375.288513 42.701088 376.353668 42.129078 376.489685 42.382275 C 376.625824 42.635704 376.335968 43.212765 375.844757 43.665096 C 375.352692 44.11816 372.555298 46.603195 369.604584 49.208286 C 364.169678 54.006573 364.169678 54.006573 363.116272 57.940079 C 362.048401 61.927731 362.048401 61.927731 364.759247 59.305283 C 366.239838 57.872963 368.69339 56.024364 370.214142 55.193058 C 371.73056 54.364136 373.350555 53.080273 373.817047 52.339592 C 374.282318 51.600826 375.120789 50.269718 375.679901 49.382374 C 376.684021 47.788567 376.679077 47.784698 375.046295 48.886158 C 374.138458 49.498592 373.311493 49.840618 373.210388 49.645161 C 373.109406 49.449829 374.072968 48.543098 375.34787 47.632713 C 376.618713 46.725224 378.109772 45.217651 378.66333 44.282715 C 379.215088 43.350868 380.023621 42.483444 380.461578 42.352371 C 380.960693 42.202991 381.021118 42.67017 380.622742 43.607826 C 380.080963 44.882874 380.23291 45.109356 381.633575 45.109356 C 382.540375 45.109356 383.799896 45.41674 384.433228 45.792889 C 385.067383 46.169521 385.484283 47.06749 385.358521 47.789574 C 385.154785 48.959988 385.351746 49.047485 387.12439 48.572258 C 388.220215 48.278481 389.791534 48.038353 390.61734 48.038353 C 391.727722 48.038353 392.649689 47.502232 394.152557 45.984886 C 395.391663 44.733849 396.610901 43.946186 397.305756 43.946186 C 398.19751 43.946186 398.270569 44.23946 397.646454 45.321869 C 397.208496 46.08136 395.916534 47.598545 394.772552 48.695358 C 393.624084 49.796425 391.995056 51.167442 391.155029 51.739223 C 390.313263 52.312157 389.037018 53.734196 388.317749 54.902561 C 387.595612 56.075695 386.916748 57.579849 386.811676 58.242165 C 386.675598 59.100254 387.108398 59.450275 388.307953 59.450275 C 389.578918 59.450275 390.950043 58.713779 393.843903 56.480209 C 395.943542 54.859581 399.38028 52.037388 401.479462 50.211056 C 403.565369 48.396317 405.525757 46.907265 405.84787 46.891609 C 406.189636 46.874985 405.975525 47.841503 405.330963 49.218452 C 404.720673 50.522209 404.437225 51.591534 404.703674 51.589302 C 404.970093 51.587059 406.085388 50.70631 407.178375 49.635738 C 408.267242 48.569176 410.325836 46.835941 411.751862 45.784058 C 413.172546 44.736073 414.92218 43.735081 415.644196 43.556217 C 416.365723 43.37748 416.872711 43.457176 416.771057 43.733471 C 416.669342 44.010052 415.70993 44.664352 414.63739 45.188114 C 413.562897 45.712856 411.146912 47.558533 409.259949 49.298347 C 407.36145 51.04884 404.706848 53.837891 403.364563 55.495071 C 402.014465 57.161835 400.454559 58.909031 399.904449 59.36961 C 399.353485 59.830936 398.704956 60.034317 398.464264 59.821075 C 398.185425 59.574009 398.467346 58.757874 399.239777 57.571911 C 399.903442 56.552982 401.104004 54.448936 401.905823 52.900623 C 403.352722 50.106739 403.352722 50.106739 400.640747 52.489075 C 399.139465 53.80785 396.376984 56.074543 394.499542 57.527279 C 392.61261 58.987343 390.388062 60.471172 389.563782 60.818356 C 388.738525 61.165936 387.492035 61.278336 386.795197 61.067879 C 385.990112 60.824734 385.583374 60.001987 385.677277 58.811829 C 385.75824 57.786385 386.31665 56.076527 386.916504 55.012447 C 387.51413 53.952282 388.53833 52.414326 389.192871 51.593376 C 389.84549 50.774769 390.604645 49.817093 390.881256 49.463478 C 391.240875 49.003826 390.499878 48.996655 388.27063 49.43821 C 385.225769 50.041302 385.074768 50.144329 381.931519 53.776299 C 379.671509 56.387642 377.213623 58.535446 373.889069 60.79631 C 369.054474 64.084061 369.054474 64.084061 365.786438 70.374626 C 363.958893 73.892403 360.556213 80.775681 358.210327 85.704887 C 355.825714 90.715454 353.487885 95.161736 353.050659 95.51017 C 352.581421 95.884171 352.301147 95.665771 352.368011 94.978867 C 352.430298 94.339531 354.897797 88.990326 357.800446 83.192429 C 360.648438 77.503639 363.865204 71.151871 364.989624 68.995171 C 367.013214 65.113869 367.013214 65.113869 364.631134 65.430267 C 362.785797 65.675385 362.09021 65.457245 361.556427 64.4674 C 361.171356 63.753307 361.226166 61.68568 361.677551 59.778358 C 362.118042 57.917057 362.321533 56.410599 362.132324 56.419849 C 361.943085 56.429104 359.570038 58.57188 356.836578 61.203091 C 354.078217 63.858288 350.829041 66.863846 349.635468 67.863113 C 348.437866 68.865784 347.377777 69.519356 347.283447 69.312515 C 347.189178 69.10582 350.603516 65.644127 354.818237 61.669266 C 358.976288 57.747871 362.582672 54.030697 362.882324 53.362579 C 363.181305 52.696033 363.478119 51.158527 363.542389 49.949165 C 363.634186 48.221622 363.464905 47.946941 362.736755 48.637451 C 362.029938 49.30769 361.983643 49.131504 362.539459 47.891186 C 363.012665 46.835251 363.556458 46.277328 364.111023 46.277328 C 364.577576 46.277328 364.928986 47.134464 364.891754 48.185596 C 364.85437 49.240623 364.748016 50.641037 364.655273 51.295418 L 364.486176 52.489075 Z M 318.335815 86.886391 C 317.552643 87.089203 317.204803 86.606064 317.310211 85.465012 C 317.409729 84.388069 318.32666 82.31179 319.753235 79.925629 C 320.997314 77.84465 323.4505 74.262138 325.200287 71.967606 C 326.936554 69.690697 330.169891 65.579651 332.378632 62.839588 C 334.566864 60.124985 338.170013 55.500698 340.383423 52.567905 C 342.574463 49.664783 344.302307 47.207989 344.243195 47.081841 C 344.184143 46.955738 341.241943 47.660622 337.693817 48.651314 C 334.133301 49.64547 330.632202 50.602348 329.9245 50.774654 C 328.746552 51.06144 328.798859 50.98592 330.534546 49.891178 C 331.575043 49.234947 334.084595 48.271164 336.110229 47.74894 C 338.132111 47.22768 341.179443 46.398914 342.882629 45.90715 C 345.075989 45.273876 346.229095 44.648582 346.85672 43.754276 C 347.341705 43.063133 348.547974 41.332039 349.533752 39.912407 C 350.514648 38.499916 352.382538 35.144489 353.677765 32.47298 C 355.811462 28.071968 356.149536 27.595436 357.802063 26.645004 C 358.789703 26.076996 361.449066 24.923897 363.707275 24.08387 C 365.958588 23.246429 368.883179 22.446411 370.212097 22.303787 C 371.540314 22.161224 373.20224 22.339165 373.906769 22.699577 C 374.612183 23.060455 375.164368 23.732597 375.132843 24.193512 C 375.101318 24.655159 374.918854 25.142075 374.727295 25.274841 C 374.535614 25.407677 373.887878 24.966034 373.289215 24.294876 C 372.277283 23.16037 371.993988 23.122665 369.069458 23.732101 C 367.34201 24.092079 363.983765 25.174034 361.601227 26.139099 C 357.247742 27.902527 357.247742 27.902527 356.230011 30.365479 C 355.666351 31.729538 354.107605 34.613377 352.759186 36.783165 C 351.400208 38.969963 349.684448 41.653328 348.953552 42.734344 C 347.683289 44.613228 347.692963 44.690605 349.154877 44.305061 C 349.999451 44.082302 352.49173 43.537857 354.690704 43.095646 C 356.88623 42.654121 359.44696 42.209805 360.384094 42.107674 C 361.320862 42.005573 362.0513 42.181511 362.007599 42.498909 C 361.963898 42.816673 359.526245 43.520687 356.585663 44.06398 C 353.639404 44.608337 350.078186 45.39481 348.675171 45.811279 C 346.118896 46.57008 346.118896 46.57008 341.164337 53.087765 C 338.390503 56.736656 333.570404 63.009529 330.446472 67.03492 C 327.279236 71.11615 323.478485 76.325462 322.030609 78.574707 C 320.57193 80.840935 319.254486 83.247223 319.112854 83.907707 C 318.970886 84.569633 319.213623 85.020058 319.652374 84.907372 C 320.091034 84.794724 322.667358 83.475243 325.365662 81.981888 C 328.050629 80.495888 331.963623 78.466995 334.066895 77.46962 C 336.163147 76.47554 339.131042 75.243607 340.666107 74.729782 C 342.198578 74.216835 344.817352 73.571426 346.486572 73.294952 C 348.154266 73.018753 349.540009 73.000214 349.567474 73.253723 C 349.59491 73.507462 347.770447 74.160538 345.509338 74.705711 C 343.24411 75.251884 339.595917 76.412369 337.400177 77.285942 C 335.198029 78.162086 330.301117 80.596046 326.499908 82.705765 C 322.671936 84.830338 318.987244 86.717705 318.335815 86.886391 Z M 364.639343 63.761303 C 365.709503 63.756069 366.961304 63.546284 367.420746 63.295326 C 367.879791 63.044586 369.216827 61.032181 370.384247 58.838261 C 372.484467 54.891357 372.484467 54.891357 368.609924 57.696404 C 366.46286 59.250839 364.248627 61.255188 363.698303 62.145355 C 362.774445 63.639858 362.849823 63.770058 364.639343 63.761303 Z M 409.168915 63.770821 C 408.446381 63.770821 407.781708 63.217079 407.692108 62.541706 C 407.582367 61.714695 408.126129 60.164692 409.358551 57.781998 C 410.355042 55.855572 411.932526 53.017208 412.865509 51.470505 C 413.793518 49.93214 415.02533 48.229359 415.606384 47.680058 C 416.186279 47.131802 416.859863 46.852463 417.10437 47.058491 C 417.391571 47.300514 416.8862 48.233212 415.673401 49.695873 C 414.635223 50.947868 412.748657 53.886475 411.475769 56.238434 C 410.192413 58.609715 409.20755 60.907261 409.296906 61.326904 C 409.386353 61.74715 409.906677 61.930977 410.452728 61.734985 C 410.998413 61.53912 412.434204 60.459343 413.639465 59.339291 C 414.840057 58.223545 417.161041 56.037899 418.793365 54.486057 C 420.416931 52.942524 422.475647 50.794147 423.373108 49.708134 C 424.267212 48.626228 425.904724 46.885124 427.011444 45.838776 C 428.114075 44.79628 429.376556 43.946186 429.820648 43.946186 C 430.264801 43.946186 430.492004 44.351204 430.325317 44.847034 C 430.158325 45.343727 429.332214 46.593204 428.486969 47.626278 C 427.638611 48.663105 425.907074 50.348499 424.637756 51.371487 C 422.784454 52.865128 422.096283 53.827133 421.206451 56.177387 C 420.083252 59.1441 420.083252 59.1441 422.035278 59.132534 C 423.740692 59.122417 424.77951 58.466091 430.210785 53.97678 C 433.586914 51.186157 437.184692 47.876106 438.231201 46.601818 C 439.835297 44.648567 440.174469 44.436718 440.467346 45.202667 C 440.732239 45.895489 441.086823 45.959827 441.974091 45.475819 C 442.785065 45.033413 443.250336 45.028114 443.52771 45.458122 C 443.745819 45.796307 443.506256 48.553665 442.990143 51.614849 C 442.334076 55.50626 442.265869 57.500259 442.776794 58.024792 C 443.374939 58.638935 443.88089 58.614277 445.397156 57.897167 C 446.428223 57.409542 448.151611 56.123753 449.224823 55.042797 C 450.294098 53.965889 452.42981 51.555252 453.965393 49.693241 C 455.491028 47.843296 457.709808 45.652321 458.901855 44.815796 C 460.34198 43.805126 461.191101 43.494225 461.453461 43.88081 C 461.716064 44.267914 461.107117 44.982845 459.622192 46.028107 C 458.392944 46.893368 456.414825 48.861996 455.223785 50.408016 C 454.026337 51.962444 452.370453 54.508205 451.545929 56.065163 C 450.452026 58.130867 450.153534 59.101967 450.465668 59.588799 C 450.778412 60.076443 451.574493 59.854637 453.357391 58.78392 C 454.705231 57.974453 459.493958 54.319 463.950836 50.700466 C 468.352112 47.127132 472.282349 44.152008 472.734344 44.048748 C 473.204803 43.941257 473.437103 44.31353 473.27774 44.920998 C 473.12442 45.505642 472.229828 46.907112 471.286621 48.038353 C 470.339722 49.17411 468.711639 50.841675 467.66922 51.742504 C 466.195648 53.015903 465.584045 54.03093 464.957794 56.251541 C 464.187805 58.981884 464.229126 59.155144 465.702667 59.341942 C 466.956085 59.500843 467.951019 58.957199 470.729919 56.599003 C 472.621094 54.994144 475.889221 52.088947 477.989014 50.146954 C 480.074677 48.21806 481.87027 46.789719 481.992157 46.961147 C 482.114105 47.132671 480.799164 48.703876 479.060303 50.462414 C 477.310669 52.231834 474.725128 54.770767 473.318604 56.10006 C 471.90564 57.43549 469.785583 59.151752 468.610565 59.910133 C 467.432495 60.670506 465.917572 61.294102 465.246887 61.294102 C 464.576294 61.294102 463.718506 60.75589 463.341614 60.09943 C 462.965576 59.444454 462.804291 58.275116 462.982025 57.501442 C 463.159271 56.729843 463.818298 54.907394 464.444061 53.456364 C 465.573792 50.836765 465.573792 50.836765 459.630157 55.482697 C 456.319855 58.070271 452.891022 60.503662 452.036682 60.869476 C 450.946228 61.33638 450.249878 61.34219 449.709625 60.888893 C 449.286346 60.533726 449.0755 59.349857 449.240021 58.261398 C 449.537537 56.292786 449.537537 56.292786 447.663818 57.886913 C 446.628815 58.767448 445.1604 59.64378 444.403076 59.831978 C 443.645264 60.020302 442.567627 60.000965 442.009186 59.789021 C 441.451111 59.577232 440.924103 58.308331 440.838013 56.974709 C 440.75235 55.647209 441.064423 53.286278 441.52887 51.730396 C 441.990814 50.182892 442.336212 48.415646 442.298798 47.796825 C 442.238342 46.797386 442.036102 46.893417 440.440918 48.680687 C 439.450958 49.789799 437.052704 53.050312 435.097168 55.948689 C 433.121826 58.876469 431.276611 61.294102 431.015015 61.294102 C 430.753448 61.294102 430.74353 60.668671 430.99231 59.906086 C 431.24054 59.145493 432.012634 57.567036 432.706207 56.400898 C 433.396973 55.239433 434.427002 53.345459 434.995636 52.192039 C 436.023743 50.106739 436.023743 50.106739 433.036957 52.930847 C 431.381561 54.49604 429.134308 56.535851 428.048126 57.458679 C 426.958405 58.384449 425.200439 59.625019 424.142761 60.213879 C 423.082886 60.80394 421.672211 61.289059 421.009857 61.290859 C 420.347443 61.292637 419.565613 60.808964 419.272858 60.21711 C 418.980774 59.626465 418.987366 58.196804 419.285919 57.043182 C 419.825684 54.957405 419.825684 54.957405 417.245972 57.651421 C 415.816803 59.143883 413.710358 61.132301 412.568359 62.065823 C 411.422699 63.002342 409.891418 63.770821 409.168915 63.770821 Z M 371.265778 61.294102 C 371.515869 61.294102 373.312836 60.107063 375.250214 58.662788 C 377.178009 57.225666 379.714935 54.97884 380.891541 53.668797 C 382.062836 52.364693 382.823517 51.222328 382.586823 51.124847 C 382.350189 51.027405 380.495392 51.596359 378.459869 52.391178 C 375.070953 53.71442 374.625275 54.046047 373.381622 56.177818 C 372.62735 57.470646 371.739471 59.151752 371.410797 59.910133 C 371.081268 60.670506 371.015686 61.294102 371.265778 61.294102 Z M 376.57785 51.879963 C 377.381592 51.644176 379.11676 51.056499 380.432373 50.574574 C 381.745697 50.093472 383.14444 49.470024 383.542236 49.18866 C 383.971497 48.885036 384.125885 48.308617 383.923279 47.769028 C 383.710754 47.203045 382.65567 46.863129 381.1138 46.863129 C 379.632233 46.863129 378.428925 47.156509 378.105377 47.59708 C 377.80835 48.00156 377.016663 49.222767 376.344147 50.314133 C 375.193054 52.182163 375.207703 52.281918 376.57785 51.879963 Z M 438.29538 49.620659 C 439.342773 48.379284 440.196045 47.05661 440.19574 46.676968 C 440.195435 46.276424 439.776764 46.4921 439.19519 47.192776 C 438.643341 47.857574 437.785217 49.183979 437.287933 50.14183 C 436.449982 51.755775 436.52832 51.715172 438.29538 49.620659 Z M 422.159973 37.066204 C 421.532257 37.066204 421.526001 36.730694 422.134918 35.794811 C 422.588348 35.098003 423.256836 34.293579 423.621307 34.005867 C 423.985352 33.718468 424.382965 33.643799 424.50531 33.839794 C 424.627716 34.035931 424.343475 34.839611 423.872284 35.627655 C 423.399811 36.417946 422.628693 37.066204 422.159973 37.066204 Z"/>
        <path id="BoyFend" fill="#ffffff" fill-rule="evenodd" stroke="none" d="M 176.599609 61.269531 L 176.599609 60.976563 C 177.406845 60.536259 177.810547 59.838757 177.810547 58.884766 L 177.810547 27.257813 C 177.810547 26.499519 177.506073 25.983917 176.894531 25.714844 C 176.160706 25.519157 175.529831 25.202026 175.003906 24.761719 C 174.477997 24.321419 174.166214 23.820419 174.068359 23.257813 L 174.214844 23.183594 C 174.581757 23.623894 175.010788 23.960976 175.5 24.193359 C 175.989243 24.425735 176.636139 24.541016 177.443359 24.541016 C 178.813187 24.541016 180.177551 24.321159 181.535156 23.880859 C 182.892746 23.440552 184.781464 22.719696 187.203125 21.716797 C 189.600327 20.689423 191.70549 19.851349 193.515625 19.203125 C 195.32576 18.554901 197.434326 17.997963 199.84375 17.533203 C 202.253189 17.068436 204.841339 16.835938 207.605469 16.835938 C 210.760971 16.835938 213.329178 17.344223 215.310547 18.359375 C 217.291916 19.374512 218.715607 20.463089 219.583984 21.625 C 220.452362 22.786919 221.009308 23.770912 221.253906 24.578125 L 221.179688 24.6875 C 220.348007 23.342125 218.990936 22.125633 217.107422 21.037109 C 215.223907 19.948586 212.71698 19.404297 209.585938 19.404297 C 207.408875 19.404297 205.103821 19.680092 202.669922 20.230469 C 200.236008 20.780846 197.195511 21.606277 193.550781 22.707031 C 190.664337 23.563179 188.287292 24.230034 186.416016 24.707031 C 184.544724 25.184021 182.740646 25.519157 181.003906 25.714844 L 181.003906 35.990234 L 189.039063 35.990234 C 189.968597 35.990234 190.653442 35.586514 191.09375 34.779297 L 191.386719 34.779297 L 191.386719 38.044922 L 191.09375 38.044922 C 190.653442 37.237694 189.968597 36.833984 189.039063 36.833984 L 181.003906 36.833984 L 181.003906 58.884766 C 181.003906 59.814297 181.407608 60.511799 182.214844 60.976563 L 182.214844 61.269531 L 176.599609 61.269531 Z M 226.060547 58.554688 C 223.810104 58.554688 221.860123 58.084339 220.208984 57.142578 C 218.557846 56.200821 217.242126 55.117599 216.263672 53.894531 C 215.285233 52.671471 214.29393 51.217121 213.291016 49.529297 C 212.728409 48.575306 212.288696 47.895802 211.970703 47.492188 C 211.652695 47.088581 211.346268 46.886719 211.052734 46.886719 L 206.943359 46.886719 L 206.943359 54.335938 C 206.943359 55.241005 207.347076 55.900566 208.154297 56.316406 L 208.154297 56.609375 L 202.541016 56.609375 L 202.541016 56.316406 C 203.348236 55.851643 203.751953 55.166786 203.751953 54.261719 L 203.751953 33.273438 C 203.751953 32.36837 203.348236 31.68351 202.541016 31.21875 L 202.541016 30.925781 L 214.90625 30.925781 C 216.349457 30.925781 217.683182 31.280853 218.90625 31.990234 C 220.129303 32.6996 221.095322 33.665611 221.804688 34.888672 C 222.514069 36.111732 222.869141 37.445461 222.869141 38.888672 C 222.869141 40.30743 222.483429 41.633842 221.712891 42.869141 C 220.942368 44.104431 219.90242 45.083084 218.59375 45.804688 C 217.28508 46.526295 215.872086 46.886719 214.355469 46.886719 L 213.181641 46.886719 C 214.209015 47.449329 215.126358 48.110844 215.933594 48.869141 C 216.740799 49.627438 217.742798 50.678066 218.941406 52.023438 C 219.99324 53.246498 220.905258 54.219795 221.675781 54.941406 C 222.446304 55.66301 223.333038 56.268585 224.335938 56.757813 C 225.338852 57.247032 226.463409 57.490234 227.710938 57.490234 C 228.640472 57.490234 229.496536 57.295677 230.279297 56.904297 C 231.062057 56.512913 231.685623 56.047913 232.150391 55.509766 L 232.371094 55.65625 C 231.001266 57.588688 228.898056 58.554688 226.060547 58.554688 Z M 242.277344 56.609375 L 242.277344 56.316406 C 243.084564 55.876106 243.488281 55.277832 243.488281 54.519531 L 243.488281 33.017578 C 243.488281 32.259281 243.084564 31.659058 242.277344 31.21875 L 242.277344 30.925781 L 258.679688 30.925781 L 259.339844 33.126953 L 259.046875 33.126953 C 258.117371 32.19743 257.199982 31.732422 256.294922 31.732422 L 246.681641 31.732422 L 246.681641 40.685547 L 252.625 40.685547 C 253.578995 40.685547 254.276489 40.271137 254.716797 39.439453 L 255.009766 39.439453 L 255.009766 42.703125 L 254.716797 42.703125 C 254.252029 41.895901 253.554535 41.494141 252.625 41.494141 L 246.681641 41.494141 L 246.681641 55.802734 L 257.761719 55.802734 C 258.666779 55.802734 259.584137 55.33773 260.513672 54.408203 L 260.806641 54.408203 L 260.146484 56.609375 L 242.277344 56.609375 Z M 270.347656 56.609375 L 270.347656 56.316406 C 271.154877 55.851643 271.558594 55.166786 271.558594 54.261719 L 271.558594 33.273438 C 271.558594 32.36837 271.154877 31.68351 270.347656 31.21875 L 270.347656 30.925781 L 273.722656 30.925781 L 288.326172 43.291016 L 288.326172 33.273438 C 288.326172 32.36837 287.922455 31.68351 287.115234 31.21875 L 287.115234 30.925781 L 290.527344 30.925781 L 290.527344 31.21875 C 289.720123 31.659058 289.316406 32.34391 289.316406 33.273438 L 289.316406 54.261719 C 289.316406 55.191246 289.720123 55.876106 290.527344 56.316406 L 290.527344 56.609375 L 287.115234 56.609375 L 287.115234 56.316406 C 287.922455 55.851643 288.326172 55.166786 288.326172 54.261719 L 288.326172 47.876953 L 272.548828 34.449219 L 272.548828 54.261719 C 272.548828 55.166786 272.952545 55.851643 273.759766 56.316406 L 273.759766 56.609375 L 270.347656 56.609375 Z M 300.800781 56.609375 L 300.800781 56.316406 C 301.608002 55.851643 302.011719 55.166786 302.011719 54.261719 L 302.011719 33.273438 C 302.011719 32.36837 301.608002 31.68351 300.800781 31.21875 L 300.800781 30.925781 L 310.011719 30.925781 C 312.775818 30.925781 315.134888 31.50071 317.091797 32.650391 C 319.048706 33.800064 320.52298 35.353653 321.513672 37.310547 C 322.504364 39.267445 323 41.419304 323 43.767578 C 323 46.091396 322.491699 48.225262 321.476563 50.169922 C 320.461426 52.11459 318.969147 53.668171 317 54.830078 C 315.030853 55.991993 312.702454 56.584919 310.011719 56.609375 L 300.800781 56.609375 Z M 305.205078 55.802734 L 309.865234 55.802734 C 311.919983 55.802734 313.668121 55.265747 315.111328 54.189453 C 316.554535 53.113159 317.648468 51.65686 318.394531 49.822266 C 319.140625 47.987671 319.513672 45.969093 319.513672 43.767578 C 319.513672 41.566071 319.147888 39.554783 318.414063 37.732422 C 317.680206 35.910053 316.584381 34.46106 315.128906 33.384766 C 313.673492 32.308475 311.930664 31.756897 309.900391 31.732422 L 305.205078 31.732422 L 305.205078 55.802734 Z M 226.169922 51.839844 L 226.169922 51.546875 C 226.977142 51.082111 227.380859 50.397255 227.380859 49.492188 L 227.380859 33.273438 C 227.380859 32.36837 226.977142 31.68351 226.169922 31.21875 L 226.169922 30.925781 L 231.710938 30.925781 L 231.710938 31.21875 C 230.903702 31.659058 230.5 32.34391 230.5 33.273438 L 230.5 49.492188 C 230.5 50.421715 230.903702 51.106571 231.710938 51.546875 L 231.710938 51.839844 L 226.169922 51.839844 Z M 206.943359 46.042969 L 212.777344 46.042969 C 214.024872 45.994045 215.169388 45.646275 216.208984 44.998047 C 217.248596 44.349831 218.07402 43.48645 218.685547 42.410156 C 219.297089 41.333858 219.603516 40.160664 219.603516 38.888672 C 219.603516 37.543301 219.333054 36.332153 218.794922 35.255859 C 218.25676 34.179565 217.449341 33.328846 216.373047 32.705078 C 215.296753 32.081322 214.000977 31.769531 212.484375 31.769531 L 206.943359 31.769531 L 206.943359 46.042969 Z M 160.198883 30.926033 L 163.794662 30.926033 L 163.794662 31.219566 C 162.889603 31.610954 162.11908 32.295849 161.483093 33.274307 L 156.456329 41.309792 L 156.456329 54.261963 C 156.456329 55.19149 156.85994 55.876396 157.667145 56.316696 L 157.667145 56.610229 L 152.053329 56.610229 L 152.053329 56.316696 C 152.86055 55.851933 153.264145 55.16703 153.264145 54.261963 L 153.264145 42.080311 L 147.613617 33.274307 C 146.977631 32.271389 146.194885 31.586494 145.26535 31.219566 L 145.26535 30.926033 L 150.952576 30.926033 L 150.952576 31.219566 C 150.805801 31.317413 150.732422 31.52533 150.732422 31.84333 C 150.732422 32.259167 150.903641 32.736153 151.246109 33.274307 L 155.869263 40.649342 L 160.529114 33.23761 C 160.773712 32.846237 160.896027 32.503784 160.896027 32.210247 C 160.896027 31.818863 160.663651 31.48864 160.198883 31.219566 Z M 124.754692 30.59581 C 127.543274 30.59581 129.934326 31.188988 131.927917 32.375362 C 133.921509 33.561729 135.419739 35.151691 136.422653 37.145275 C 137.425568 39.138874 137.927017 41.358696 137.927017 43.804825 C 137.927017 46.20203 137.413345 48.397396 136.385971 50.390987 C 135.358597 52.384583 133.848129 53.974541 131.854538 55.160908 C 129.860947 56.347279 127.494354 56.940456 124.754692 56.940456 C 121.96611 56.940456 119.575058 56.353397 117.581459 55.179253 C 115.587868 54.005116 114.089638 52.421272 113.086731 50.427681 C 112.083817 48.434086 111.582367 46.22649 111.582367 43.804825 C 111.582367 41.358696 112.083817 39.138874 113.086731 37.145275 C 114.089638 35.151691 115.587868 33.561729 117.581459 32.375362 C 119.575058 31.188988 121.96611 30.59581 124.754692 30.59581 Z M 124.754692 56.13324 C 126.809441 56.13324 128.564514 55.582867 130.019958 54.482117 C 131.475403 53.381355 132.576141 51.895359 133.322205 50.024071 C 134.068268 48.152786 134.441299 46.079723 134.441299 43.804825 C 134.441299 41.505466 134.068268 39.420174 133.322205 37.548885 C 132.576141 35.677597 131.475403 34.185482 130.019958 33.072495 C 128.564514 31.959518 126.809441 31.40303 124.754692 31.40303 C 122.699944 31.40303 120.944878 31.959518 119.489433 33.072495 C 118.033989 34.185482 116.933243 35.677597 116.18718 37.548885 C 115.441109 39.420174 115.068085 41.505466 115.068085 43.804825 C 115.068085 46.079723 115.441109 48.152786 116.18718 50.024071 C 116.933243 51.895359 118.033989 53.381355 119.489433 54.482117 C 120.944878 55.582867 122.699944 56.13324 124.754692 56.13324 Z M 75.03743 23.5877 L 90.117722 23.5877 C 91.389709 23.5877 92.563828 23.905693 93.640121 24.541679 C 94.716423 25.177673 95.566437 26.033806 96.190201 27.1101 C 96.813957 28.186394 97.125839 29.360512 97.125839 30.632507 C 97.125839 31.782181 96.868996 32.852348 96.355309 33.843029 C 95.841621 34.83371 95.126144 35.659264 94.208847 36.319714 C 93.29155 36.980175 92.282539 37.396008 91.181778 37.567234 C 94.948814 38.570148 97.761818 40.459747 99.620872 43.236103 C 101.479927 46.012455 102.409439 49.333023 102.409439 53.197906 C 102.409439 56.206638 101.651154 58.964607 100.13456 61.471882 C 98.617958 63.97916 96.495979 65.960495 93.768547 67.415939 C 91.041115 68.871384 87.940697 69.599091 84.467194 69.599091 C 81.164925 69.599091 78.339691 68.914192 75.991409 67.544357 C 73.643135 66.17453 71.875832 64.382767 70.689461 62.169029 C 69.50309 59.95528 68.909912 57.625381 68.909912 55.179253 C 68.909912 53.369122 69.240135 51.632401 69.900589 49.969028 C 70.561043 48.305664 71.557823 46.856358 72.890961 45.621067 C 74.224106 44.385773 75.832405 43.486832 77.715927 42.924225 L 77.715927 25.972656 C 77.715927 25.458969 77.397934 25.012558 76.76194 24.633408 C 76.125946 24.254257 75.551117 24.003532 75.03743 23.881233 Z M 87.439224 36.796711 C 89.371666 36.796711 90.888245 36.295265 91.988998 35.292347 C 93.089752 34.289433 93.640121 32.736176 93.640121 30.632507 C 93.640121 29.482826 93.377174 28.437126 92.85125 27.495361 C 92.325333 26.553604 91.591507 25.807549 90.64975 25.257164 C 89.707993 24.706787 88.637825 24.43161 87.439224 24.43161 L 80.908104 24.43161 L 80.908104 36.796711 Z M 76.505096 60.976543 C 76.82309 60.829777 77.104393 60.579052 77.349007 60.224361 C 77.59362 59.869678 77.715927 59.435497 77.715927 58.92181 L 77.715927 45.235806 C 75.441025 46.018562 73.710419 47.333336 72.524048 49.180161 C 71.337677 51.026989 70.744499 53.112278 70.744499 55.436096 C 70.744499 57.637611 71.270409 59.765705 72.322243 61.820454 C 73.374077 63.875198 74.902885 65.544655 76.908707 66.828873 C 78.914528 68.113091 81.275002 68.755188 83.990204 68.755188 C 87.023399 68.755188 89.695755 68.064163 92.007339 66.682106 C 94.318932 65.300041 96.104576 63.422672 97.364334 61.049927 C 98.624084 58.677189 99.25396 56.059872 99.25396 53.197906 C 99.25396 50.384857 98.611855 47.785889 97.327644 45.400913 C 96.043427 43.015945 94.294472 41.126339 92.080727 39.732044 C 89.866982 38.337757 87.42701 37.640621 84.760735 37.640621 L 80.908104 37.640621 L 80.908104 42.337158 C 81.177177 42.312695 81.59301 42.300465 82.155624 42.300465 C 84.821899 42.300465 87.053955 42.863064 88.851852 43.988281 C 90.649757 45.113503 91.98288 46.550579 92.85125 48.299557 C 93.719627 50.048538 94.153809 51.852528 94.153809 53.711586 C 94.153809 54.73896 94.019272 55.711281 93.750198 56.628578 C 93.481125 57.545876 93.101982 58.33474 92.612755 58.995193 L 92.429298 58.92181 C 92.820679 57.821053 93.016365 56.610237 93.016365 55.289333 C 93.016365 53.479198 92.624992 51.754704 91.842232 50.115799 C 91.059471 48.476898 89.854774 47.137661 88.228096 46.098057 C 86.601425 45.058453 84.589516 44.538658 82.192314 44.538658 C 81.60524 44.538658 81.177177 44.550888 80.908104 44.575348 L 80.908104 58.92181 C 80.908104 59.435497 81.030403 59.869678 81.275017 60.224361 C 81.51963 60.579052 81.800934 60.829777 82.118927 60.976543 L 82.118927 61.270081 L 76.505096 61.270081 Z"/>
    </g>
</svg>
