<?xml version="1.0" encoding="UTF-8"?>
<!-- Generated by Pixelmator Pro 3.3.5 -->
<svg width="288" height="196" viewBox="0 0 288 196" xmlns="http://www.w3.org/2000/svg">
    <defs>
        <style>
            svg path,
            svg text {
                fill: black;
                color-scheme: light;
            }

            @media (prefers-color-scheme:dark) {

                svg path,
                svg text {
                    fill: white;
                }
            }
        </style>
    </defs>
    <g id="Group-copy">
        <path id="Path-2"  fill-rule="evenodd" stroke="none" d="M 42.60413 82.345467 C 42.308636 82.345467 42.112907 82.197647 42.112907 81.852547 C 44.521828 73.989731 45.014233 72.369179 50.96241 55.80806 C 58.090652 37.575867 65.710953 20.376312 73.773506 4.256821 L 74.264732 3.961807 L 75.249046 3.961807 C 75.593307 3.961807 75.740265 4.158417 75.740265 4.452866 C 75.740265 4.845764 73.724174 9.121796 69.692421 17.279999 C 61.13834 35.413696 55.683186 48.191513 45.801758 76.695557 L 46.046432 77.922249 C 44.817589 80.870461 44.031006 82.345467 43.637009 82.345467 L 42.60413 82.345467 Z M 73.379402 48.879166 C 72.2481 48.879166 71.659187 48.388535 71.659187 47.454559 C 71.659187 47.291824 71.671478 47.125488 71.69841 46.956039 C 70.783821 47.741776 70.016319 48.287262 69.399185 48.584167 L 67.236305 48.584167 C 66.990532 48.584167 66.744095 48.337799 66.547096 47.895203 L 66.547096 46.913101 C 66.547096 46.176056 66.940285 44.847733 67.776093 43.02948 L 67.53141 43.02948 C 65.269768 46.911652 63.599178 48.828766 62.467884 48.828766 L 61.976658 48.828766 C 61.092079 48.828766 60.599403 48.584274 60.549683 48.141647 L 60.549683 47.895203 C 61.532753 44.40593 65.221138 34.626877 71.709618 18.557098 L 71.463074 17.326675 C 71.85611 17.033188 72.249008 16.886047 72.54451 16.886047 C 73.23304 17.181458 73.626236 17.47731 73.773506 17.821457 L 73.773506 18.312515 C 73.576508 19.295273 70.185814 27.993988 63.597885 44.506378 C 63.597885 44.55513 63.498615 44.898636 63.351341 45.48848 C 65.317482 42.244873 67.186417 40.622757 68.95652 40.622757 L 69.64386 40.622757 C 69.988129 40.622757 70.234367 41.015793 70.38163 41.851334 C 69.693092 43.522339 69.103218 45.242065 68.661415 46.913101 C 69.492981 46.398941 70.84153 45.301437 72.64164 43.64003 L 72.64164 43.5224 C 72.692017 43.5224 72.764374 43.496002 72.850822 43.447723 C 73.224396 43.100586 73.608986 42.737015 74.02005 42.342377 L 74.152664 42.342377 C 74.712128 41.802429 75.412895 41.087097 76.28006 40.180252 L 78.050697 39.689194 L 78.493362 39.689194 C 79.820709 39.836441 80.45826 40.377319 80.45826 41.408813 C 80.45826 42.294037 78.689514 43.227493 75.101494 44.259903 C 74.314461 46.029419 73.872498 47.159225 73.872498 47.650604 L 74.117172 47.650604 C 76.083321 47.503403 78.73909 45.979553 82.081352 43.031342 L 82.867683 43.031342 C 83.163177 43.080093 83.310349 43.227936 83.310349 43.5224 L 83.310349 44.013443 C 80.065636 47.25705 77.265022 48.879166 74.806381 48.879166 L 73.379402 48.879166 Z M 77.066391 42.146332 L 77.264366 42.146332 L 78.297249 41.16423 C 77.558983 41.458649 77.164894 41.802185 77.066391 42.146332 Z M 125.981461 4.208267 C 125.981461 4.011353 125.735443 3.716431 125.195129 3.470764 C 103.760658 2.832184 88.572151 2.488663 79.673798 2.488663 L 74.806381 2.488663 C 62.958801 2.488663 51.307938 2.831223 39.951897 3.470764 L 39.46067 2.781799 C 40.149204 2.290421 40.788841 2.094696 41.378872 2.094696 C 54.110073 1.554581 64.678635 1.30864 73.035736 1.30864 L 81.541573 1.30864 C 88.227043 1.30864 104.057594 1.652161 129.080093 2.290756 C 129.866165 2.437988 130.30722 2.685059 130.30722 3.028259 L 130.30722 3.715363 L 125.981461 4.208267 Z"/>
        <path id="Shape-51"  fill-rule="evenodd" stroke="none" d="M 159.029556 147.315277 C 161.348846 145.288696 163.203873 143.534225 164.645523 142.111877 C 166.080612 140.695999 168.306122 138.679871 169.592972 137.628998 C 170.875504 136.581665 172.043564 135.954407 172.192703 136.232056 C 172.34201 136.509979 172.02417 137.142792 171.485489 137.638809 C 170.945877 138.135651 167.878235 140.860764 164.642456 143.717529 C 158.682465 148.979385 158.682465 148.979385 157.527313 153.292908 C 156.356247 157.665802 156.356247 157.665802 159.328995 154.790009 C 160.952621 153.219315 163.643219 151.192123 165.310898 150.280487 C 166.973816 149.37149 168.750305 147.963593 169.261887 147.151352 C 169.77211 146.341217 170.691589 144.881516 171.304703 143.908447 C 172.405838 142.160645 172.400391 142.156418 170.609879 143.364288 C 169.614349 144.035889 168.707474 144.41095 168.596619 144.196609 C 168.485886 143.982422 169.542511 142.988083 170.940598 141.989746 C 172.334213 140.994583 173.96933 139.341354 174.576355 138.316101 C 175.181427 137.29422 176.068069 136.343002 176.548325 136.199265 C 177.095673 136.035461 177.161926 136.54776 176.725067 137.576019 C 176.130951 138.974243 176.297577 139.222595 177.833557 139.222595 C 178.827988 139.222595 180.209167 139.559692 180.903702 139.972168 C 181.599106 140.385193 182.05629 141.369904 181.918381 142.161758 C 181.694946 143.445251 181.910934 143.541199 183.854858 143.02005 C 185.056534 142.697906 186.779678 142.43457 187.685242 142.43457 C 188.902924 142.43457 189.913956 141.846649 191.562012 140.182724 C 192.920837 138.810822 194.257858 137.947052 195.019852 137.947052 C 195.997742 137.947052 196.077866 138.268661 195.393448 139.455643 C 194.913193 140.288513 193.496414 141.952271 192.241898 143.15506 C 190.982498 144.362488 189.196091 145.865967 188.274902 146.492981 C 187.351807 147.121277 185.952271 148.680695 185.163513 149.961929 C 184.371582 151.248413 183.627136 152.897873 183.511917 153.624176 C 183.362701 154.56517 183.837296 154.949005 185.152756 154.949005 C 186.546524 154.949005 188.050095 154.141357 191.223526 151.692001 C 193.526047 149.914795 197.294769 146.819946 199.596771 144.817184 C 201.884186 142.827118 204.033981 141.194214 204.387207 141.177032 C 204.761993 141.158813 204.527191 142.218704 203.820374 143.728683 C 203.151123 145.158401 202.840271 146.331024 203.132492 146.328583 C 203.424622 146.326126 204.647675 145.360291 205.846268 144.186279 C 207.040329 143.016678 209.297791 141.115997 210.861588 139.962494 C 212.41954 138.813263 214.338211 137.715561 215.129959 137.519409 C 215.921204 137.32341 216.477158 137.410797 216.365692 137.713791 C 216.25415 138.01709 215.202072 138.734604 214.025879 139.308975 C 212.847595 139.884399 210.198196 141.908386 208.128952 143.816299 C 206.047028 145.735901 203.135956 148.794403 201.663986 150.611694 C 200.183472 152.439484 198.472855 154.355469 197.869614 154.86055 C 197.265396 155.36644 196.55423 155.589478 196.290268 155.355621 C 195.984512 155.084686 196.29364 154.189713 197.140717 152.889175 C 197.868484 151.771805 199.185043 149.464478 200.064316 147.766586 C 201.651031 144.702789 201.651031 144.702789 198.677017 147.315277 C 197.030716 148.761459 194.001343 151.247147 191.94252 152.840225 C 189.873306 154.441345 187.433823 156.068542 186.529907 156.449249 C 185.624939 156.830414 184.258011 156.953674 183.493866 156.722885 C 182.610977 156.456253 182.164948 155.554016 182.267929 154.248871 C 182.35672 153.124359 182.969086 151.249329 183.626892 150.082443 C 184.282242 148.919846 185.405411 147.233307 186.123169 146.333038 C 186.838837 145.435349 187.671341 144.385162 187.974686 143.997375 C 188.369019 143.493317 187.556458 143.485458 185.111832 143.969666 C 181.772781 144.631027 181.607208 144.744003 178.160278 148.726868 C 175.681946 151.590485 172.986588 153.945801 169.340851 156.425079 C 164.039185 160.030472 164.039185 160.030472 160.455414 166.928772 C 158.451324 170.786392 154.719925 178.334671 152.147385 183.740082 C 149.532394 189.234726 146.968689 194.110565 146.489243 194.492661 C 145.97467 194.902802 145.667328 194.6633 145.740646 193.910034 C 145.808929 193.208939 148.514816 187.342941 151.697906 180.984894 C 154.82106 174.746521 158.348572 167.781097 159.581635 165.416046 C 161.80072 161.15976 161.80072 161.15976 159.188522 161.506729 C 157.164902 161.775528 156.402115 161.536316 155.816742 160.450836 C 155.394485 159.667755 155.454575 157.400375 155.94957 155.308777 C 156.432632 153.26767 156.655777 151.615662 156.448288 151.625809 C 156.240753 151.635956 153.638458 153.985748 150.64093 156.871155 C 147.616058 159.782883 144.052979 163.078796 142.74411 164.174622 C 141.430817 165.274155 140.26828 165.99086 140.164856 165.764038 C 140.061478 165.537384 143.805679 161.741241 148.427567 157.38237 C 152.98735 153.082123 156.942154 149.005844 157.270737 148.273178 C 157.598602 147.542236 157.924103 145.856186 157.994568 144.529999 C 158.095245 142.635544 157.909622 142.33432 157.111115 143.091553 C 156.336029 143.826538 156.285263 143.633331 156.894775 142.273193 C 157.413681 141.115234 158.010025 140.503418 158.618149 140.503418 C 159.129791 140.503418 159.515137 141.443359 159.474289 142.596039 C 159.433319 143.752991 159.316666 145.288696 159.214996 146.006302 L 159.029556 147.315277 Z M 108.420593 185.035736 C 107.56176 185.258148 107.180298 184.728333 107.295898 183.477036 C 107.405029 182.296051 108.410553 180.01918 109.974937 177.402496 C 111.339203 175.120468 114.029388 171.191849 115.948219 168.675644 C 117.852226 166.178757 121.397957 161.670547 123.820084 158.665771 C 126.219734 155.688904 130.17099 150.617859 132.598221 147.401733 C 135.000916 144.21814 136.895721 141.523987 136.830887 141.385651 C 136.766129 141.24736 133.539688 142.020355 129.648758 143.10675 C 125.74427 144.19696 121.90493 145.246277 121.12886 145.435226 C 119.837112 145.749725 119.894447 145.666901 121.797829 144.4664 C 122.93885 143.746765 125.690865 142.68988 127.912193 142.117188 C 130.12941 141.545578 133.47113 140.636749 135.338882 140.097473 C 137.744141 139.403015 139.008652 138.717316 139.696884 137.736603 C 140.228729 136.978699 141.551529 135.080353 142.632584 133.523575 C 143.708206 131.974609 145.756577 128.295029 147.176941 125.365417 C 149.516769 120.53923 149.887512 120.016655 151.699692 118.974403 C 152.782761 118.351517 155.69902 117.087013 158.175385 116.165833 C 160.644196 115.24749 163.851364 114.370178 165.30867 114.213776 C 166.765182 114.057442 168.587692 114.252571 169.36026 114.647804 C 170.133835 115.043549 170.739349 115.780624 170.704803 116.286064 C 170.670227 116.79232 170.470123 117.326271 170.260071 117.471863 C 170.04985 117.617538 169.339539 117.133224 168.68306 116.397232 C 167.573364 115.153114 167.262695 115.111771 164.055634 115.780083 C 162.16127 116.174843 158.478607 117.36132 155.865875 118.419617 C 151.091812 120.353416 151.091812 120.353416 149.975754 123.054314 C 149.357635 124.550156 147.648315 127.712601 146.169617 130.09201 C 144.679321 132.490082 142.797821 135.432678 141.996307 136.618134 C 140.603317 138.678543 140.613937 138.763397 142.217072 138.340607 C 143.14325 138.096329 145.876328 137.499283 148.287735 137.014343 C 150.695374 136.530167 153.503494 136.042923 154.531158 135.930923 C 155.558411 135.81897 156.359451 136.011902 156.311508 136.359955 C 156.26358 136.70842 153.590439 137.480453 150.365753 138.076233 C 147.134857 138.673187 143.229599 139.535629 141.691025 139.99234 C 138.887787 140.824448 138.887787 140.824448 133.454559 147.971802 C 130.412766 151.973221 125.126984 158.852127 121.701263 163.266403 C 118.228035 167.741928 114.060074 173.454514 112.472343 175.921051 C 110.872726 178.406219 109.428009 181.044983 109.27269 181.769287 C 109.117012 182.495163 109.383179 182.98909 109.864342 182.865524 C 110.345375 182.741989 113.170609 181.295044 116.129593 179.65741 C 119.073936 178.027847 123.364967 175.802948 125.671432 174.709213 C 127.970215 173.619095 131.224854 172.268143 132.908218 171.704666 C 134.58873 171.142166 137.460495 170.434418 139.291016 170.131226 C 141.119797 169.828339 142.639435 169.808014 142.669525 170.086014 C 142.699631 170.364258 140.698914 171.080429 138.219345 171.678284 C 135.73526 172.277222 131.734634 173.54982 129.326752 174.507782 C 126.91185 175.468567 121.541862 178.13768 117.373413 180.451218 C 113.175629 182.781052 109.134941 184.850754 108.420593 185.035736 Z M 159.19751 159.676529 C 160.371063 159.670776 161.74379 159.440735 162.247635 159.165527 C 162.751038 158.890564 164.217239 156.683746 165.497452 154.277863 C 167.800537 149.949646 167.800537 149.949646 163.551712 153.025696 C 161.19722 154.730301 158.769043 156.928284 158.165573 157.904465 C 157.152435 159.54335 157.235107 159.686127 159.19751 159.676529 Z M 208.029099 159.686951 C 207.236755 159.686951 206.507889 159.079727 206.409622 158.339096 C 206.289276 157.43219 206.885559 155.732452 208.237076 153.119553 C 209.329819 151.007019 211.059708 147.89444 212.082855 146.198303 C 213.100479 144.511322 214.451294 142.644028 215.088486 142.041656 C 215.724426 141.44043 216.463074 141.134109 216.731201 141.360046 C 217.046173 141.625458 216.491974 142.648254 215.162003 144.252228 C 214.023529 145.625183 211.954697 148.847687 210.558838 151.426865 C 209.151489 154.027237 208.071472 156.546753 208.169464 157.006927 C 208.267563 157.467789 208.83815 157.669373 209.436966 157.454437 C 210.03537 157.239655 211.609863 156.055557 212.93158 154.827301 C 214.248154 153.60376 216.79335 151.206955 218.583374 149.505188 C 220.363785 147.812531 222.621399 145.456604 223.605576 144.265671 C 224.58606 143.079239 226.381775 141.169922 227.595428 140.022491 C 228.804581 138.879272 230.189026 137.947052 230.676025 137.947052 C 231.163101 137.947052 231.412231 138.391205 231.229446 138.934937 C 231.046326 139.479614 230.140411 140.849808 229.213501 141.982681 C 228.283173 143.11969 226.384338 144.967896 224.992416 146.089722 C 222.960068 147.727661 222.205399 148.782608 221.229614 151.359924 C 219.997879 154.613251 219.997879 154.613251 222.138519 154.600571 C 224.008667 154.589478 225.147842 153.869736 231.103836 148.946716 C 234.806137 145.88649 238.751511 142.256653 239.899124 140.859253 C 241.658188 138.7173 242.030121 138.484985 242.351303 139.324921 C 242.6418 140.084686 243.030624 140.155243 244.003601 139.624466 C 244.892944 139.139328 245.403152 139.133514 245.707336 139.605072 C 245.946503 139.975922 245.683807 142.999664 245.117813 146.356598 C 244.398361 150.623962 244.323593 152.810593 244.88385 153.385803 C 245.539795 154.05928 246.09462 154.032242 247.757385 153.24585 C 248.888062 152.711121 250.777954 151.301102 251.954834 150.115723 C 253.127411 148.934769 255.469452 146.291245 257.153381 144.249329 C 258.826447 142.220673 261.259552 139.818024 262.566772 138.900681 C 264.146027 137.792374 265.077209 137.451431 265.364868 137.875366 C 265.652893 138.299866 264.985077 139.083862 263.35672 140.230118 C 262.008698 141.17897 259.839478 143.337784 258.533386 145.033173 C 257.220245 146.737778 255.404358 149.52948 254.500198 151.236847 C 253.300598 153.502136 252.973282 154.567047 253.315552 155.100922 C 253.658539 155.635666 254.531525 155.392426 256.486664 154.218277 C 257.964722 153.330597 263.216064 149.321991 268.103546 145.353882 C 272.930023 141.435318 277.23996 138.17276 277.735626 138.05954 C 278.251526 137.94165 278.506256 138.349884 278.331543 139.016052 C 278.163391 139.657166 277.182373 141.194046 276.148041 142.43457 C 275.10965 143.680054 273.32428 145.508728 272.181152 146.496582 C 270.565216 147.893005 269.894531 149.006088 269.207764 151.441238 C 268.363403 154.435364 268.408722 154.625366 270.024597 154.8302 C 271.399139 155.004456 272.490173 154.408295 275.537567 151.822266 C 277.61145 150.062363 281.195313 146.876495 283.497955 144.746887 C 285.785095 142.631638 287.754181 141.065308 287.887848 141.253296 C 288.021576 141.441391 286.57959 143.164398 284.672729 145.092819 C 282.754059 147.033188 279.918732 149.817413 278.376343 151.275116 C 276.826874 152.739563 274.501984 154.621643 273.21344 155.453293 C 271.921539 156.287125 270.260284 156.970963 269.524811 156.970963 C 268.789398 156.970963 267.848755 156.380753 267.435455 155.660873 C 267.023071 154.942627 266.846222 153.660309 267.041107 152.81189 C 267.235474 151.965759 267.958191 149.967239 268.644409 148.376022 C 269.883301 145.503342 269.883301 145.503342 263.365417 150.598114 C 259.735321 153.435669 255.975235 156.104156 255.038345 156.50531 C 253.842545 157.017334 253.078918 157.023697 252.486496 156.526611 C 252.022308 156.137131 251.791092 154.838882 251.971512 153.645264 C 252.297775 151.486481 252.297775 151.486481 250.243027 153.234604 C 249.108032 154.200211 247.497757 155.161209 246.667252 155.367584 C 245.836227 155.574097 244.654495 155.552902 244.042084 155.32048 C 243.430099 155.088226 242.852173 153.696747 242.757767 152.234283 C 242.663849 150.778534 243.006058 148.189499 243.515381 146.483307 C 244.021957 144.786285 244.400726 142.848312 244.35968 142.169708 C 244.293396 141.073715 244.071609 141.179016 242.322311 143.138962 C 241.236694 144.355225 238.60675 147.93074 236.462296 151.109131 C 234.296112 154.319763 232.272644 156.970963 231.985764 156.970963 C 231.698929 156.970963 231.688049 156.28511 231.960876 155.448853 C 232.233078 154.614777 233.079758 152.88382 233.840363 151.605026 C 234.597839 150.33136 235.727402 148.254395 236.350967 146.989548 C 237.478394 144.702789 237.478394 144.702789 234.203033 147.799728 C 232.387726 149.516144 229.92337 151.753021 228.732254 152.764999 C 227.537247 153.780212 225.609451 155.140625 224.4496 155.786377 C 223.287308 156.433441 221.740341 156.965439 221.014008 156.967407 C 220.287598 156.96936 219.430237 156.438965 219.109207 155.789932 C 218.78891 155.142212 218.796143 153.574432 219.123535 152.309357 C 219.715439 150.022079 219.715439 150.022079 216.88649 152.976364 C 215.31926 154.613007 213.009308 156.793533 211.756973 157.817245 C 210.500626 158.844238 208.821396 159.686951 208.029099 159.686951 Z M 166.464142 156.970963 C 166.738388 156.970963 168.708969 155.66925 170.833496 154.085434 C 172.947556 152.509476 175.729553 150.045578 177.019836 148.608978 C 178.304306 147.178879 179.138458 145.926147 178.878891 145.819244 C 178.6194 145.712402 176.585434 146.336319 174.353241 147.207932 C 170.636932 148.659012 170.148193 149.022675 168.784409 151.360397 C 167.957245 152.778122 166.983582 154.621643 166.623169 155.453293 C 166.26181 156.287125 166.189865 156.970963 166.464142 156.970963 Z M 172.289398 146.647324 C 173.170807 146.388763 175.073608 145.744308 176.516312 145.21582 C 177.956512 144.688232 179.490387 144.004562 179.92662 143.696014 C 180.397354 143.363052 180.56665 142.730942 180.344482 142.139221 C 180.111435 141.518555 178.954422 141.145813 177.263565 141.145813 C 175.63887 141.145813 174.319336 141.467529 173.964523 141.950668 C 173.638779 142.394226 172.770599 143.733414 172.033142 144.930206 C 170.770828 146.978714 170.786896 147.088104 172.289398 146.647324 Z M 239.969513 144.169739 C 241.118073 142.808441 242.053787 141.357986 242.053436 140.941666 C 242.053131 140.502426 241.594009 140.738937 240.956253 141.507294 C 240.351074 142.236328 239.410049 143.690872 238.8647 144.741272 C 237.945801 146.511139 238.031708 146.466614 239.969513 144.169739 Z M 222.275223 130.402405 C 221.586884 130.402405 221.580032 130.03447 222.247772 129.008179 C 222.74498 128.244049 223.478058 127.361908 223.877747 127.046402 C 224.276962 126.731239 224.712982 126.649353 224.847168 126.864281 C 224.981384 127.079369 224.669693 127.960693 224.153 128.824875 C 223.634857 129.691513 222.789261 130.402405 222.275223 130.402405 Z"/>
        <path id="BoyFend"  fill-rule="evenodd" stroke="none" d="M 120.173828 115.269531 L 120.173828 114.941406 C 121.074631 114.450058 121.525391 113.671997 121.525391 112.607422 L 121.525391 77.3125 C 121.525391 76.466301 121.182419 75.89402 120.5 75.59375 C 119.681099 75.375381 118.979462 75.020638 118.392578 74.529297 C 117.805702 74.037956 117.456848 73.47744 117.347656 72.849609 L 117.511719 72.767578 C 117.921165 73.258919 118.399376 73.635216 118.945313 73.894531 C 119.491257 74.153854 120.214447 74.283203 121.115234 74.283203 C 122.643852 74.283203 124.164711 74.03627 125.679688 73.544922 C 127.194649 73.053581 129.303482 72.250015 132.005859 71.130859 C 134.680939 69.98439 137.02887 69.049538 139.048828 68.326172 C 141.068787 67.602798 143.422592 66.981537 146.111328 66.462891 C 148.800064 65.94426 151.686951 65.683594 154.771484 65.683594 C 158.29277 65.683594 161.160065 66.249985 163.371094 67.382813 C 165.582138 68.515625 167.171585 69.730751 168.140625 71.027344 C 169.10965 72.323952 169.730942 73.423431 170.003906 74.324219 L 169.921875 74.447266 C 168.99379 72.945946 167.478821 71.587746 165.376953 70.373047 C 163.275116 69.15834 160.476395 68.550781 156.982422 68.550781 C 154.552994 68.550781 151.981659 68.858482 149.265625 69.472656 C 146.549591 70.08683 143.157059 71.007973 139.089844 72.236328 C 135.86882 73.191719 133.215134 73.934509 131.126953 74.466797 C 129.038742 74.999077 127.024002 75.375381 125.085938 75.59375 L 125.085938 87.056641 L 134.052734 87.056641 C 135.090012 87.056641 135.854355 86.607819 136.345703 85.707031 L 136.673828 85.707031 L 136.673828 89.349609 L 136.345703 89.349609 C 135.854355 88.448807 135.090012 88 134.052734 88 L 125.085938 88 L 125.085938 112.607422 C 125.085938 113.644699 125.536697 114.422768 126.4375 114.941406 L 126.4375 115.269531 L 120.173828 115.269531 Z M 175.367188 112.238281 C 172.855896 112.238281 170.678467 111.713036 168.835938 110.662109 C 166.993408 109.611191 165.52742 108.403908 164.435547 107.039063 C 163.343674 105.674225 162.238312 104.049492 161.119141 102.166016 C 160.491333 101.10144 159.99939 100.344933 159.644531 99.894531 C 159.289673 99.444138 158.948654 99.21875 158.621094 99.21875 L 154.035156 99.21875 L 154.035156 107.529297 C 154.035156 108.539276 154.485931 109.276199 155.386719 109.740234 L 155.386719 110.068359 L 149.121094 110.068359 L 149.121094 109.740234 C 150.021881 109.221603 150.472656 108.457245 150.472656 107.447266 L 150.472656 84.027344 C 150.472656 83.017365 150.021881 82.253014 149.121094 81.734375 L 149.121094 81.40625 L 162.919922 81.40625 C 164.530441 81.40625 166.017975 81.802139 167.382813 82.59375 C 168.74765 83.385345 169.825592 84.46524 170.617188 85.830078 C 171.408798 87.194908 171.804688 88.682465 171.804688 90.292969 C 171.804688 91.87619 171.375473 93.355888 170.515625 94.734375 C 169.655777 96.112862 168.495529 97.204514 167.035156 98.009766 C 165.574783 98.815018 163.999039 99.21875 162.306641 99.21875 L 160.996094 99.21875 C 162.142563 99.846581 163.165604 100.583488 164.066406 101.429688 C 164.967194 102.275887 166.086288 103.449852 167.423828 104.951172 C 168.597595 106.31601 169.614777 107.399826 170.474609 108.205078 C 171.334473 109.01033 172.324203 109.686478 173.443359 110.232422 C 174.562531 110.778351 175.816849 111.050781 177.208984 111.050781 C 178.246277 111.050781 179.202667 110.833229 180.076172 110.396484 C 180.949677 109.959732 181.645416 109.440376 182.164063 108.839844 L 182.410156 109.003906 C 180.881546 111.160355 178.533615 112.238281 175.367188 112.238281 Z M 193.464844 110.068359 L 193.464844 109.740234 C 194.365631 109.248901 194.816406 108.580574 194.816406 107.734375 L 194.816406 83.740234 C 194.816406 82.894035 194.365631 82.225716 193.464844 81.734375 L 193.464844 81.40625 L 211.767578 81.40625 L 212.503906 83.863281 L 212.175781 83.863281 C 211.138519 82.826012 210.115448 82.308594 209.105469 82.308594 L 198.378906 82.308594 L 198.378906 92.298828 L 205.011719 92.298828 C 206.076279 92.298828 206.854355 91.834335 207.345703 90.90625 L 207.671875 90.90625 L 207.671875 94.550781 L 207.345703 94.550781 C 206.827072 93.649986 206.048981 93.199219 205.011719 93.199219 L 198.378906 93.199219 L 198.378906 109.167969 L 210.744141 109.167969 C 211.75412 109.167969 212.777176 108.648605 213.814453 107.611328 L 214.142578 107.611328 L 213.404297 110.068359 L 193.464844 110.068359 Z M 224.787109 110.068359 L 224.787109 109.740234 C 225.687897 109.221603 226.138672 108.457245 226.138672 107.447266 L 226.138672 84.027344 C 226.138672 83.017365 225.687897 82.253014 224.787109 81.734375 L 224.787109 81.40625 L 228.554688 81.40625 L 244.851563 95.205078 L 244.851563 84.027344 C 244.851563 83.017365 244.400787 82.253014 243.5 81.734375 L 243.5 81.40625 L 247.306641 81.40625 L 247.306641 81.734375 C 246.405853 82.225716 245.957031 82.990074 245.957031 84.027344 L 245.957031 107.447266 C 245.957031 108.484535 246.405853 109.248901 247.306641 109.740234 L 247.306641 110.068359 L 243.5 110.068359 L 243.5 109.740234 C 244.400787 109.221603 244.851563 108.457245 244.851563 107.447266 L 244.851563 100.324219 L 227.244141 85.337891 L 227.244141 107.447266 C 227.244141 108.457245 227.694916 109.221603 228.595703 109.740234 L 228.595703 110.068359 L 224.787109 110.068359 Z M 258.771484 110.068359 L 258.771484 109.740234 C 259.672272 109.221603 260.123047 108.457245 260.123047 107.447266 L 260.123047 84.027344 C 260.123047 83.017365 259.672272 82.253014 258.771484 81.734375 L 258.771484 81.40625 L 269.048828 81.40625 C 272.133331 81.40625 274.767456 82.049072 276.951172 83.332031 C 279.134949 84.614967 280.779236 86.347511 281.884766 88.53125 C 282.990265 90.714989 283.542969 93.11779 283.542969 95.738281 C 283.542969 98.331474 282.976563 100.712723 281.84375 102.882813 C 280.710938 105.052902 279.046997 106.785439 276.849609 108.082031 C 274.652222 109.378632 272.051483 110.041061 269.048828 110.068359 L 258.771484 110.068359 Z M 263.685547 109.167969 L 268.884766 109.167969 C 271.177704 109.167969 273.1297 108.568245 274.740234 107.367188 C 276.350739 106.166138 277.571747 104.541397 278.404297 102.494141 C 279.236877 100.446884 279.654297 98.194992 279.654297 95.738281 C 279.654297 93.28157 279.244659 91.035561 278.425781 89.001953 C 277.606842 86.968346 276.385895 85.351448 274.761719 84.150391 C 273.137604 82.949341 271.191406 82.335899 268.925781 82.308594 L 263.685547 82.308594 L 263.685547 109.167969 Z M 175.490234 104.746094 L 175.490234 104.417969 C 176.391022 103.899338 176.841797 103.134979 176.841797 102.125 L 176.841797 84.027344 C 176.841797 83.017365 176.391022 82.253014 175.490234 81.734375 L 175.490234 81.40625 L 181.671875 81.40625 L 181.671875 81.734375 C 180.771072 82.225716 180.322266 82.990074 180.322266 84.027344 L 180.322266 102.125 C 180.322266 103.16227 180.771072 103.926628 181.671875 104.417969 L 181.671875 104.746094 L 175.490234 104.746094 Z M 154.035156 98.277344 L 160.544922 98.277344 C 161.937057 98.222748 163.212936 97.832741 164.373047 97.109375 C 165.533157 96.386017 166.4543 95.423714 167.136719 94.222656 C 167.819138 93.021599 168.160156 91.712402 168.160156 90.292969 C 168.160156 88.791649 167.860291 87.439339 167.259766 86.238281 C 166.659225 85.037231 165.759659 84.088646 164.558594 83.392578 C 163.357529 82.696518 161.909195 82.349609 160.216797 82.349609 L 154.035156 82.349609 L 154.035156 98.277344 Z M 101.870972 81.407143 L 105.883568 81.407143 L 105.883568 81.734703 C 104.873589 82.171455 104.013756 82.935745 103.304047 84.027618 L 97.694588 92.99456 L 97.694588 107.44812 C 97.694588 108.48539 98.144981 109.249695 99.045769 109.741028 L 99.045769 110.068596 L 92.781204 110.068596 L 92.781204 109.741028 C 93.681992 109.222397 94.132385 108.458099 94.132385 107.44812 L 94.132385 93.854401 L 87.826859 84.027618 C 87.117149 82.908447 86.243668 82.144157 85.206383 81.734703 L 85.206383 81.407143 L 91.552849 81.407143 L 91.552849 81.734703 C 91.389069 81.843895 91.307182 82.075905 91.307182 82.430771 C 91.307182 82.894806 91.498253 83.427086 91.880409 84.027618 L 97.039467 92.257553 L 102.239479 83.986671 C 102.512444 83.549934 102.648918 83.167778 102.648918 82.840218 C 102.648918 82.403465 102.38961 82.034966 101.870972 81.734703 Z M 62.318172 81.038643 C 65.43 81.038643 68.098221 81.700577 70.322906 83.024475 C 72.547592 84.348366 74.21949 86.122627 75.338661 88.347305 C 76.457832 90.571999 77.017403 93.049133 77.017403 95.778816 C 77.017403 98.453896 76.444183 100.903748 75.297714 103.128426 C 74.151253 105.353119 72.465706 107.12738 70.24102 108.451263 C 68.016335 109.775162 65.375412 110.437096 62.318172 110.437096 C 59.206345 110.437096 56.538128 109.781982 54.313442 108.471741 C 52.088757 107.161499 50.416855 105.394058 49.297691 103.169373 C 48.17852 100.944687 47.618946 98.481194 47.618946 95.778816 C 47.618946 93.049133 48.17852 90.571999 49.297691 88.347305 C 50.416855 86.122627 52.088757 84.348366 54.313442 83.024475 C 56.538128 81.700577 59.206345 81.038643 62.318172 81.038643 Z M 62.318172 109.536308 C 64.611107 109.536308 66.569618 108.922142 68.193771 107.693787 C 69.817932 106.465431 71.046265 104.807182 71.878815 102.718979 C 72.711365 100.630775 73.12764 98.317413 73.12764 95.778816 C 73.12764 93.212921 72.711365 90.885902 71.878815 88.797699 C 71.046265 86.709496 69.817932 85.044418 68.193771 83.802414 C 66.569618 82.560425 64.611107 81.93943 62.318172 81.93943 C 60.025246 81.93943 58.066738 82.560425 56.442574 83.802414 C 54.81842 85.044418 53.590084 86.709496 52.757534 88.797699 C 51.924984 90.885902 51.508717 93.212921 51.508717 95.778816 C 51.508717 98.317413 51.924984 100.630775 52.757534 102.718979 C 53.590084 104.807182 54.81842 106.465431 56.442574 107.693787 C 58.066738 108.922142 60.025246 109.536308 62.318172 109.536308 Z M 6.837802 73.218163 L 23.666166 73.218163 C 25.085598 73.218163 26.395821 73.573021 27.596878 74.28273 C 28.797937 74.992447 29.746483 75.947823 30.442553 77.14888 C 31.138618 78.34993 31.486647 79.660156 31.486647 81.07959 C 31.486647 82.362534 31.200033 83.556755 30.626804 84.66227 C 30.053572 85.767784 29.255154 86.689034 28.231524 87.426041 C 27.207897 88.163063 26.081923 88.627098 24.853569 88.818176 C 29.057268 89.937347 32.19635 92.045982 34.270901 95.144165 C 36.345455 98.242348 37.382713 101.947823 37.382713 106.260719 C 37.382713 109.618217 36.53653 112.695877 34.844131 115.493797 C 33.15173 118.29171 30.783773 120.502716 27.740185 122.126877 C 24.696598 123.75103 21.236786 124.563095 17.360647 124.563095 C 13.675586 124.563095 10.522859 123.798798 7.90237 122.27018 C 5.281882 120.741562 3.309721 118.742104 1.985829 116.271751 C 0.661936 113.801392 -0 111.201416 -0 108.471741 C -0 106.451782 0.368501 104.513741 1.105513 102.657555 C 1.842525 100.801376 2.954851 99.184074 4.442524 97.805588 C 5.930197 96.427109 7.724932 95.423958 9.826782 94.796135 L 9.826782 75.879578 C 9.826782 75.306351 9.47193 74.808189 8.762214 74.385094 C 8.052498 73.96199 7.411034 73.682198 6.837802 73.545723 Z M 20.677187 87.958336 C 22.83363 87.958336 24.526003 87.398766 25.754356 86.279594 C 26.982712 85.160423 27.596878 83.427116 27.596878 81.07959 C 27.596878 79.796638 27.303444 78.629723 26.716562 77.578796 C 26.129683 76.52787 25.310793 75.695335 24.259869 75.081146 C 23.208942 74.466972 22.014729 74.159897 20.677187 74.159897 L 13.38899 74.159897 L 13.38899 87.958336 Z M 8.475599 114.94104 C 8.830457 114.77726 9.144364 114.497467 9.417333 114.101662 C 9.6903 113.705864 9.826782 113.221359 9.826782 112.648125 L 9.826782 97.375671 C 7.288184 98.249161 5.356967 99.716347 4.033075 101.777245 C 2.709183 103.83815 2.047246 106.165169 2.047246 108.758354 C 2.047246 111.215065 2.634118 113.589844 3.807878 115.882774 C 4.981638 118.175697 6.687659 120.038673 8.925994 121.471748 C 11.164328 122.904839 13.798424 123.621361 16.828363 123.621361 C 20.213161 123.621361 23.195286 122.850243 25.77483 121.307976 C 28.354372 119.765709 30.347004 117.670715 31.752789 115.022926 C 33.158569 112.375145 33.861454 109.454437 33.861454 106.260719 C 33.861454 103.12159 33.144924 100.221352 31.711843 97.559914 C 30.278765 94.898491 28.327074 92.789841 25.85672 91.233925 C 23.386362 89.678017 20.663553 88.90007 17.688208 88.90007 L 13.38899 88.90007 L 13.38899 94.141022 C 13.689255 94.113716 14.153293 94.100075 14.781118 94.100075 C 17.756464 94.100075 20.247255 94.72789 22.253565 95.983536 C 24.259878 97.239189 25.747528 98.84285 26.716562 100.794563 C 27.685598 102.746284 28.170107 104.759392 28.170107 106.833946 C 28.170107 107.980408 28.019978 109.065437 27.719713 110.089066 C 27.419451 111.112694 26.996355 111.993004 26.45042 112.730019 L 26.245695 112.648125 C 26.682444 111.419769 26.900814 110.068596 26.900814 108.594582 C 26.900814 106.574615 26.464073 104.650223 25.590578 102.821342 C 24.717083 100.992462 23.372736 99.497986 21.557503 98.337875 C 19.742268 97.177757 17.497145 96.59771 14.822062 96.59771 C 14.16694 96.59771 13.689255 96.611359 13.38899 96.638657 L 13.38899 112.648125 C 13.38899 113.221359 13.525473 113.705864 13.79844 114.101662 C 14.071407 114.497467 14.385315 114.77726 14.740173 114.94104 L 14.740173 115.2686 L 8.475599 115.2686 Z"/>
    </g>
</svg>
