<svg xmlns="http://www.w3.org/2000/svg" xmlns:xlink="http://www.w3.org/1999/xlink" width="288" height="196" viewbox="0 0 1024 768" xml:space="preserve">
  <defs>
<!--<style>
            svg path,
            svg text {
                fill: black;
                color-scheme: light;
            }

            @media (prefers-color-scheme:dark) {

                svg path,
                svg text {
                    fill: white;
                }
            }
        </style>-->
    <filter id="c" x="-50%" y="-50%" width="200%" height="200%">
      <fegaussianblur id="a" in="SourceGraphic" stddeviation="5"/>
    </filter>
    <radialgradient id="b" cx="510" cy="316.972" r="254" fx="510" fy="316.972" gradientunits="userSpaceOnUse">
      <stop offset="0" stop-color="#d2e3fb"/>
      <stop offset=".228" stop-color="#fceefa"/>
      <stop offset=".379" stop-color="#f0fcf3"/>
      <stop offset=".67" stop-color="#f0fcf3"/>
      <stop offset="1" stop-color="#fff"/>
    </radialgradient>
    <animate xlink:href="#a" attributename="stdDeviation" from="5" to="5" dur="4s" begin="0s" values="5; 30; 5" keytimes="0; 0.5; 1" calcmode="spline" keysplines=".73 .18 .24 .87; .73 .18 .24 .87;" repeatcount="indefinite" fill="freeze"/>
    <animate xlink:href="#b" attributename="opacity" from=".6" to=".1" dur="4s" begin="0s" values="0.6; 0.1; 0.6" keytimes="0; 0.5; 1" repeatcount="indefinite" fill="freeze"/>
    <animatetransform xlink:href="#d" attributename="transform" attributetype="XML" type="translate" from="0 0" to="0 0" values="0 0; 0 -20; 0 0" calcmode="spline" keysplines=".73 .18 .24 .87; .73 .18 .24 .87;" dur="4s" repeatcount="indefinite"/>
  </defs>
  <path d="M525.418 428.47c-.173 0-.37-.05-.592-.148-.493-.197-.74-.518-.74-.961.002-.206.053-.407.148-.59l2.465-5.545-5.545-10.52c-.098-.147-.123-.32-.123-.517s.05-.395.198-.592c.123-.172.295-.32.517-.418.148-.05.295-.1.492-.1.444 0 .79.246 1.035.69l4.51 8.969 3.967-8.944c.197-.468.517-.715.96-.715.204.006.403.047.59.123.494.198.764.518.764.961 0 .173-.047.37-.146.592l-7.54 16.951c-.196.518-.517.764-.96.764Zm-29.791-.322c-1.183 0-2.29-.222-3.3-.69a6.647 6.647 0 0 1-2.563-2.021.985.985 0 0 1-.272-.69c0-.345.173-.64.518-.886.222-.148.443-.223.69-.223.393 0 .738.173 1.009.518a4.042 4.042 0 0 0 1.676 1.332c.665.295 1.428.443 2.29.443.79 0 1.529-.174 2.194-.568a4.387 4.387 0 0 0 1.576-1.7c.395-.739.592-1.65.592-2.685v-1.207c-.517.911-1.182 1.626-2.02 2.119-.837.517-1.799.764-2.833.764-1.232 0-2.317-.272-3.278-.864-.96-.591-1.7-1.404-2.242-2.44-.542-1.034-.787-2.19-.787-3.52 0-1.331.27-2.515.861-3.55.567-1.034 1.38-1.822 2.414-2.413 1.035-.592 2.193-.887 3.524-.887 1.28 0 2.44.295 3.474.887a6.312 6.312 0 0 1 2.414 2.414c.592 1.034.887 2.218.887 3.548v5.32c0 1.307-.294 2.49-.861 3.55a6.531 6.531 0 0 1-2.44 2.537c-1.034.616-2.217.912-3.523.912Zm-156.768-2.37c-8.328-.009-11.694-.455-16.793-1.853-4.088-1.12-11.513-3.626-16.5-5.568-4.987-1.942-12.855-4.882-17.488-6.533-5.456-1.945-9.506-2.82-11.5-2.485a95.35 95.35 0 0 0-5.91 1.223c-1.974.49-3.3.233-4.379-.846-1.005-1.005-1.328-2.424-.92-4.049.346-1.376 2.215-3.483 4.154-4.681 3.526-2.18 3.525-2.179 3.25-37.832-.15-19.61-.646-36.407-1.101-37.327-.573-1.158-.181-2.316 1.27-3.767 2.025-2.025 2.885-2.087 25.718-1.828 23.625.268 23.625.267 25.676 3.015 1.658 2.222 1.863 3.275 1.068 5.5-.817 2.29-1.48 2.699-3.943 2.426-1.629-.18-9.599-.55-17.711-.822l-14.75-.494c0 17.144 0 17.142 3.75 17.135 2.063-.005 6.672-.482 10.242-1.061 6.18-1.003 6.58-.943 8.332 1.22 1.28 1.58 1.661 3.171 1.252 5.216-.323 1.618-1.049 3.5-1.613 4.18-.75.902-3.852 1.09-11.516.698l-10.488-.535.271 21.313.27 21.312 16.268 4.266a7382.43 7382.43 0 0 1 25.877 6.832c7.266 1.941 11.96 2.557 19.234 2.523 5.292-.024 11.274-.635 13.295-1.357 2.02-.722 5.589-2.839 7.928-4.705 2.338-1.867 4.9-3.55 5.693-3.74.793-.19 2.14.352 2.994 1.207 1.404 1.404 1.378 1.944-.285 5.63-1.012 2.244-3.621 5.69-5.799 7.657-2.178 1.967-6.04 4.534-8.582 5.705-4.012 1.847-6.736 2.16-20.623 2.369a417.17 417.17 0 0 1-6.64.057Zm172.801-3.081c-1.035-.025-1.97-.271-2.832-.764-.911-.468-1.626-1.208-2.119-2.145-.517-.936-.764-2.068-.764-3.423v-6.061c0-.345.098-.64.344-.887.246-.246.543-.37.912-.37.345 0 .64.124.887.37.246.247.369.542.369.887v6.06c0 1.331.346 2.342 1.06 3.032.715.69 1.65 1.01 2.858 1.01.665 0 1.306-.125 1.873-.42.567-.271 1.01-.64 1.33-1.133a2.74 2.74 0 0 0 .492-1.602v-6.947c0-.37.1-.666.346-.912a1.31 1.31 0 0 1 .912-.346c.37 0 .664.124.91.346.222.246.346.542.346.912v11.209c0 .345-.124.616-.346.838a1.117 1.117 0 0 1-.812.346h-5.766Zm-88.861-.043c-1.355 0-2.564-.272-3.623-.864-1.084-.591-1.92-1.404-2.512-2.44-.591-1.034-.889-2.19-.889-3.52 0-1.306.272-2.49.838-3.524a6.254 6.254 0 0 1 2.366-2.44c1.01-.59 2.168-.886 3.449-.886 1.256 0 2.34.296 3.277.838a5.726 5.726 0 0 1 2.12 2.34c.492 1.01.74 2.168.74 3.449 0 .32-.124.592-.32.789a1.183 1.183 0 0 1-.815.295h-9.362c.173 1.158.689 2.095 1.551 2.785.862.714 1.923 1.058 3.18 1.058a4.353 4.353 0 0 0 1.527-.271c.542-.172.985-.393 1.33-.664a1.29 1.29 0 0 1 .813-.272c.267-.001.527.085.74.247.296.246.443.542.443.837 0 .296-.148.542-.394.739-.567.443-1.256.813-2.094 1.084a7.06 7.06 0 0 1-2.365.42Zm39.142 0c-1.33 0-2.486-.272-3.521-.864a6.216 6.216 0 0 1-2.416-2.44c-.591-1.034-.861-2.19-.861-3.52 0-1.331.27-2.515.86-3.55.568-1.034 1.382-1.822 2.417-2.413 1.035-.592 2.19-.887 3.521-.887 1.282 0 2.44.295 3.475.887a6.312 6.312 0 0 1 2.414 2.414c.591 1.034.889 2.218.889 3.548s-.297 2.487-.864 3.522c-.59 1.035-1.379 1.848-2.414 2.44-1.034.59-2.194.863-3.5.863Zm104.694 0c-1.355 0-2.562-.272-3.621-.864-1.084-.591-1.923-1.404-2.514-2.44-.591-1.034-.887-2.19-.887-3.52 0-1.306.271-2.49.838-3.524a6.254 6.254 0 0 1 2.365-2.44c1.01-.59 2.168-.886 3.45-.886 1.256 0 2.34.296 3.277.838a5.726 5.726 0 0 1 2.12 2.34c.492 1.01.737 2.168.737 3.449 0 .32-.123.592-.32.789a1.178 1.178 0 0 1-.812.295h-9.364c.173 1.158.69 2.095 1.553 2.785.862.714 1.921 1.058 3.178 1.058a4.353 4.353 0 0 0 1.527-.271c.542-.172.985-.393 1.33-.664.222-.173.494-.272.815-.272a1.21 1.21 0 0 1 .738.247c.296.246.443.542.443.837 0 .296-.148.542-.394.739-.567.443-1.256.813-2.094 1.084a7.06 7.06 0 0 1-2.365.42Zm62.478 0c-1.33 0-2.488-.272-3.523-.864a6.211 6.211 0 0 1-2.414-2.44c-.592-1.034-.862-2.19-.862-3.52 0-1.331.27-2.515.862-3.55.566-1.034 1.38-1.822 2.414-2.413 1.035-.592 2.193-.887 3.523-.887 1.281 0 2.44.295 3.475.887a6.312 6.312 0 0 1 2.414 2.414c.591 1.034.887 2.218.887 3.548s-.295 2.487-.862 3.522c-.591 1.035-1.379 1.848-2.414 2.44-1.035.59-2.194.863-3.5.863Zm16.653 0c-1.33 0-2.489-.272-3.524-.864a6.211 6.211 0 0 1-2.414-2.44c-.591-1.034-.863-2.19-.863-3.52 0-1.331.272-2.515.863-3.55.567-1.034 1.38-1.822 2.414-2.413 1.035-.592 2.193-.887 3.524-.887 1.28 0 2.44.295 3.474.887a6.312 6.312 0 0 1 2.414 2.414c.592 1.034.887 2.218.887 3.548s-.297 2.487-.863 3.522c-.592 1.035-1.38 1.848-2.414 2.44-1.035.59-2.193.863-3.498.863Zm-34.004-.004c-1.257 0-2.415-.296-3.45-.887a6.57 6.57 0 0 1-2.462-2.465c-.592-1.035-.887-2.192-.887-3.498 0-1.256.296-2.44.838-3.475a6.418 6.418 0 0 1 2.265-2.462c.961-.592 2.02-.89 3.204-.89.92-.008 1.83.195 2.66.593a6.302 6.302 0 0 1 2.095 1.65v-6.652c0-.37.123-.664.37-.91a1.29 1.29 0 0 1 .886-.346c.394 0 .69.124.912.346.247.246.344.54.344.91v16.928c0 .32-.097.591-.344.837-.221.222-.493.32-.838.32h-5.593Zm-210.877-.073c-.37 0-.666-.099-.912-.345-.247-.247-.346-.54-.346-.91v-16.756c0-.37.1-.664.346-.91a1.31 1.31 0 0 1 .912-.346c.37 0 .665.124.912.346a1.3 1.3 0 0 1 .344.91v6.037c.517-.518 1.134-.912 1.873-1.207a5.97 5.97 0 0 1 2.316-.444c1.133 0 2.143.246 3.055.739.887.492 1.602 1.231 2.119 2.168.493.936.764 2.07.764 3.4v6.063c0 .37-.123.663-.37.91-.246.246-.543.345-.888.345-.37 0-.664-.099-.91-.345-.247-.247-.346-.54-.346-.91v-6.063c0-1.33-.37-2.316-1.084-3.006-.715-.69-1.651-1.033-2.834-1.033a4.37 4.37 0 0 0-1.897.418c-.566.296-1.01.665-1.33 1.133a2.833 2.833 0 0 0-.468 1.601v6.95c0 .37-.122.663-.344.91-.247.246-.543.345-.912.345Zm39.36 0c-.37 0-.667-.099-.913-.345-.246-.247-.344-.54-.344-.91v-16.756c0-.37.098-.664.344-.91a1.31 1.31 0 0 1 .912-.346c.37 0 .666.124.912.346a1.3 1.3 0 0 1 .344.91v6.037c.517-.518 1.134-.912 1.873-1.207a5.97 5.97 0 0 1 2.316-.444c1.134 0 2.144.246 3.055.739.887.492 1.602 1.231 2.12 2.168.492.936.763 2.07.763 3.4v6.063c0 .37-.123.663-.37.91-.246.246-.541.345-.886.345-.37 0-.666-.099-.912-.345-.246-.247-.346-.54-.346-.91v-6.063c0-1.33-.37-2.316-1.084-3.006-.714-.69-1.65-1.033-2.832-1.033a4.378 4.378 0 0 0-1.898.418c-.567.296-1.01.665-1.33 1.133a2.833 2.833 0 0 0-.469 1.601v6.95c0 .37-.122.663-.344.91-.246.246-.542.345-.912.345Zm104.523-.002c-.37 0-.664-.099-.91-.345-.247-.247-.346-.54-.346-.91v-11.188c0-.32.1-.591.345-.838.222-.221.493-.344.838-.344h5.666c.024.013.049.02.075.024a6.435 6.435 0 0 1 2.834.715c.886.493 1.6 1.232 2.117 2.168.493.936.765 2.07.765 3.4v6.063c0 .37-.124.663-.37.91-.247.246-.542.345-.887.345-.37 0-.666-.099-.913-.345-.246-.247-.343-.54-.343-.91v-6.063c0-1.306-.37-2.316-1.084-3.006-.715-.69-1.652-1.035-2.834-1.035a4.372 4.372 0 0 0-1.897.42c-.566.296-1.011.665-1.332 1.133a2.831 2.831 0 0 0-.467 1.601v6.95c0 .37-.124.663-.345.91-.247.246-.543.345-.912.345Zm-150.112-.023c-.813 0-1.551-.196-2.217-.615a4.216 4.216 0 0 1-1.552-1.725c-.395-.714-.567-1.528-.567-2.44v-11.75c0-.345.1-.64.346-.887.222-.222.517-.346.887-.346a1.29 1.29 0 0 1 .886.346c.222.246.346.542.346.887v3.547h2.094c.345 0 .616.1.838.297.197.197.32.466.32.787-.001.28-.117.548-.32.74-.222.197-.493.295-.838.295h-2.094v6.086c0 .665.172 1.207.541 1.65.345.444.788.666 1.33.666h.838c.286 0 .558.125.74.344a1.4 1.4 0 0 1 .32.889c.008.345-.148.673-.42.886-.27.247-.616.344-1.034.344h-.444Zm82.725 0c-.813 0-1.554-.196-2.219-.615a4.212 4.212 0 0 1-1.55-1.725c-.395-.714-.567-1.528-.567-2.44v-11.75c0-.345.097-.64.344-.887.221-.222.517-.346.886-.346a1.29 1.29 0 0 1 .887.346c.222.246.346.542.346.887v3.547h2.094c.345 0 .616.1.837.297.198.197.32.466.32.787 0 .28-.116.548-.32.74-.221.197-.492.295-.837.295h-2.094v6.086c0 .665.173 1.207.543 1.65.345.444.788.666 1.33.666h.838a.96.96 0 0 1 .738.344 1.4 1.4 0 0 1 .32.889c.008.345-.146.673-.418.886-.27.247-.616.344-1.035.344h-.443Zm97.555 0c-.345 0-.59-.098-.788-.295-.197-.197-.271-.442-.271-.738-.001-.336.12-.661.344-.912l3.82-4.782-4.066-4.802c-.247-.296-.37-.593-.37-.938 0-.27.075-.517.272-.715.197-.197.467-.295.812-.295.36-.007.703.145.936.418l4.041 4.83 3.623-4.83c.197-.27.516-.418.91-.418a1.05 1.05 0 0 1 .766.32 1 1 0 0 1 .295.74c0 .369-.124.69-.346.985l-3.72 4.854 3.917 4.682c.222.246.346.543.346.863a1.02 1.02 0 0 1-.32.738c-.197.197-.469.295-.79.295-.394 0-.689-.123-.886-.394l-3.918-4.68-3.72 4.68a1.145 1.145 0 0 1-.887.394Zm18.564 0c-.813 0-1.553-.196-2.219-.615a4.217 4.217 0 0 1-1.552-1.725c-.395-.714-.567-1.528-.567-2.44v-11.75c0-.345.1-.64.346-.887.222-.222.517-.346.887-.346a1.29 1.29 0 0 1 .886.346c.222.246.346.542.346.887v3.547h2.094c.345 0 .616.1.838.297.197.197.32.466.32.787-.001.28-.117.548-.32.74-.222.197-.493.295-.838.295h-2.094v6.086c0 .665.171 1.207.541 1.65.345.444.79.666 1.332.666h.836c.285 0 .557.125.74.344a1.4 1.4 0 0 1 .32.889c.008.345-.148.673-.42.886-.27.247-.614.344-1.033.344h-.443Zm64.041 0c-.394 0-.715-.098-.912-.295-.222-.197-.32-.517-.32-.935v-11.014c0-.394.098-.69.32-.912.197-.197.518-.32.912-.32.813 0 1.23.419 1.23 1.232v.467a5.35 5.35 0 0 1 1.825-1.354 5.58 5.58 0 0 1 2.316-.494c.862 0 1.552.148 2.045.395.493.27.738.592.738.986 0 .123-.023.197-.023.246-.148.542-.494.79-.986.79-.099 0-.222-.002-.37-.052-.665-.098-1.207-.172-1.601-.172-1.183 0-2.143.27-2.858.813-.739.542-1.086 1.282-1.086 2.193v7.196c0 .394-.12.713-.318.91-.197.222-.518.32-.912.32Zm-195.6-2.117c.838 0 1.577-.196 2.243-.59a4.112 4.112 0 0 0 1.552-1.627c.37-.69.567-1.502.567-2.389a5.11 5.11 0 0 0-.567-2.39 4.174 4.174 0 0 0-1.552-1.65c-.666-.395-1.405-.592-2.243-.592-.837 0-1.6.197-2.265.591a4.174 4.174 0 0 0-1.553 1.65c-.394.715-.566 1.504-.566 2.391s.172 1.7.566 2.39c.37.689.888 1.232 1.553 1.626.665.394 1.428.59 2.265.59Zm33.735 0c.837 0 1.577-.196 2.242-.59a4.112 4.112 0 0 0 1.553-1.627c.37-.69.566-1.502.566-2.389a5.11 5.11 0 0 0-.566-2.39 4.174 4.174 0 0 0-1.553-1.65c-.665-.395-1.405-.592-2.242-.592-.838 0-1.6.197-2.266.591a4.174 4.174 0 0 0-1.553 1.65c-.394.715-.566 1.504-.566 2.391s.172 1.7.566 2.39c.37.689.888 1.232 1.553 1.626.665.394 1.428.59 2.266.59Zm133.437 0c.838 0 1.577-.196 2.242-.59a4.112 4.112 0 0 0 1.553-1.627c.37-.69.567-1.502.567-2.389a5.11 5.11 0 0 0-.567-2.39 4.174 4.174 0 0 0-1.553-1.65c-.665-.395-1.404-.592-2.242-.592-.837 0-1.6.197-2.265.591a4.173 4.173 0 0 0-1.553 1.65c-.394.715-.566 1.504-.566 2.391s.172 1.7.566 2.39c.37.689.887 1.232 1.553 1.626.665.394 1.428.59 2.265.59Zm16.653 0c.837 0 1.577-.196 2.242-.59a4.112 4.112 0 0 0 1.553-1.627c.37-.69.566-1.502.566-2.389 0-.887-.197-1.676-.566-2.39a4.174 4.174 0 0 0-1.553-1.65c-.665-.395-1.405-.592-2.242-.592-.838 0-1.603.197-2.268.591a4.168 4.168 0 0 0-1.55 1.65c-.395.715-.57 1.504-.57 2.391s.175 1.7.57 2.39a4.104 4.104 0 0 0 1.55 1.626c.665.394 1.43.59 2.268.59Zm-34.004-.004c.837 0 1.577-.196 2.242-.59.665-.394 1.183-.961 1.553-1.676.394-.69.566-1.478.566-2.365 0-.862-.172-1.652-.566-2.342a4.174 4.174 0 0 0-1.553-1.65 4.31 4.31 0 0 0-2.242-.615c-.782 0-1.548.211-2.217.615-.665.394-1.182.96-1.576 1.65-.394.69-.592 1.48-.592 2.342 0 .887.198 1.675.592 2.365.394.715.91 1.282 1.576 1.676.665.394 1.404.59 2.217.59ZM333 418.837c.825.003.375-.38-1-.853s-6.1-1.851-10.5-3.063c-4.4-1.211-8.9-2.373-10-2.58-1.1-.207.475.557 3.5 1.695 3.025 1.139 7.975 2.684 11 3.434 3.025.75 6.175 1.365 7 1.367Zm391.8-4.082c-6.113-.012-9.544-.45-13.3-1.57-3.3-.984-11.175-4.159-17.5-7.055-10.896-4.99-11.868-5.248-18.5-4.947-6.392.29-7.084.126-7.959-1.867-.796-1.814-1.473-2.068-4-1.5-1.673.376-7.091.683-12.041.683-7.833 0-9.74-.361-14.703-2.799-3.33-1.635-7.595-4.906-10.25-7.859-4.547-5.058-4.547-5.056-4.547-1.648 0 1.874.487 3.895 1.084 4.492.597.596.934 2.137.75 3.424-.184 1.287-1.459 2.927-2.834 3.642-1.375.716-3.807 1.062-5.404.77-1.598-.293-3.48-1.01-4.182-1.592-.94-.78-1.128-3.352-.717-9.744.56-8.685.56-8.686-4.324-13.186-2.686-2.475-8.68-7.425-13.318-11-4.639-3.575-8.799-6.648-9.244-6.832-.446-.183-.811 6.984-.811 15.928 0 10.172.452 17.51 1.205 19.594 1.036 2.863.96 3.574-.537 5.07-1.563 1.563-4.513 1.752-28.953 1.846-24.05.092-27.68.316-31.215 1.926-2.674 1.217-6.34 1.817-11.055 1.808-5.393-.01-8.346-.605-12.545-2.527-3.02-1.383-7.186-4.003-9.257-5.822-2.072-1.82-5.805-6.161-8.293-9.649-3.415-4.785-5.118-6.342-6.938-6.342-2.239 0-2.412.373-2.412 5.18 0 2.848.543 6.678 1.205 8.51 1.036 2.863.959 3.574-.537 5.07-1.57 1.57-4.464 1.74-29.691 1.74-18.77 0-28.532-.363-29.715-1.109-1.576-.993-1.722-2.58-1.393-14.94.368-13.827.368-13.828-3-10.988-1.852 1.562-4.868 3.47-6.7 4.237-1.83.767-7.856 1.67-13.39 2.007-10.06.613-10.059.614-9.443 9.989.607 9.247.582 9.385-1.805 10.293-1.33.506-8.541.793-16.021.636-10.212-.213-13.911-.639-14.852-1.705-.689-.78-2.056-3.22-3.037-5.42-.98-2.2-3.144-6.137-4.807-8.75-1.662-2.612-3.362-4.75-3.777-4.75-.415 0-2.437 2.535-4.494 5.633s-4.196 7.036-4.754 8.75c-.558 1.715-1.913 3.905-3.012 4.867-1.099.963-3.199 1.75-4.666 1.75-1.466 0-3.691-.717-4.945-1.595-1.254-.878-2.141-2.341-1.973-3.25.17-.91 2.557-4.508 5.307-7.996 2.75-3.49 6.657-8.939 8.684-12.11 3.684-5.765 3.685-5.765-.909-12.656a640.558 640.558 0 0 0-9.183-13.342c-2.525-3.548-4.729-7.432-4.897-8.633-.235-1.68.432-2.44 2.899-3.3 1.762-.615 4.916-1.118 7.008-1.118 2.092 0 4.838.48 6.101 1.063 1.358.627 3.62 3.796 5.533 7.75 1.78 3.679 3.948 7.587 4.819 8.687 1.56 1.972 1.615 1.96 3.97-.96 1.314-1.63 3.035-4.33 3.825-6 .79-1.671 1.83-4.39 2.312-6.04.817-2.795 1.244-3.02 6.264-3.306 3.696-.211 5.838.143 6.826 1.13.792.792 1.284 2.098 1.094 2.9-.19.804-2.181 3.669-4.424 6.368-2.243 2.7-5.618 7.156-7.5 9.904-1.882 2.748-3.562 5.53-3.733 6.18-.17.651 1.545 4.118 3.809 7.703 2.265 3.586 6.372 9.58 9.127 13.32l5.008 6.801c-.634-53.465-.632-53.464 2.133-54.609 1.92-.796 7.107-.933 17-.45 7.829.384 15.947 1.14 18.04 1.682 2.094.542 5.581 2.589 7.749 4.547 3.94 3.56 3.94 3.56 3.318.448-.378-1.893-.133-3.7.625-4.614 1.026-1.236 4.487-1.504 19.559-1.504 10.071 0 19.483.445 20.912.989 1.765.67 3.15.643 4.318-.086 1.112-.695 7.902-.956 19.217-.739 16.984.327 17.632.418 22.158 3.079 2.565 1.507 5.693 4.406 6.951 6.44 1.47 2.379 2.438 5.8 2.711 9.571.307 4.244-.074 6.976-1.379 9.87-.992 2.2-3.18 5.16-4.861 6.574-1.681 1.414-4.338 3.018-5.904 3.564-2.847.993-2.848.992 1.486 5.447 2.383 2.45 6.062 5.84 8.174 7.53 2.694 2.156 5.23 3.202 8.5 3.504 3.19.294 6.08-.181 9.16-1.506 4.5-1.936 4.501-1.937-2.238-1.836-3.707.055-7.47-.36-8.364-.922-1.426-.898-1.625-3.99-1.625-25.397 0-19.947.257-24.52 1.413-25.166.776-.434 13.09-.83 27.363-.879 16.527-.056 26.824.303 28.353.987 1.675.748 2.72.756 3.45.025.576-.576 2.938-1.049 5.248-1.049 3.119 0 5.5.877 9.255 3.405 2.782 1.871 9.24 6.642 14.352 10.603 9.293 7.202 9.292 7.202 9.637 3.348.19-2.12.119-6.124-.157-8.897-.275-2.773-.07-5.81.456-6.75.695-1.243 2.272-1.709 5.785-1.709 3.117 0 5.278.544 6.1 1.534 1.02 1.23 1.026 2.273.027 5.302-.685 2.074-1.09 4.86-.9 6.188.33 2.315.475 2.251 3.495-1.553 1.734-2.183 5.559-5.412 8.5-7.174 3.445-2.063 7.725-3.58 12.024-4.258 4.519-.713 8.92-.734 13.63-.066 3.827.543 8.2 1.458 9.717 2.035 2.166.823 3.122.721 4.448-.478 1.394-1.263 5.114-1.53 21.36-1.53 18.337 0 19.807.136 21.671 2 1.1 1.1 2 3.297 2 4.88 0 1.582-.665 3.428-1.479 4.103-1.12.93-2.248.96-4.65.123-1.743-.608-7.376-1.106-12.52-1.106-9.35 0-9.351.001-9.351 4.934 0 3.981.368 5.05 1.914 5.54 1.053.335 3.19.327 4.75-.015s4.073-1.09 5.586-1.662c2.028-.767 3.145-.712 4.25.205.941.781 1.5 2.986 1.5 5.922 0 2.573-.495 5.171-1.1 5.776-.71.71-3.892.906-9 .556-7.9-.541-7.9-.541-7.9 12.133 0 11.188.205 12.74 1.75 13.242.963.313 7.375 2.858 14.25 5.656 11.654 4.744 13.197 5.117 22.803 5.516 8.002.332 11.28.057 14.672-1.238 2.442-.933 6.165-3.619 8.447-6.094 3.664-3.975 4.078-4.945 4.078-9.543 0-3.065-.702-6.32-1.75-8.117-.963-1.65-3.42-3.857-5.46-4.904-2.042-1.048-4.897-1.907-6.347-1.907-1.45 0-3.881.738-5.404 1.637-1.523.9-3.56 2.974-4.527 4.611-1.549 2.622-1.601 3.452-.446 6.953.936 2.834 1.012 4.455.266 5.64-.575.913-1.786 1.805-2.691 1.984-.906.178-2.958-.987-4.559-2.588-1.976-1.977-3.13-4.373-3.594-7.461-.532-3.548-.207-5.621 1.469-9.412 1.183-2.675 3.31-6.077 4.73-7.559 1.42-1.482 4.33-3.395 6.467-4.25 2.137-.855 5.93-1.555 8.43-1.555s6.777.96 9.504 2.133c2.727 1.173 6.094 3.485 7.482 5.135 1.389 1.65 3.403 4.721 4.477 6.826C766.439 376.822 767 379.951 767 385c0 5.104-.558 8.174-1.998 10.996-1.099 2.154-3.713 5.72-5.81 7.924-2.118 2.226-6.9 5.455-10.753 7.258-6.448 3.019-7.786 3.266-18.939 3.522-1.734.04-3.288.059-4.7.056Zm-306.708-.035h8.205c-.148-1.084-.567-1.971-1.233-2.637-.69-.64-1.552-.986-2.636-.986-1.208 0-2.193.346-2.932.986-.74.666-1.207 1.553-1.404 2.637Zm143.838 0h8.203c-.148-1.084-.565-1.971-1.23-2.637-.69-.64-1.553-.986-2.637-.986-1.208 0-2.193.346-2.932.986-.74.666-1.207 1.553-1.404 2.637Zm-281.051-12.719c1.08-.001 1.235-1.136.715-5.252-.366-2.887-.814-5.7-.996-6.25-.183-.55-.505 1.814-.715 5.252-.296 4.832-.07 6.252.996 6.25ZM683.072 394c.712 0 .858-1.932.438-5.75-.349-3.162-.778-6.425-.955-7.25-.178-.825-.376 1.763-.44 5.75-.073 4.564.283 7.25.957 7.25ZM372 391c.55 0 .993-2.137.984-4.75-.01-3.435-.283-4.335-.984-3.25-.533.825-.976 2.963-.984 4.75-.009 1.788.434 3.25.984 3.25Zm93 0c.55 0 .993-2.137.984-4.75-.01-3.435-.283-4.335-.984-3.25-.533.825-.976 2.963-.984 4.75-.009 1.788.434 3.25.984 3.25Zm71 0c.6 0 .95-3.5.875-8.75-.11-7.678-.223-8.198-.926-4.25-.44 2.475-.834 6.413-.875 8.75-.04 2.338.376 4.25.926 4.25Zm-182.193-.06c.989.047.909-.608-.33-2.69-.9-1.512-2.74-4.1-4.09-5.75-2.392-2.923-2.385-2.853.328 2.69 1.531 3.128 3.373 5.716 4.092 5.75Zm75.193-.645 10.75-.674c5.913-.37 12.212-1.147 14-1.724 3.25-1.05 3.25-1.052 3.25-22.174 0-14.563-.321-20.8-1.035-20.086-.658.658-5.767.864-14 .566C429 345.734 429 345.735 429 351.011s0 5.274 7.816 4.738c4.3-.294 8.574-.11 9.5.409 1.167.653 1.684 2.246 1.684 5.19 0 2.339-.513 4.766-1.14 5.394-.774.772-3.84.95-9.5.55l-8.36-.59v23.592Zm222.707-.969c1.611.017 3.418-.051 4.793-.195 2.2-.23 4.926-.759 6.057-1.176 1.13-.416 3.477-1.954 5.214-3.416 1.738-1.461 4.075-2.726 5.194-2.81 1.946-.147 2.035-.788 2.035-14.729 0-13.35-.152-14.586-1.81-14.71-.996-.076-4.176-1.606-7.067-3.403-3.937-2.447-6.724-3.375-11.102-3.691-4.79-.347-6.6.003-10.03 1.931-2.507 1.409-5.206 4.093-6.727 6.688-1.795 3.062-2.68 6.296-3.014 11.011-.26 3.672.056 8.628.701 11.014.757 2.797 2.716 5.882 5.514 8.68 3.04 3.04 5.344 4.444 7.687 4.685.69.072 1.588.112 2.555.121ZM544 389h10.852c5.968 0 12.268-.494 14-1.097 3.149-1.098 3.148-1.098 3.146-21.25l-.002-20.153C544 345.795 544 345.797 544 350.831c0 4.116.356 5.148 1.953 5.655 1.074.34 4.71.118 8.078-.493 4.636-.84 6.47-.823 7.547.07.815.677 1.422 2.968 1.422 5.36 0 2.298-.513 4.69-1.14 5.319-.774.772-3.84.95-9.5.55-8.36-.59-8.36-.59-8.36 10.559v11.148Zm-24-8c.55 0 .993-1.237.984-2.75-.008-1.512-.45-3.425-.984-4.25-.71-1.098-.973-.362-.984 2.75-.009 2.338.434 4.25.984 4.25Zm108.38-3.109a.063.063 0 0 0 .038-.022c.177-.202-.017-3.143-.43-6.535-.413-3.391-.394-8.116.043-10.5.437-2.383.63-4.498.43-4.7-.2-.203-.718.922-1.15 2.5-.433 1.577-.786 5.341-.786 8.366 0 3.025.353 6.792.786 8.37.405 1.478.868 2.558 1.07 2.521ZM344.616 376c.264 0-.948-2.138-2.695-4.75a7902.024 7902.024 0 0 1-5.799-8.682c-1.442-2.163-3.44-4.863-4.44-6-1-1.137-.625-.269.83 1.931 1.457 2.2 3.147 5.125 3.757 6.5.609 1.375 1.602 2.95 2.207 3.5.604.55 2.126 2.463 3.38 4.25 1.255 1.788 2.496 3.25 2.76 3.25Zm191.887-4.659c.142.066.275-1.67.52-4.842.296-3.85.158-9.475-.307-12.5-.465-3.025-.669-6.737-.453-8.25.215-1.512.019-2.75-.436-2.75s-.826 1.957-.826 4.346c0 2.39.334 9.252.742 15.25.406 5.964.589 8.666.76 8.746Zm146.842-1.205c.095-.005.252-1.462.572-4.469.342-3.207.454-7.595.248-9.75-.205-2.154-.837-3.918-1.404-3.918-.651 0-.798 1.71-.397 4.641.35 2.552.703 6.94.783 9.75.072 2.475.108 3.75.198 3.746Zm-261.992-.115c.097.02.253-1.438.564-4.354.342-3.207.454-7.595.248-9.75-.205-2.154-.836-3.918-1.4-3.918-.63 0-.787 1.451-.407 3.75.341 2.063.693 6.45.78 9.75.079 3 .117 4.5.215 4.522Zm192.478-.578c.038.002.066-.006.082-.022.257-.257-.416-1.085-1.496-1.842-1.08-.756-6.453-4.886-11.94-9.177-5.486-4.292-12.226-9.51-14.976-11.598-2.75-2.087-5.338-3.796-5.75-3.799-.412-.002-.75.393-.75.88 0 .485.865 1.109 1.924 1.386 1.058.277 5.887 3.59 10.73 7.365a1897.19 1897.19 0 0 1 15.297 12.059c3.348 2.678 6.31 4.715 6.88 4.748Zm-230.976-.985c.528-.003 1.154-.057 1.896-.123 2.612-.23 6.365-.847 8.338-1.369 1.973-.522 4.387-1.833 5.367-2.916.98-1.082 2.011-4 2.291-6.482.467-4.14.215-4.807-3.02-8.041-3.373-3.374-3.835-3.528-10.626-3.528-7.1 0-7.1 0-7.1 11.377 0 9.6 0 11.1 2.854 11.082Zm93 0c.528-.003 1.154-.057 1.896-.123 2.612-.23 6.365-.847 8.338-1.369 1.973-.522 4.387-1.833 5.367-2.916.98-1.082 2.011-4 2.291-6.482.467-4.14.215-4.807-3.02-8.041-3.373-3.374-3.835-3.528-10.626-3.528-7.1 0-7.1 0-7.1 11.377 0 9.6 0 11.1 2.854 11.082Zm-67.659-6.306c.037-.001.077-.023.12-.065.447-.448.663-2.789.48-5.201-.332-4.386-.33-4.385-.813.816-.24 2.593-.14 4.457.213 4.45Zm-78.556-8.153c.14 0-1.103-2.587-2.762-5.75-1.659-3.162-3.506-5.924-4.106-6.136-.61-.217-.84.265-.523 1.09.311.81 2.044 3.57 3.852 6.134 1.807 2.564 3.399 4.662 3.539 4.662Zm189.863-4.52c.133-.006.298-.17.498-.48.533-.825.976-2.737.984-4.25.009-1.512-.434-2.75-.984-2.75s-.993 1.913-.984 4.25c.008 2.237.145 3.248.486 3.23Zm-239-6.782c.058.044.118-.338.172-1.198.172-2.75.427-7.137.568-9.75.142-2.613-.08-4.75-.492-4.75-.413 0-.67 4.388-.57 9.75.068 3.687.194 5.85.322 5.948Zm91.404-15.74c-5.766-.017-6.953-.612-11.416-2.95-3.294-1.726-7.47-4.564-9.28-6.307-1.808-1.742-4.575-5.744-6.15-8.894-1.574-3.15-3.17-7.976-3.548-10.723-.687-4.993-.687-4.994-4.334-3.039-2.006 1.075-5.147 1.955-6.979 1.955-1.832 0-4.217-.473-5.299-1.052-1.413-.757-2.936-.701-5.414.195-2.918 1.055-3.98.992-6.914-.406-2.725-1.3-3.611-2.432-4.15-5.305-.477-2.541-.177-4.723.988-7.166.921-1.932 1.484-3.706 1.248-3.941-.235-.236-2.103 2.567-4.15 6.228-2.047 3.66-4.912 7.967-6.365 9.568-1.454 1.602-4.117 3.458-5.918 4.125-2.378.88-3.748.916-5 .131-.949-.594-1.843-1.934-1.989-2.978-.154-1.106 1.864-4.372 4.83-7.823 2.919-3.394 7.684-11.08 11.16-18 3.338-6.641 6.28-12.863 6.538-13.826.258-.962-.025-1.75-.63-1.75-.604 0-3.963 5.963-7.464 13.25-3.501 7.288-8.378 15.95-10.838 19.25-2.46 3.3-6.413 7.339-8.781 8.975-3.52 2.432-5.565 3.047-11.197 3.365-4.124.233-8.097-.112-9.897-.857-1.654-.685-3.925-2.532-5.045-4.104s-2.282-4.389-2.586-6.26c-.303-1.87-.016-5.028.64-7.017.657-1.989 2.1-4.1 3.208-4.693 2.004-1.073 2.004-1.089.045-3.243-1.083-1.19-2.475-3.148-3.094-4.35-.619-1.2-1.125-5.155-1.125-8.788 0-4.527.599-7.774 1.902-10.317 1.047-2.04 2.96-4.672 4.25-5.847 1.291-1.176 4.36-3.148 6.819-4.383 2.558-1.285 7.145-2.46 10.724-2.748 3.44-.276 9 .039 12.356.699 3.355.66 9.78 2.759 14.275 4.664 4.496 1.905 9.094 3.7 10.219 3.99 1.433.37 3.429-.69 6.676-3.549 2.547-2.242 6.226-4.742 8.174-5.556 1.947-.814 5.376-1.48 7.619-1.48 2.996 0 4.727.651 6.53 2.454 1.894 1.894 2.456 3.504 2.456 7.045 0 3.567-.559 5.15-2.506 7.098-1.378 1.378-4.416 3.374-6.75 4.434-2.686 1.219-6.499 1.933-10.387 1.947-4.878.017-6.28.376-6.804 1.744-.456 1.189.164 2.326 2.002 3.664 1.464 1.067 3.119 3.25 3.677 4.852 1.016 2.913 1.017 2.914 4.207-.178 1.755-1.701 4.655-3.512 6.444-4.026 1.811-.52 4.22-.564 5.435-.1 1.2.46 3 1.746 4 2.856 1 1.111 2.063 2.947 2.36 4.082.515 1.97.674 1.93 3.48-.877 1.618-1.617 4.27-3.725 5.893-4.683 2.95-1.743 2.949-1.744 2.949-18.373 0-15.479-.142-16.757-2.045-18.479-1.124-1.017-1.912-2.765-1.75-3.885.162-1.119 1.42-2.42 2.795-2.89 1.375-.47 10.636-.704 20.578-.52 17.185.318 18.25.454 21.59 2.744 1.932 1.326 4.596 3.994 5.922 5.928 1.952 2.85 2.41 4.78 2.41 10.168 0 5.727-.386 7.156-2.771 10.283-2.771 3.633-2.771 3.633 1.859 7.922 2.546 2.36 4.97 4.42 5.385 4.578.414.159 1.003-1.25 1.308-3.129.305-1.878 1.494-5.257 2.643-7.51 1.149-2.252 3.703-5.708 5.674-7.679 1.97-1.97 5.613-4.571 8.095-5.777 3.64-1.77 6.285-2.194 13.66-2.194 5.03 0 10.296.325 11.702.721 1.405.396 4.544 2.056 6.976 3.69 2.432 1.633 4.628 2.764 4.88 2.513.25-.25-.077-.99-.727-1.64-.651-.651-1.184-2.427-1.184-3.948 0-1.828.747-3.166 2.207-3.947 1.214-.65 3.501-1.145 5.082-1.1 1.848.053 2.7-.341 2.385-1.103-.27-.652-1.45-3.318-2.623-5.924-1.663-3.692-1.896-5.182-1.057-6.75.592-1.107 1.92-2.012 2.951-2.012 1.032 0 2.968 1.297 4.301 2.881 1.333 1.585 3.585 4.847 5.004 7.25 1.419 2.403 4.241 5.944 6.271 7.87 2.03 1.924 4.132 4.438 4.67 5.585.925 1.97 1.249 1.806 5.772-2.935 3.684-3.862 5.642-5.122 8.476-5.453 3.683-.43 3.686-.433 1.637-2.342-1.128-1.051-2.348-3.092-2.71-4.537-.487-1.936-.168-2.99 1.208-3.996 1.028-.752 2.556-1.051 3.397-.666.84.384 3.554.88 6.029 1.1 3.402.302 6.94-.497 14.5-3.272a1177.62 1177.62 0 0 1 20.5-7.26c10.28-3.514 10.836-3.59 26.5-3.656 14.886-.062 16.313.094 20.5 2.267 2.475 1.285 6.234 3.985 8.354 6 2.119 2.016 4.554 5.106 5.412 6.867 1.279 2.627 1.327 3.48.273 4.75-.707.852-2.124 1.547-3.152 1.547s-3.916-1.56-6.418-3.47c-2.502-1.91-6.445-3.99-8.76-4.621-2.597-.709-7.697-.926-13.316-.565-6.324.406-15.037 2.164-28.5 5.752-10.666 2.842-20.406 5.548-21.643 6.012-2.039.764-2.25 1.5-2.25 7.85 0 6.593.144 7.042 2.441 7.619 1.343.336 4.605.071 7.25-.59 2.645-.662 6.014-1.266 7.485-1.344 2.363-.125 2.61-.462 2.125-2.889-.307-1.532.002-3.412.697-4.25 1.016-1.223 4.257-1.504 17.467-1.504 15.052 0 16.537.168 20.627 2.328 2.857 1.51 5.436 3.987 7.33 7.045 1.952 3.152 3.055 6.443 3.328 9.922.321 4.102-.1 6.16-1.984 9.705-1.316 2.475-4.46 6.044-6.987 7.93-4.595 3.43-4.595 3.431-.437 8.406 2.287 2.737 6.158 6.256 8.603 7.82 2.445 1.565 5.468 2.844 6.717 2.844 1.249 0 3.974-.767 6.055-1.707 2.081-.939 4.147-2 4.592-2.36.444-.357-1.423-.435-4.149-.173s-6.183.067-7.683-.434c-2.728-.909-2.727-.908-2.852-25.66s-.125-24.752 2.375-25.42c1.375-.367 4.525-.636 7-.597 2.475.038 12.936.118 23.248.176 10.838.06 19.568.542 20.69 1.142 1.29.69 2.148.704 2.56.037.34-.551 2.678-1.004 5.193-1.004 3.916 0 5.039.496 7.817 3.442 1.784 1.892 6.688 8.796 10.896 15.345 4.209 6.55 8.328 12.765 9.153 13.811 1.347 1.71 1.473.275 1.255-14.098-.133-8.8.106-16.562.532-17.25.577-.932 5.652-1.237 19.965-1.205 13.472.031 20.319.446 22.974 1.393 2.08.742 5.34 2.41 7.246 3.707 1.906 1.296 4.777 4.173 6.38 6.394 1.601 2.222 3.683 6.689 4.624 9.926 1.176 4.045 1.56 7.974 1.233 12.56-.343 4.79-1.28 8.15-3.319 11.895-1.562 2.87-4.417 6.602-6.343 8.293-1.927 1.692-5.523 3.97-7.993 5.063-2.469 1.092-7.442 2.191-11.05 2.443-3.61.252-8.586.769-11.061 1.147-4.5.686-4.5.685 1.092 4.91 4.813 3.637 6.274 4.224 10.513 4.224 3.171 0 6.345-.774 8.91-2.175 2.192-1.198 5.177-2.368 6.635-2.6 2.04-.325 2.81.074 3.334 1.726.417 1.312.068 3.085-.894 4.553-.867 1.323-3.674 3.635-6.24 5.139-3.8 2.227-6.217 2.814-13.03 3.172-7.81.41-8.787.231-14.763-2.711-4.062-2-8.165-5.092-11.229-8.463-2.655-2.922-7.359-8.874-10.451-13.227-3.092-4.352-8.697-12.639-12.455-18.414-3.759-5.775-7.228-10.95-7.71-11.5-.502-.575-.746 6.217-.573 15.979.3 16.978.302 16.98-2.168 18.232-1.786.906-9.122 1.234-26.471 1.19-22.206-.057-24.446.1-29.975 2.107-5.75 2.087-6.217 2.11-12.365.592-3.616-.892-8.366-2.996-10.943-4.848-2.505-1.799-7.133-6.642-10.285-10.761-3.153-4.12-6.518-7.647-7.477-7.84-1.586-.32-1.698.47-1.226 8.732.395 6.928.197 9.35-.838 10.21-.747.618-3.518 1.28-6.157 1.468-2.639.188-5.908-.212-7.265-.889-2.469-1.23-2.47-1.23-2.117-20.701.352-19.47.352-19.47-2.5-19.73-1.57-.143-6.152-.518-10.186-.834l-7.334-.577c.547 50.671.547 50.67-1.861 51.871-1.325.661-4.604 1.046-7.287.854-2.684-.191-5.352-.822-5.932-1.402-.705-.705-.99-11.93-.857-33.854.197-32.798.197-32.799-3.536-27.299a5396.87 5396.87 0 0 1-8.045 11.815c-4.313 6.313-4.314 6.312-4.314 16.674 0 10.361 0 10.362 3.965 14.187 2.18 2.104 4.241 4.578 4.578 5.498.368 1.005-.217 2.502-1.465 3.75-1.773 1.773-3.432 2.101-11.328 2.246-5.087.094-11.275.058-13.75-.08-2.776-.154-5.24-.969-6.43-2.127-1.584-1.54-1.735-2.304-.843-4.262.597-1.31 2.965-3.873 5.263-5.693 4.178-3.309 4.178-3.309 3.844-13.908-.33-10.44-.392-10.683-4.166-16.1-3.664-5.258-3.795-5.346-3-2 .457 1.925.832 6.875.832 11 0 4.79-.642 9.163-1.775 12.1-.977 2.53-3.377 6.471-5.334 8.758-1.958 2.286-5.653 5.383-8.211 6.883-4.078 2.39-5.93 2.773-14.994 3.109-8.472.314-11.081.052-14.422-1.455-2.244-1.012-5.754-3.053-7.801-4.535-3.721-2.696-3.72-2.695-4.217 1.709-.273 2.422-1.763 6.99-3.31 10.154-1.548 3.163-4.874 7.81-7.39 10.326-2.514 2.515-7.267 5.895-10.56 7.512-5.536 2.718-6.967 2.965-18.996 3.264-3.23.08-5.662.138-7.584.132Zm4.9-8.98c2.92.013 7.322-.485 9.784-1.105 2.831-.713 6.273-2.74 9.365-5.521 2.689-2.417 5.928-6.523 7.2-9.123 1.822-3.729 2.313-6.42 2.324-12.729.01-6.752-.425-8.889-2.79-13.713-1.583-3.229-4.79-7.464-7.373-9.738-2.514-2.213-6.2-4.478-8.193-5.031-1.992-.554-5.536-1.009-7.873-1.012-2.337-.003-4.25.386-4.25.863 0 .478 1.688 1.098 3.75 1.377 2.063.28 5.357 1.182 7.322 2.006 1.965.825 5.257 2.977 7.315 4.783 2.058 1.807 4.838 5.449 6.177 8.092 2.007 3.96 2.436 6.288 2.436 13.205 0 6.983-.35 8.843-2.072 11.034-1.14 1.449-2.684 2.634-3.43 2.634s-2.061-.706-2.926-1.57c-1.108-1.108-1.572-3.5-1.572-8.115 0-4.923-.553-7.528-2.238-10.526-1.251-2.226-4.048-5.044-6.338-6.386-2.254-1.321-5.115-2.403-6.356-2.403-2.255 0-2.255.002-1.941 16.04.183 9.347-.094 16.685-.666 17.591-.614.973-2.86 1.69-6.002 1.914-2.762.197-6.133-.197-7.49-.875-2.469-1.232-2.468-1.23-2.178-15.699.29-14.469.29-14.47-1.738-12.125-1.115 1.29-2.527 4.203-3.139 6.475-.625 2.322-.823 6.328-.453 9.154.362 2.764 1.572 6.584 2.69 8.488 1.117 1.904 3.229 4.534 4.69 5.844 1.463 1.31 4.459 3.23 6.659 4.266 2.317 1.09 6.233 1.893 9.307 1.906ZM367.25 303c.413 0 .75-7.18.75-15.959 0-12.438.31-16.245 1.406-17.25 1.205-1.104 1.174-1.55-.215-3.105-1.363-1.528-1.626-4.661-1.656-19.746-.022-11.26-.407-17.933-1.035-17.936-.642-.003-.88 6.354-.666 17.746.199 10.59-.083 18.899-.7 20.596-.722 1.991-.707 3.366.052 4.58.634 1.016 1.131 7.814 1.199 16.404.063 8.068.452 14.67.865 14.67ZM523 303c.596 0 .994-3.74.984-9.25-.01-6.341-.32-8.778-.984-7.75-.533.825-.976 4.988-.984 9.25-.01 4.51.402 7.75.984 7.75Zm-32.521-8c5.657 0 5.657 0 3.59-2.904-1.138-1.597-2.069-3.847-2.069-5s-.45-2.096-1-2.096-1 .866-1 1.924c0 1.058-1.166 3.308-2.59 5-2.589 3.076-2.588 3.076 3.07 3.076Zm68.4-1.517a.097.097 0 0 0 .053-.032c.527-.537.76-7.247.537-15.45-.217-7.976-.552-16.75-.746-19.5-.194-2.75-.436 4.203-.537 15.45-.111 12.252.152 19.617.693 19.532ZM696.475 293c.186 0 .088-1.012-.217-2.25-.305-1.237-.613-2.339-.686-2.447-.073-.108-.996-.527-2.05-.932-1.752-.672-1.723-.46.347 2.448 1.247 1.75 2.42 3.181 2.606 3.181Zm13.074-.986c.053-.014.111-.261.174-.764l.404-3.25c-.625-5.037-.807-3.575-.807 0 0 2.57.094 4.05.229 4.014ZM632 291.091c15.887-.949 21.513-1.635 22.75-2.137 2.227-.902 2.25-1.117 2.25-20.683 0-19.772 0-19.77-3.25-20.037-1.787-.147-7.412-.516-12.5-.82-9.25-.555-9.25-.556-9.25 4.015 0 4.368.129 4.57 2.875 4.57 1.58 0 4.787.675 7.125 1.5s5.738 1.5 7.555 1.5c1.816 0 4.044.744 4.95 1.65.975.975 1.429 2.51 1.108 3.75-.298 1.156-1.51 2.888-2.69 3.85-1.37 1.118-3.853 1.75-6.874 1.75-2.602 0-6.828-.63-9.39-1.402-4.66-1.402-4.659-1.401-4.659 10.547v11.947ZM269.709 291c4.092 0 4.911-.456 9.822-5.486 2.947-3.018 6.929-8.306 8.85-11.75 1.92-3.444 5.07-10.01 6.996-14.59 3.503-8.326 3.502-8.325-.188-9.879-2.029-.854-7.638-1.783-12.464-2.064-7.09-.413-9.544-.165-12.768 1.289-2.255 1.017-4.906 3.282-6.096 5.207-1.638 2.65-1.99 4.438-1.584 8.05.355 3.15 1.236 5.22 2.735 6.434 1.29 1.045 3.854 1.79 6.164 1.79 2.175 0 4.763-.433 5.752-.962.988-.529 2.348-2.289 3.02-3.91.871-2.105.92-3.505.173-4.9-.575-1.075-2.429-2.528-4.121-3.229-1.692-.7-3.526-2.112-4.074-3.136-.673-1.258-.649-2.513.074-3.864.759-1.417 2.093-2 4.584-2 1.933 0 4.803.667 6.377 1.48 1.574.815 3.803 2.675 4.951 4.136 1.534 1.95 2.088 4.093 2.088 8.07 0 2.978-.66 6.689-1.465 8.246-.805 1.557-2.819 3.97-4.474 5.363-1.656 1.394-4.647 3.075-6.647 3.735-2.138.705-5.601.938-8.408.566-4.773-.633-4.774-.632-5.461 3.95-.453 3.02-.279 5.069.508 6.017.711.857 2.994 1.437 5.656 1.437ZM445 291c3.214 0 5.78-.715 8.102-2.257 1.868-1.242 4.41-4.262 5.648-6.711 1.794-3.552 2.242-6.084 2.207-12.493-.024-4.42-.673-9.803-1.441-11.96-.769-2.158-2.784-5.308-4.477-7-2.848-2.848-3.598-3.079-10.039-3.079-6.44 0-7.191.23-10.04 3.078-1.692 1.693-3.707 4.843-4.476 7-.768 2.158-1.417 7.54-1.441 11.961-.035 6.41.413 8.941 2.207 12.493 1.237 2.45 3.78 5.469 5.648 6.71C439.22 290.285 441.786 291 445 291Zm276.902-.841c.558-.011 1.194-.071 1.922-.141 3.204-.306 7.024-1.341 8.489-2.3 1.464-.96 3.635-3.652 4.824-5.981 1.664-3.261 2.173-6.081 2.213-12.256.04-6.369-.418-8.988-2.221-12.713-1.381-2.853-3.663-5.553-5.824-6.889-1.955-1.208-5.749-2.406-8.43-2.664-4.875-.468-4.875-.469-4.875 21.445 0 19.175 0 21.572 3.902 21.499ZM330.377 287c.758 0 1.938-.675 2.623-1.5.754-.908.835-1.5.205-1.5-.572 0-1.753.274-2.623.608-.87.334-1.582 1.009-1.582 1.5 0 .49.62.892 1.377.892Zm91.264-9c.198 0 .307-4.162.244-9.25-.092-7.384-.272-8.443-.893-5.25-.428 2.2-.537 6.363-.244 9.25.293 2.888.695 5.25.893 5.25ZM491 277c.561 0 1-2.77 1-6.308 0-5.46.48-7.109 3.572-12.25 3.573-5.941 3.573-5.942.451-2.942-1.716 1.65-3.795 3.151-4.62 3.334-.826.183-2.573-.369-3.882-1.226-2.379-1.56-2.379-1.559.038 2.668 1.84 3.22 2.42 5.713 2.43 10.474.006 3.492.452 6.25 1.011 6.25Zm-22.553-.683c.128-.004.327-1.049.64-2.926.476-2.843.475-7.058-.005-9.5-.73-3.713-.862-2.926-.855 5.11.003 5.1.034 7.32.22 7.316ZM681.748 271c.265 0-.244-1.125-1.133-2.5l-3.068-4.75a54.732 54.732 0 0 0-3.106-4.25c-1.322-1.6-1.297-1.401.123 1 .977 1.65 2.884 4.688 4.239 6.75 1.355 2.063 2.68 3.75 2.945 3.75Zm-111.664-1.218c.712-.01 1.588-.116 2.666-.247 3.162-.382 6.783-1.358 8.045-2.167 1.262-.81 2.724-2.603 3.25-3.985.525-1.382.955-4.051.955-5.932 0-2.346-.895-4.419-2.852-6.609-2.493-2.79-3.623-3.248-9-3.637-6.148-.445-6.148-.445-6.148 11.29 0 9.535 0 11.324 3.084 11.286Zm139.559-9.206c.094-.012.2-.206.32-.576.443-1.375.835-5.312.873-8.75.038-3.437-.359-6.25-.883-6.25-.537 0-.92 3.819-.875 8.75.042 4.625.227 6.872.565 6.826ZM378.62 249.58c.836-.006 1.863-.087 3.129-.187 3.712-.293 7.705-.915 8.873-1.383 1.355-.543 2.36-2.102 2.773-4.307.357-1.9.226-4.566-.29-5.923-.517-1.358-1.684-3.213-2.594-4.123-1.222-1.222-3.47-1.657-8.584-1.657-6.929 0-6.928 0-6.928 8.963 0 7.282 0 8.647 3.621 8.617Zm-50.03-.724c.362.017.993-.083 1.909-.297 1.65-.385 3.45-1.176 4-1.758.698-.739.094-.848-2-.36-1.65.386-3.45 1.178-4 1.76-.393.416-.373.632.092.655Zm193.827-3.41c.136-.016.323-.344.582-.946.473-1.1.891-2.787.93-3.75.038-.962-.38-1.75-.93-1.75s-.968 1.688-.93 3.75c.036 1.88.12 2.722.348 2.696Zm.064-9.004c.114-.008.25-.156.407-.442.455-.825 1.076-2.512 1.377-3.75.37-1.526.094-2.25-.86-2.25-.964 0-1.396 1.18-1.375 3.75.015 1.822.161 2.712.451 2.692Zm32.21-16.838c.14.013.578-.08 1.308-.27 1.375-.355 4.525-1.248 7-1.98 4.5-1.332 4.5-1.332.531-.756-2.182.317-5.332 1.207-7 1.978-1.475.683-2.073 1.006-1.84 1.028Z M390.32 409.568v8.205c0 .911.173 1.725.567 2.44.37.738.887 1.305 1.553 1.724.665.419 1.404.616 2.217.616h.443c.42 0 .764-.099 1.035-.345.271-.214.427-.542.42-.887 0-.345-.124-.64-.321-.887a.96.96 0 0 0-.74-.345h-.837c-.542 0-.986-.222-1.33-.665-.37-.444-.543-.986-.543-1.651v-6.086h2.095c.345 0 .616-.098.837-.295.204-.193.32-.46.32-.74 0-.32-.122-.591-.32-.788-.221-.197-.492-.296-.837-.296h-2.095v-3.548c0-.345-.123-.64-.344-.887a1.29 1.29 0 0 0-.887-.345c-.37 0-.666.124-.887.345-.247.247-.345.542-.345.887Zm19.065.123c-.912-.492-1.922-.739-3.056-.739-.837 0-1.601.148-2.316.444-.739.295-1.355.69-1.872 1.207v-6.036c0-.37-.123-.666-.345-.912a1.308 1.308 0 0 0-.912-.345c-.37 0-.665.123-.911.345-.247.246-.345.542-.345.912v16.754c0 .37.098.665.345.911.246.247.542.345.911.345.37 0 .666-.098.912-.345.222-.246.345-.542.345-.911v-6.948c0-.592.148-1.109.468-1.602.32-.468.764-.837 1.33-1.133a4.373 4.373 0 0 1 1.898-.419c1.182 0 2.119.345 2.833 1.035.715.69 1.084 1.675 1.084 3.006v6.06c0 .37.099.666.345.912.246.247.542.345.912.345.345 0 .64-.098.887-.345.246-.246.37-.542.37-.911v-6.061c0-1.33-.272-2.464-.765-3.4-.517-.937-1.231-1.676-2.118-2.169Zm18.858 6.704c.197-.197.32-.468.32-.788 0-1.281-.246-2.44-.739-3.45a5.727 5.727 0 0 0-2.119-2.34c-.936-.542-2.02-.838-3.276-.838-1.282 0-2.44.296-3.45.887a6.254 6.254 0 0 0-2.365 2.44c-.567 1.034-.838 2.217-.838 3.522 0 1.331.296 2.489.887 3.524.591 1.035 1.43 1.848 2.513 2.439 1.06.591 2.267.862 3.622.862.74 0 1.528-.123 2.365-.419.838-.27 1.528-.64 2.095-1.084.246-.197.394-.443.394-.739 0-.295-.148-.591-.444-.837a1.21 1.21 0 0 0-.739-.247c-.32 0-.591.099-.813.271-.345.271-.788.493-1.33.665a4.354 4.354 0 0 1-1.528.271c-1.256 0-2.316-.345-3.178-1.059-.863-.69-1.38-1.626-1.552-2.784h9.362c.32 0 .591-.099.813-.296Zm-8.746-4.312c.739-.64 1.724-.985 2.932-.985 1.084 0 1.946.345 2.636.985.665.666 1.084 1.553 1.232 2.637h-8.205c.197-1.084.665-1.971 1.405-2.637Zm29.247-2.392c-.911-.492-1.921-.739-3.055-.739-.837 0-1.601.148-2.316.444-.739.295-1.355.69-1.872 1.207v-6.036c0-.37-.123-.666-.345-.912a1.308 1.308 0 0 0-.912-.345c-.37 0-.665.123-.911.345-.247.246-.345.542-.345.912v16.754c0 .37.098.665.345.911.246.247.542.345.911.345.37 0 .665-.098.912-.345.222-.246.345-.542.345-.911v-6.948c0-.592.148-1.109.468-1.602.32-.468.764-.837 1.33-1.133a4.373 4.373 0 0 1 1.898-.419c1.182 0 2.118.345 2.833 1.035.714.69 1.084 1.675 1.084 3.006v6.06c0 .37.099.666.345.912.246.247.542.345.912.345.344 0 .64-.098.887-.345.246-.246.37-.542.37-.911v-6.061c0-1.33-.272-2.464-.765-3.4-.517-.937-1.232-1.676-2.119-2.169Zm16.672.175c-1.034-.591-2.192-.887-3.474-.887-1.33 0-2.488.296-3.523.887-1.035.591-1.848 1.38-2.414 2.415-.592 1.034-.863 2.217-.863 3.547 0 1.331.271 2.489.863 3.524a6.212 6.212 0 0 0 2.414 2.439c1.035.591 2.193.862 3.523.862 1.306 0 2.464-.27 3.499-.862 1.035-.591 1.823-1.404 2.415-2.44.566-1.034.862-2.192.862-3.523 0-1.33-.296-2.513-.887-3.547a6.315 6.315 0 0 0-2.415-2.415Zm-5.74 1.922c.665-.394 1.429-.592 2.266-.592.838 0 1.577.198 2.242.592.666.394 1.183.96 1.553 1.65.37.715.566 1.503.566 2.39 0 .887-.197 1.7-.566 2.39a4.108 4.108 0 0 1-1.553 1.627c-.665.394-1.404.59-2.242.59-.837 0-1.601-.196-2.266-.59a4.109 4.109 0 0 1-1.553-1.627c-.394-.69-.566-1.503-.566-2.39 0-.887.172-1.675.566-2.39a4.174 4.174 0 0 1 1.553-1.65Zm13.368-2.22v8.205c0 .911.172 1.725.567 2.44.37.738.887 1.305 1.552 1.724.665.419 1.404.616 2.217.616h.444c.419 0 .764-.099 1.035-.345.27-.214.426-.542.419-.887 0-.345-.124-.64-.32-.887a.96.96 0 0 0-.74-.345h-.838c-.542 0-.985-.222-1.33-.665-.37-.444-.542-.986-.542-1.651v-6.086h2.094c.345 0 .616-.098.838-.295.203-.193.319-.46.32-.74 0-.32-.123-.591-.32-.788-.222-.197-.493-.296-.838-.296h-2.094v-3.548c0-.345-.123-.64-.345-.887a1.29 1.29 0 0 0-.887-.345c-.37 0-.665.124-.887.345-.246.247-.345.542-.345.887Zm26.106.298c-1.034-.591-2.192-.887-3.474-.887-1.33 0-2.488.296-3.523.887-1.035.591-1.848 1.38-2.414 2.415-.592 1.034-.863 2.217-.863 3.547 0 1.331.247 2.489.789 3.524.542 1.035 1.28 1.848 2.242 2.439.96.591 2.045.862 3.277.862 1.035 0 1.995-.246 2.833-.763.838-.493 1.503-1.208 2.02-2.12v1.208c0 1.035-.197 1.946-.59 2.685a4.391 4.391 0 0 1-1.578 1.7c-.665.395-1.404.567-2.193.567-.862 0-1.626-.148-2.29-.443a4.038 4.038 0 0 1-1.676-1.33c-.271-.346-.616-.518-1.01-.518-.247 0-.469.074-.69.222-.345.246-.518.542-.518.887 0 .246.074.468.271.69a6.644 6.644 0 0 0 2.563 2.02c1.01.468 2.119.69 3.301.69 1.306 0 2.489-.296 3.523-.912a6.532 6.532 0 0 0 2.44-2.538c.566-1.06.862-2.242.862-3.548v-5.322c0-1.33-.296-2.513-.887-3.547a6.315 6.315 0 0 0-2.415-2.415Zm-1.231 9.979c-.666.394-1.405.59-2.243.59-.837 0-1.601-.196-2.266-.59a4.108 4.108 0 0 1-1.552-1.627c-.395-.69-.567-1.503-.567-2.39 0-.887.172-1.675.567-2.39.37-.69.886-1.256 1.552-1.65.665-.394 1.429-.592 2.266-.592.838 0 1.577.198 2.243.592.665.394 1.182.96 1.552 1.65.37.715.566 1.503.566 2.39 0 .887-.197 1.7-.566 2.39a4.108 4.108 0 0 1-1.552 1.627Zm20.665 1.447v-10.989c0-.37-.123-.665-.345-.911a1.308 1.308 0 0 0-.912-.345c-.37 0-.665.123-.911.345-.247.246-.345.542-.345.911v6.948c0 .616-.173 1.134-.493 1.602-.32.493-.764.862-1.33 1.133-.567.296-1.208.42-1.873.42-1.207 0-2.143-.321-2.858-1.011-.714-.69-1.06-1.7-1.06-3.03v-6.062c0-.345-.123-.64-.369-.887a1.21 1.21 0 0 0-.887-.37c-.37 0-.665.124-.912.37-.246.247-.344.542-.344.887v6.061c0 1.355.246 2.489.763 3.425.493.936 1.208 1.676 2.12 2.144.862.492 1.798.739 2.833.763h5.765c.32 0 .591-.123.813-.344.222-.222.345-.493.345-.838Zm15.481-11.128c0-.444-.27-.764-.764-.961a1.693 1.693 0 0 0-.591-.123c-.443 0-.764.246-.96.714l-3.968 8.944-4.509-8.968c-.246-.444-.59-.69-1.034-.69-.197 0-.345.049-.493.098a1.257 1.257 0 0 0-.517.419.947.947 0 0 0-.198.591c0 .197.025.37.124.518l5.543 10.52-2.464 5.544a1.312 1.312 0 0 0-.147.591c0 .444.246.764.739.961.221.099.419.148.591.148.444 0 .764-.246.96-.764l7.54-16.951a1.48 1.48 0 0 0 .148-.591Zm21.323 1.694c-.518-.937-1.232-1.676-2.12-2.169a6.432 6.432 0 0 0-2.833-.714.246.246 0 0 1-.074-.025h-5.666c-.345 0-.616.123-.838.345a1.116 1.116 0 0 0-.345.838v11.186c0 .37.098.665.345.911.246.247.542.345.911.345.37 0 .666-.098.912-.345.222-.246.345-.542.345-.911v-6.948c0-.592.148-1.109.468-1.602.32-.468.764-.838 1.33-1.133a4.374 4.374 0 0 1 1.898-.419c1.182 0 2.119.345 2.833 1.035.715.69 1.084 1.7 1.084 3.006v6.06c0 .37.099.666.345.912.247.247.542.345.912.345.345 0 .64-.098.887-.345.246-.246.37-.542.37-.911v-6.061c0-1.33-.272-2.464-.764-3.4Zm16.692 4.537c.197-.197.32-.468.32-.788 0-1.281-.246-2.44-.739-3.45a5.727 5.727 0 0 0-2.119-2.34c-.936-.542-2.02-.838-3.277-.838-1.28 0-2.439.296-3.449.887a6.254 6.254 0 0 0-2.365 2.44c-.567 1.034-.838 2.217-.838 3.522 0 1.331.296 2.489.887 3.524.591 1.035 1.43 1.848 2.513 2.439 1.06.591 2.267.862 3.622.862.74 0 1.528-.123 2.365-.419.838-.27 1.528-.64 2.095-1.084.246-.197.394-.443.394-.739 0-.295-.148-.591-.444-.837a1.21 1.21 0 0 0-.739-.247c-.32 0-.591.099-.813.271-.345.271-.788.493-1.33.665a4.355 4.355 0 0 1-1.528.271c-1.257 0-2.316-.345-3.178-1.059-.863-.69-1.38-1.626-1.553-2.784h9.363c.32 0 .591-.099.813-.296Zm-8.747-4.312c.74-.64 1.725-.985 2.932-.985 1.085 0 1.947.345 2.637.985.665.666 1.084 1.553 1.232 2.637h-8.205c.197-1.084.665-1.971 1.404-2.637Zm22.124 9.435c0-.32-.123-.616-.345-.862l-3.918-4.682 3.72-4.853a1.6 1.6 0 0 0 .346-.986 1.01 1.01 0 0 0-.296-.74 1.039 1.039 0 0 0-.764-.32c-.394 0-.714.148-.911.42l-3.622 4.828-4.041-4.829a1.197 1.197 0 0 0-.936-.418c-.345 0-.616.098-.813.295-.197.197-.271.444-.271.715 0 .345.123.64.37.936l4.065 4.804-3.82 4.78a1.365 1.365 0 0 0-.344.912c0 .296.074.542.27.74.198.196.444.295.79.295.344 0 .64-.123.886-.394l3.72-4.682 3.918 4.682c.197.27.493.394.887.394.32 0 .591-.099.788-.296.204-.192.32-.46.32-.74Zm3.706-11.95v8.205c0 .911.172 1.725.566 2.44.37.738.887 1.305 1.553 1.724.665.419 1.404.616 2.217.616h.444c.418 0 .763-.099 1.034-.345a1.1 1.1 0 0 0 .42-.887c0-.345-.124-.64-.321-.887a.96.96 0 0 0-.74-.345h-.837c-.542 0-.985-.222-1.33-.665-.37-.444-.542-.986-.542-1.651v-6.086h2.094c.345 0 .616-.098.838-.295.203-.193.319-.46.32-.74 0-.32-.123-.591-.32-.788-.222-.197-.493-.296-.838-.296h-2.094v-3.548c0-.345-.124-.64-.345-.887a1.29 1.29 0 0 0-.887-.345c-.37 0-.666.124-.887.345-.247.247-.345.542-.345.887Zm15.8 6.232c0 1.306.295 2.464.886 3.498a6.57 6.57 0 0 0 2.464 2.464c1.035.592 2.193.887 3.45.887h5.592c.345 0 .616-.098.838-.32.246-.246.345-.517.345-.838v-16.926c0-.37-.099-.666-.345-.912-.222-.222-.517-.345-.912-.345-.345 0-.64.123-.887.345-.246.246-.37.542-.37.912v6.652a6.298 6.298 0 0 0-2.094-1.65 6.003 6.003 0 0 0-2.66-.592c-1.183 0-2.243.296-3.203.887a6.424 6.424 0 0 0-2.267 2.464 7.46 7.46 0 0 0-.838 3.474Zm2.414 0c0-.863.197-1.651.591-2.34.394-.69.912-1.257 1.577-1.652a4.288 4.288 0 0 1 2.217-.616 4.31 4.31 0 0 1 2.242.616 4.178 4.178 0 0 1 1.553 1.651c.394.69.566 1.478.566 2.34 0 .888-.172 1.676-.566 2.366-.37.715-.887 1.281-1.553 1.675-.665.395-1.404.592-2.242.592a4.268 4.268 0 0 1-2.217-.592c-.665-.394-1.183-.96-1.577-1.675-.394-.69-.591-1.478-.591-2.365Zm25.211-5.934c-1.035-.591-2.193-.887-3.474-.887-1.33 0-2.489.296-3.523.887-1.035.591-1.848 1.38-2.415 2.415-.591 1.034-.862 2.217-.862 3.547 0 1.331.27 2.489.862 3.524a6.212 6.212 0 0 0 2.415 2.439c1.034.591 2.192.862 3.523.862 1.306 0 2.464-.27 3.499-.862 1.034-.591 1.823-1.404 2.414-2.44.567-1.034.862-2.192.862-3.523 0-1.33-.295-2.513-.886-3.547a6.315 6.315 0 0 0-2.415-2.415Zm-5.74 1.922c.664-.394 1.428-.592 2.266-.592.838 0 1.577.198 2.242.592.665.394 1.183.96 1.552 1.65.37.715.567 1.503.567 2.39 0 .887-.197 1.7-.567 2.39a4.108 4.108 0 0 1-1.552 1.627c-.665.394-1.404.59-2.242.59-.838 0-1.602-.196-2.267-.59a4.108 4.108 0 0 1-1.552-1.627c-.394-.69-.567-1.503-.567-2.39 0-.887.173-1.675.567-2.39a4.173 4.173 0 0 1 1.552-1.65Zm22.391-1.922c-1.034-.591-2.192-.887-3.474-.887-1.33 0-2.488.296-3.523.887-1.035.591-1.848 1.38-2.414 2.415-.592 1.034-.863 2.217-.863 3.547 0 1.331.271 2.489.863 3.524a6.212 6.212 0 0 0 2.414 2.439c1.035.591 2.193.862 3.523.862 1.306 0 2.464-.27 3.499-.862 1.035-.591 1.823-1.404 2.415-2.44.566-1.034.862-2.192.862-3.523 0-1.33-.296-2.513-.887-3.547a6.315 6.315 0 0 0-2.415-2.415Zm-5.74 1.922c.665-.394 1.429-.592 2.266-.592.838 0 1.577.198 2.243.592.665.394 1.182.96 1.552 1.65.37.715.566 1.503.566 2.39 0 .887-.197 1.7-.566 2.39a4.108 4.108 0 0 1-1.552 1.627c-.666.394-1.405.59-2.243.59-.837 0-1.601-.196-2.266-.59a4.108 4.108 0 0 1-1.553-1.627c-.394-.69-.566-1.503-.566-2.39 0-.887.172-1.675.566-2.39a4.173 4.173 0 0 1 1.553-1.65Zm21.458-2.466c-.493-.246-1.183-.394-2.045-.394-.838 0-1.602.172-2.316.492a5.35 5.35 0 0 0-1.824 1.356v-.469c0-.813-.418-1.231-1.231-1.231-.395 0-.715.123-.912.32-.222.222-.32.517-.32.911v11.014c0 .419.098.739.32.936.197.197.517.296.912.296.394 0 .714-.099.911-.32.197-.198.32-.518.32-.912v-7.195c0-.911.345-1.65 1.085-2.192.714-.542 1.675-.813 2.858-.813.394 0 .936.073 1.601.172.148.05.271.05.37.05.492 0 .837-.247.985-.79 0-.048.025-.122.025-.246 0-.394-.247-.714-.74-.985Z" transform="translate(3 5)" stroke="#000" stroke-width="2" filter="url(#c)" opacity=".6"/>
  <path fill="url(#b)" fill-rule="evenodd" d="M346.531 422.988c-6.438 0-12.448-.55-18.031-1.652-5.583-1.102-10.483-2.4-14.7-3.895-4.215-1.494-9.144-3.448-14.784-5.86-5.47-2.361-9.827-4.065-13.075-5.114-3.247-1.05-6.465-1.574-9.656-1.574-1.88 0-3.39.25-4.53.748a8.699 8.699 0 0 0-2.991 2.162l-.342-.157c.228-1.206.97-2.295 2.223-3.265 1.253-.97 2.734-1.613 4.443-1.928.57-.105 1.054-.444 1.453-1.021s.598-1.365.598-2.362v-70.18c0-2.045-.97-3.54-2.907-4.484l.086-.629h46.832l1.54 4.721h-.684c-.74-.734-1.681-1.403-2.82-2.006-1.14-.603-2.308-.906-3.504-.906h-31.108v24.863h18.287c2.165 0 3.762-.867 4.787-2.597h.684v7.002h-.684c-1.025-1.731-2.622-2.596-4.787-2.596h-18.287v50.195c4.045.472 8.303 1.286 12.776 2.44 4.472 1.153 9.985 2.727 16.537 4.72 8.546 2.623 15.624 4.59 21.236 5.9 5.612 1.312 10.953 1.967 16.023 1.967 7.293 0 13.133-1.165 17.52-3.5 4.387-2.334 7.55-4.945 9.486-7.83l.17.237c-.57 1.73-1.866 3.842-3.888 6.334-2.023 2.491-5.34 4.825-9.955 7.002-4.615 2.176-10.598 3.265-17.948 3.265Zm382.688-11.566c-5.242 0-9.957-.46-14.145-1.377-4.187-.918-7.733-2.005-10.638-3.264-2.906-1.259-6.211-2.886-9.915-4.879-3.589-1.94-6.55-3.369-8.886-4.287-2.336-.918-4.844-1.377-7.522-1.377-1.88 0-3.39.25-4.529.748a8.692 8.692 0 0 0-2.99 2.162l-.342-.156c.342-.944 1.054-1.783 2.137-2.517 1.082-.735 2.335-1.311 3.76-1.73.854-.21 1.537-.593 2.05-1.143.513-.551.77-1.376.77-2.477v-47.129c0-1.626-.94-2.91-2.82-3.853v-.631h38.199l1.539 4.72h-.684c-2.165-1.993-4.302-2.988-6.41-2.988h-22.39v19.195h13.845c2.222 0 3.846-.89 4.871-2.673h.684v7.002h-.684c-1.082-1.731-2.706-2.596-4.871-2.596h-13.846v32.65c3.362.63 6.354 1.443 8.975 2.44 2.62.996 5.781 2.359 9.484 4.09 3.476 1.626 6.468 2.924 8.975 3.894 2.507.97 5.468 1.784 8.887 2.44 3.418.655 7.293.982 11.623.982 4.558 0 8.944-1.008 13.16-3.027 4.216-2.02 7.635-4.736 10.256-8.145 2.62-3.41 3.931-7.054 3.931-10.935 0-3.777-.884-7.08-2.65-9.913-1.766-2.832-4.044-4.997-6.836-6.492-2.792-1.495-5.641-2.242-8.547-2.242-2.792 0-5.397.643-7.818 1.928-2.422 1.285-4.345 3.016-5.77 5.193-1.424 2.177-2.136 4.55-2.136 7.12 0 3.041.998 5.429 2.992 7.16l-.256.392c-1.197-.734-2.309-1.887-3.334-3.46-1.026-1.574-1.54-3.646-1.54-6.216 0-2.255.628-4.655 1.882-7.199 1.253-2.544 3.233-4.722 5.94-6.531 2.705-1.81 6.052-2.713 10.04-2.713 3.76 0 7.194.89 10.299 2.674 3.105 1.783 5.555 4.3 7.35 7.552 1.794 3.252 2.691 6.95 2.691 11.094 0 4.249-1.367 8.419-4.102 12.51-2.734 4.091-6.723 7.448-11.964 10.07-5.242 2.623-11.48 3.934-18.715 3.934Zm-215.785-12.666c-5.242 0-9.786-1.01-13.631-3.03-3.846-2.019-6.909-4.34-9.188-6.962-2.279-2.623-4.586-5.744-6.922-9.364-1.31-2.045-2.335-3.5-3.076-4.365-.74-.865-1.453-1.299-2.137-1.299h-9.57v15.971c0 1.94.94 3.358 2.82 4.25v.629h-13.076v-.629c1.88-.997 2.82-2.466 2.82-4.406v-45.004c0-1.94-.94-3.408-2.82-4.404v-.631h28.8c3.36 0 6.467.762 9.316 2.283 2.848 1.521 5.097 3.592 6.75 6.215 1.652 2.622 2.478 5.481 2.478 8.576 0 3.042-.897 5.886-2.691 8.535-1.795 2.649-4.216 4.748-7.264 6.295-3.048 1.547-6.339 2.32-9.871 2.32h-2.735c2.393 1.207 4.53 2.622 6.41 4.248 1.88 1.626 4.217 3.883 7.008 6.768 2.45 2.623 4.571 4.707 6.366 6.254 1.794 1.547 3.861 2.845 6.197 3.894 2.336 1.05 4.956 1.575 7.861 1.575 2.165 0 4.16-.42 5.983-1.26 1.823-.84 3.275-1.836 4.357-2.99l.514.316c-3.19 4.144-8.09 6.215-14.7 6.215Zm139.896-3.463c-6.495 0-12.064-1.258-16.707-3.775-4.643-2.518-8.147-5.915-10.512-10.19-2.364-4.275-3.547-9.008-3.547-14.201 0-5.245 1.183-10.005 3.547-14.28 2.365-4.274 5.869-7.682 10.512-10.226 4.643-2.544 10.212-3.816 16.707-3.816 3.475 0 7.278.538 11.408 1.613s7.08 2.136 8.846 3.186v5.9h-.684c-.455-.787-1.524-1.889-3.205-3.305-1.68-1.416-3.93-2.714-6.75-3.894-2.82-1.18-6.026-1.77-9.615-1.77-4.786 0-8.888 1.194-12.307 3.58-3.418 2.387-5.994 5.598-7.732 9.637-1.738 4.039-2.607 8.497-2.607 13.375s.87 9.31 2.607 13.297c1.738 3.986 4.314 7.172 7.732 9.558 3.419 2.387 7.521 3.58 12.307 3.58 3.475 0 6.594-.484 9.357-1.455 2.764-.97 5-2.138 6.71-3.502 1.709-1.363 2.906-2.7 3.59-4.011h.683v5.9c-1.652.997-4.657 2.047-9.016 3.149-4.358 1.101-8.133 1.65-11.324 1.65Zm-338.418-.707v-.55c2.051-.788 3.845-2.257 5.383-4.407l14.53-21.4-16.067-23.682c-.855-1.259-1.625-2.228-2.309-2.91-.683-.682-1.423-1.18-2.22-1.494v-.631h13.501v.63c-.57.42-.853.997-.853 1.731 0 .787.342 1.677 1.025 2.674l11.537 16.994 11.622-17.072c.455-.682.683-1.363.683-2.045 0-.84-.455-1.6-1.367-2.281v-.631h8.291v.63c-2.051.682-3.847 2.124-5.385 4.327l-12.734 18.724 17.861 26.358c.912 1.311 1.697 2.293 2.352 2.949a6.378 6.378 0 0 0 2.177 1.457v.629h-13.502v-.629c.57-.42.856-.998.856-1.732 0-.787-.344-1.678-1.027-2.674l-13.33-19.59-13.418 19.668c-.57.84-.854 1.6-.854 2.281 0 .944.398 1.627 1.195 2.047v.629h-7.947Zm50.592 0v-.629c1.88-.944 2.82-2.413 2.82-4.406v-45.004c0-1.993-.94-3.46-2.82-4.404v-.631h28.885c3.361 0 6.465.762 9.314 2.283s5.1 3.592 6.752 6.215c1.652 2.622 2.479 5.481 2.479 8.576 0 3.095-.812 5.939-2.436 8.535-1.624 2.596-3.831 4.67-6.623 6.217-2.792 1.547-5.811 2.32-9.059 2.32H375.76v16.049c0 1.049.284 1.929.853 2.637.57.708 1.224 1.246 1.965 1.613v.629h-13.074Zm49.139 0v-.629c1.88-.944 2.82-2.23 2.82-3.855v-46.106c0-1.626-.94-2.91-2.82-3.853v-.631h38.2l1.538 4.72h-.684c-2.165-1.993-4.3-2.988-6.408-2.988H424.9v19.195h13.843c2.222 0 3.846-.89 4.871-2.673h.684v7.002h-.684c-1.082-1.731-2.706-2.596-4.87-2.596h-13.845v30.683h25.809c2.108 0 4.243-.997 6.408-2.99h.684l-1.537 4.72h-41.62Zm115.199 0v-.629c1.88-.944 2.82-2.23 2.82-3.855v-46.106c0-1.626-.94-2.91-2.82-3.853v-.631h38.201l1.537 4.72h-.684c-2.164-1.993-4.302-2.988-6.41-2.988h-22.388v19.195h13.843c2.222 0 3.846-.89 4.871-2.673h.684v7.002h-.683c-1.083-1.731-2.707-2.596-4.872-2.596h-13.843v30.683h25.808c2.108 0 4.244-.997 6.408-2.99h.684l-1.537 4.72h-41.62Zm44.012 0v-.629c1.88-.997 2.82-2.466 2.82-4.406v-45.004c0-1.94-.94-3.408-2.82-4.404v-.631h7.86l34.015 26.513v-21.478c0-1.94-.94-3.408-2.82-4.404v-.631h7.946v.63c-1.88.945-2.82 2.412-2.82 4.405v45.004c0 1.993.94 3.462 2.82 4.406v.629h-7.947v-.629c1.88-.997 2.82-2.466 2.82-4.406v-13.69l-36.748-28.797v42.487c0 1.94.94 3.41 2.82 4.406v.629h-7.946Zm-60.165-10.229v-.628c1.88-.997 2.82-2.466 2.82-4.407v-34.775c0-1.94-.94-3.408-2.82-4.404v-.631h12.905v.63c-1.88.945-2.82 2.412-2.82 4.405v34.775c0 1.993.94 3.462 2.82 4.407v.628h-12.905Zm-137.93-12.43h13.673c2.905-.104 5.569-.866 7.99-2.282 2.421-1.417 4.345-3.264 5.77-5.545 1.424-2.282 2.136-4.787 2.136-7.514 0-2.885-.642-5.481-1.924-7.79-1.282-2.307-3.175-4.143-5.681-5.507-2.507-1.364-5.527-2.045-9.059-2.045H375.76v30.684Zm93.151 0h13.588c2.906-.104 5.569-.852 7.99-2.241 2.422-1.39 4.344-3.24 5.768-5.547 1.424-2.308 2.137-4.826 2.137-7.553 0-2.885-.626-5.481-1.88-7.79-1.253-2.307-3.133-4.13-5.64-5.468-2.507-1.337-5.526-2.006-9.059-2.006H468.91v30.606Zm-90.646-47.835c-7.081 0-13.14-1.47-18.176-4.406-5.035-2.938-8.823-6.779-11.367-11.526-2.544-4.747-3.817-9.743-3.817-14.988 0-3.882.71-7.605 2.125-11.172 1.416-3.567 3.554-6.673 6.412-9.322 2.859-2.649 6.307-4.577 10.346-5.783v-36.35c0-1.102-.683-2.058-2.047-2.871-1.364-.813-2.596-1.351-3.697-1.613v-.63h32.336c2.727 0 5.245.682 7.553 2.046a15.087 15.087 0 0 1 5.468 5.507c1.338 2.308 2.006 4.826 2.006 7.553 0 2.465-.55 4.76-1.652 6.885a14.934 14.934 0 0 1-4.602 5.31 14.889 14.889 0 0 1-6.492 2.676c8.078 2.15 14.11 6.201 18.096 12.155 3.986 5.953 5.98 13.074 5.98 21.36 0 6.452-1.627 12.365-4.879 17.741-3.252 5.376-7.802 9.625-13.65 12.746-5.848 3.121-12.495 4.682-19.943 4.682Zm-1.024-1.809c6.504 0 12.235-1.482 17.192-4.445 4.956-2.964 8.785-6.99 11.486-12.078 2.701-5.088 4.05-10.7 4.05-16.836 0-6.032-1.374-11.605-4.128-16.719-2.754-5.114-6.505-9.166-11.252-12.156-4.747-2.99-9.978-4.485-15.695-4.485h-8.262v10.07c.577-.052 1.47-.077 2.676-.077 5.717 0 10.502 1.206 14.357 3.619 3.855 2.413 6.714 5.494 8.576 9.244s2.793 7.62 2.793 11.605c0 2.203-.288 4.287-.865 6.254-.577 1.967-1.39 3.658-2.44 5.075l-.392-.157c.84-2.36 1.258-4.956 1.258-7.789 0-3.881-.84-7.58-2.518-11.094-1.678-3.514-4.26-6.386-7.748-8.615-3.488-2.229-7.803-3.344-12.943-3.344-1.26 0-2.177.026-2.754.079v30.763c0 1.102.262 2.033.787 2.793.524.76 1.129 1.299 1.81 1.614v.628H361.19v-.628c.682-.315 1.286-.853 1.811-1.614.525-.76.787-1.691.787-2.793v-29.345c-4.878 1.678-8.589 4.497-11.133 8.457-2.544 3.96-3.816 8.43-3.816 13.414 0 4.72 1.127 9.283 3.383 13.69 2.255 4.405 5.535 7.986 9.836 10.74 4.3 2.753 9.361 4.13 15.183 4.13Zm346.334-5.822c-3.776 0-7.252-.67-10.426-2.008-3.173-1.337-6.267-3.475-9.283-6.412-3.016-2.937-6.28-6.87-9.795-11.8-7.92-11.225-18.096-26.776-30.527-46.655v41.62c0 1.94.867 3.409 2.598 4.405v.63h-7.319v-.63c1.731-.996 2.598-2.465 2.598-4.406v-45.002c0-1.94-.867-3.41-2.598-4.406v-.629h7.87l29.896 45.71v-40.675c0-1.94-.867-3.41-2.598-4.406v-.629h7.319v.629c-1.731.944-2.598 2.413-2.598 4.406v44.059c2.885 4.93 5.613 9.085 8.184 12.468 2.57 3.384 5.52 6.191 8.851 8.42 3.33 2.23 7.04 3.344 11.131 3.344 2.623 0 5.035-.446 7.238-1.338 2.203-.891 4.027-1.914 5.469-3.068 1.442-1.154 2.504-2.151 3.186-2.99l.394.314c-1.573 2.15-3.894 4.196-6.963 6.137-3.068 1.94-7.277 2.912-12.627 2.912Zm-206.761-10.229v-.628c1.73-.945 2.595-2.44 2.595-4.485V233.3c0-1.626-.655-2.728-1.967-3.305-1.573-.42-2.923-1.1-4.05-2.045-1.128-.944-1.798-2.02-2.008-3.226l.314-.157c.787.944 1.705 1.666 2.754 2.164 1.05.499 2.44.747 4.17.747 2.937 0 5.862-.472 8.774-1.416 2.91-.945 6.961-2.49 12.154-4.641 5.14-2.203 9.652-4 13.533-5.39 3.881-1.39 8.406-2.584 13.572-3.58 5.167-.997 10.712-1.495 16.639-1.495 6.766 0 12.275 1.089 16.523 3.266 4.249 2.176 7.302 4.51 9.164 7.002 1.862 2.491 3.056 4.603 3.58 6.334l-.156.236c-1.783-2.885-4.695-5.496-8.734-7.83-4.039-2.334-9.413-3.5-16.127-3.5-4.668 0-9.613.59-14.832 1.77-5.219 1.18-11.736 2.95-19.55 5.31-6.19 1.836-11.291 3.266-15.304 4.289-4.012 1.023-7.88 1.743-11.603 2.162v22.03h17.228c1.994 0 3.463-.865 4.407-2.596h.63v7.002h-.63c-.944-1.731-2.413-2.596-4.407-2.596h-17.228v47.285c0 1.993.865 3.488 2.596 4.485v.628h-12.038Zm86.386-5.822c-4.825 0-9.008-1.01-12.549-3.03-3.54-2.019-6.36-4.34-8.459-6.962-2.098-2.623-4.22-5.742-6.37-9.361-1.207-2.046-2.153-3.502-2.835-4.368-.682-.865-1.337-1.298-1.966-1.298h-8.811v15.972c0 1.941.865 3.357 2.596 4.248v.63h-12.037v-.63c1.73-.996 2.595-2.465 2.595-4.406v-45.002c0-1.94-.865-3.41-2.595-4.406v-.629h26.513c3.095 0 5.954.76 8.576 2.281a16.822 16.822 0 0 1 6.215 6.215c1.521 2.623 2.282 5.482 2.282 8.576 0 3.042-.827 5.887-2.479 8.535-1.652 2.65-3.881 4.748-6.688 6.295-2.806 1.548-5.833 2.32-9.085 2.32h-2.518a28.704 28.704 0 0 1 5.9 4.25c1.731 1.627 3.881 3.881 6.452 6.766 2.255 2.623 4.209 4.707 5.86 6.254 1.653 1.547 3.553 2.846 5.704 3.895 2.15 1.049 4.563 1.574 7.238 1.574 1.993 0 3.83-.42 5.508-1.26 1.678-.84 3.017-1.834 4.014-2.988l.47.314c-2.937 4.144-7.446 6.215-13.53 6.215Zm-113.855-1.984c-1.269.001-2.522 0-3.686-.004-4.655-.017-8.569-.045-8.695-.063a.864.864 0 0 1-.39-.175c-.114-.102-.163-.283-.163-.616 0-.306.073-.614.207-.88.158-.314.396-.54 1.002-.961a21.089 21.089 0 0 0 1.518-1.184 17.39 17.39 0 0 1 1.46-1.125c.405-.27 1.026-.75 1.382-1.066a46.435 46.435 0 0 1 1.828-1.493c.649-.505 1.495-1.165 1.88-1.468.386-.303.853-.754 1.04-1a3.88 3.88 0 0 0 .503-.965c.144-.449.17-.94.192-3.754.014-1.78.037-6.349.05-10.152.025-6.867.025-6.922-.177-7.75-.163-.667-.317-1.016-.77-1.74-.311-.499-.703-1.052-.87-1.23-.168-.176-.452-.578-.63-.894a7.733 7.733 0 0 0-.609-.92c-.156-.189-.479-.62-.717-.957-.238-.337-.826-1.16-1.306-1.828-.481-.668-.943-1.341-1.028-1.498-.084-.156-.452-.65-.814-1.096a17.105 17.105 0 0 1-1.04-1.421c-.208-.338-.519-.8-.69-1.028a16.9 16.9 0 0 1-.635-.918 7.167 7.167 0 0 0-.618-.826c-.163-.177-.747-1.004-1.298-1.838-.552-.833-1.281-1.849-1.622-2.256a13.907 13.907 0 0 1-1.005-1.377c-.213-.35-.546-.845-.739-1.097a31.801 31.801 0 0 1-.746-1.03 149.304 149.304 0 0 0-2.299-3.268c-.41-.565-.801-1.162-.87-1.327-.07-.166-.15-.48-.18-.698-.041-.297-.019-.43.095-.544.084-.084.306-.199.494-.256.188-.058 1.233-.127 2.32-.155 1.213-.03 2.297-.011 2.802.051.574.071.992.186 1.38.377.307.151.806.517 1.11.815.303.297.709.722.902.945.193.223.606.758.918 1.187.312.43.775 1.093 1.03 1.475.254.382.937 1.305 1.519 2.053.582.747 1.192 1.584 1.355 1.861.164.277.457.682.649.9.192.219.47.619.615.89.146.27.44.717.652.995.213.278.584.836.827 1.24.242.405.568.892.724 1.086.157.194.545.657.863 1.028.319.37.692.873.829 1.12.137.248.58.903.984 1.454.404.551.852 1.137.998 1.303.146.165.37.327.498.359.13.033.455-.012.738-.102.341-.107.66-.299.967-.585.252-.236.64-.682.863-.995.224-.312.568-.858.764-1.214.196-.356.563-.887.815-1.178.251-.292.6-.76.777-1.037a10.2 10.2 0 0 1 .668-.918c.19-.227.498-.619.683-.871.186-.253.474-.688.643-.965.169-.278.546-.773.838-1.102.291-.328.684-.867.873-1.195.189-.328.476-.741.639-.918.162-.177.57-.714.906-1.193.336-.48.85-1.188 1.142-1.573.292-.384.924-1.226 1.405-1.869a76.606 76.606 0 0 0 1.357-1.87c.266-.387.64-.869.834-1.071.27-.283.564-.449 1.266-.715.502-.19 1.179-.393 1.504-.45.37-.063 1.09-.079 1.931-.042.738.032 1.684.084 2.102.115l.76.057c0 2.72 0 2.72-.252 2.75-.169.019-.314.129-.438.332-.102.166-.317.497-.478.734-.161.237-.493.756-.737 1.152a17.557 17.557 0 0 1-1.011 1.436c-.313.393-.732.979-.93 1.3-.198.323-.558.873-.799 1.223-.241.35-.696.95-1.01 1.332a26.38 26.38 0 0 0-1.101 1.463c-.292.424-.74 1.127-.996 1.563a9.42 9.42 0 0 1-.98 1.345 9.422 9.422 0 0 0-.936 1.249 18.07 18.07 0 0 1-1.032 1.464 77.788 77.788 0 0 0-1.285 1.692c-.371.505-.95 1.333-1.283 1.838-.334.505-.769 1.104-.967 1.332-.198.227-.646.818-.998 1.314a49.291 49.291 0 0 0-1.015 1.486 8.898 8.898 0 0 1-.692.936c-.173.192-.511.649-.752 1.014-.24.365-.515.863-.611 1.107a4.67 4.67 0 0 0-.233.852c-.031.224-.017 2.578.034 5.23.05 2.652.117 7.467.148 10.7.031 3.273.095 6.029.145 6.22.049.189.287.602.529.918.28.366.744.792 1.273 1.172.458.328 1.112.804 1.455 1.057.344.252.946.736 1.338 1.076.392.339.935.747 1.205.906.271.16.742.498 1.045.754.304.256.779.681 1.057.945.278.264.777.647 1.105.85.33.203.732.48.897.615.208.171.344.399.447.752.11.38.124.561.051.72-.06.132-.231.25-.447.311-.206.058-2.437.14-5.41.198-2.088.04-6.034.068-9.84.072Zm-220.912-1.477c-2.938 0-5.417-.696-7.436-2.086-2.02-1.39-3.396-3.318-4.13-5.783-.21-1.154-.315-1.993-.315-2.517 0-1.47.288-2.832.865-4.09.577-1.26 1.365-2.203 2.361-2.832a.871.871 0 0 1 .393-.08c.315 0 .552.132.709.394a.753.753 0 0 1 .234.55c0 .21-.156.394-.47.552-.735.42-1.298 1.113-1.692 2.084-.393.97-.592 2.059-.592 3.265 0 .735.08 1.548.237 2.44.577 1.993 1.745 3.58 3.502 4.76 1.757 1.18 3.868 1.769 6.334 1.769 4.983 0 9.48-1.967 13.492-5.9 4.012-3.934 7.21-8.17 9.597-12.707a156.38 156.38 0 0 0 6.57-14.202l.237-.628c2.728-6.872 5.061-11.093 7.002-12.667-4.51-2.202-8.747-3.934-12.707-5.193-3.96-1.259-8.143-1.889-12.549-1.889-4.458 0-8.391.748-11.8 2.243-3.41 1.495-6.045 3.593-7.907 6.295-1.862 2.7-2.793 5.86-2.793 9.48 0 2.413.536 4.706 1.612 6.883 1.075 2.177 2.676 3.949 4.8 5.312 2.125 1.364 4.706 2.045 7.748 2.045 2.623 0 4.931-.576 6.924-1.73 1.993-1.154 3.541-2.664 4.643-4.526 1.101-1.862 1.652-3.788 1.652-5.78 0-2.78-.892-5.05-2.676-6.807-1.783-1.758-4.063-2.635-6.843-2.635-.21 0-.394-.105-.551-.315-.158-.21-.237-.42-.237-.63 0-.21.08-.366.237-.471a.97.97 0 0 1 .55-.158c3.305 0 6.045 1.035 8.221 3.107 2.177 2.072 3.266 4.709 3.266 7.908 0 2.203-.63 4.366-1.889 6.49-1.259 2.125-3.054 3.87-5.388 5.233-2.334 1.364-4.971 2.045-7.909 2.045-2.78 0-5.361-.59-7.748-1.77-2.386-1.18-4.314-2.978-5.783-5.39-1.469-2.413-2.203-5.35-2.203-8.811 0-3.934.984-7.382 2.951-10.346 1.967-2.963 4.773-5.258 8.418-6.884 3.646-1.626 7.88-2.44 12.705-2.44 3.252 0 6.412.355 9.48 1.063 3.07.708 5.836 1.547 8.301 2.517 2.466.97 5.508 2.294 9.127 3.973 3.462 1.73 6.765 3.12 9.913 4.17 3.094-4.773 6.282-8.077 9.56-9.912 3.278-1.836 6.306-2.754 9.086-2.754 2.255 0 3.908.406 4.957 1.219 1.05.812 1.574 2.085 1.574 3.816 0 1.521-.604 3.12-1.81 4.799-1.207 1.678-3.107 3.094-5.703 4.248-2.597 1.154-5.861 1.732-9.795 1.732-2.15 0-4.564-.446-7.239-1.338-1.31 2.308-2.229 4.038-2.754 5.192l-1.337 2.99c-1.154 2.308-2.047 4.302-2.676 5.98a1.041 1.041 0 0 0-.235.354 1.047 1.047 0 0 1-.236.353c1.521-1.468 3.174-2.203 4.957-2.203 1.993 0 3.5.5 4.524 1.496 1.022.997 1.533 2.387 1.533 4.17 0 1.26-.301 2.45-.905 3.578-.603 1.128-1.56 2.584-2.87 4.368-1.26 1.573-2.23 2.989-2.913 4.248a8.304 8.304 0 0 0-1.021 4.013c0 .735.248 1.403.746 2.006.498.603 1.194.905 2.086.905 1.52 0 2.858-.656 4.012-1.967 1.153-1.312 2.309-3.515 3.462-6.61.63-2.255 1.665-4.523 3.108-6.804 1.442-2.282 3.16-4.17 5.152-5.664 1.993-1.495 4.118-2.243 6.373-2.243 1.469 0 2.637.419 3.502 1.258.866.84 1.297 1.967 1.297 3.383 0 1.73-.628 3.12-1.887 4.17-1.31 1.259-3.265 2.19-5.861 2.793-2.596.603-5.652.853-9.166.748-.524 1.469-.892 2.609-1.102 3.422a9.881 9.881 0 0 0-.314 2.478c0 1.784.485 3.07 1.455 3.856a5.158 5.158 0 0 0 3.344 1.18c2.098 0 4.118-.735 6.058-2.204 1.941-1.468 3.436-3.225 4.485-5.271.262-.472.63-.628 1.101-.47.368.366.445.76.235 1.179-1.154 2.36-2.82 4.406-4.996 6.137-2.177 1.73-4.47 2.595-6.883 2.595-1.521 0-2.873-.497-4.053-1.494-1.18-.996-1.874-2.386-2.084-4.17-1.049 1.784-2.138 3.133-3.266 4.051-1.127.918-2.451 1.377-3.972 1.377-1.364 0-2.491-.485-3.383-1.455-.892-.97-1.338-2.032-1.338-3.186 0-1.678.342-3.147 1.024-4.406.681-1.259 1.834-2.937 3.46-5.035 1.207-1.574 2.085-2.846 2.635-3.816.551-.97.826-1.953.826-2.95 0-2.622-1.467-3.935-4.404-3.935-1.573 0-3.121.854-4.642 2.558-1.522 1.705-2.937 3.868-4.248 6.49-2.833 5.77-5.325 10.124-7.475 13.061-2.15 2.937-4.59 4.904-7.317 5.9h-.236c-.472 0-.76-.13-.865-.392-.053-.052-.08-.16-.08-.316 0-.42.237-.734.709-.944 3.671-1.259 7.316-5.454 10.935-12.588.315-.577.616-1.153.905-1.73a24.56 24.56 0 0 1 .906-1.652c.472-1.05.812-1.733 1.021-2.047l4.329-9.362 4.17-8.812c.891-1.993 1.756-3.672 2.595-5.035-3.094-1.05-5.849-2.202-8.262-3.461h-.707c-1.101.577-2.307 2.15-3.619 4.72a70.321 70.321 0 0 0-3.383 7.71l-.236.708c-2.203 5.298-4.524 10.215-6.963 14.752-2.439 4.537-5.77 8.825-9.992 12.864-4.222 4.038-9.007 6.058-14.357 6.058Zm176.548 0c-5.979 0-11.106-1.26-15.38-3.777-4.275-2.518-7.489-5.913-9.64-10.188-2.15-4.274-3.224-9.008-3.224-14.2 0-5.246 1.074-10.007 3.225-14.282 2.15-4.275 5.364-7.683 9.639-10.227 4.274-2.543 9.401-3.816 15.38-3.816 5.98 0 11.107 1.273 15.381 3.816 4.275 2.544 7.488 5.952 9.639 10.227 2.15 4.275 3.225 9.036 3.225 14.281 0 5.14-1.1 9.847-3.303 14.121-2.203 4.275-5.442 7.685-9.717 10.229-4.275 2.544-9.35 3.816-15.225 3.816Zm173.325-.709v-.629c1.73-.891 2.595-2.177 2.595-3.855V245.73c0-.944-.262-1.744-.787-2.4a5.882 5.882 0 0 0-1.808-1.533v-.629h35.168l1.416 4.719h-.63c-.734-.735-1.613-1.403-2.636-2.006-1.023-.603-2.084-.904-3.186-.904h-20.69v18.96c.733-.786 1.651-1.376 2.753-1.769 1.101-.393 2.622-.59 4.563-.59 1.31 0 2.464.156 3.46.47.997.316 2.152.787 3.463 1.417 1.312.682 2.465 1.181 3.461 1.496.997.315 2.152.47 3.463.47.997 0 1.849-.117 2.557-.353s1.167-.511 1.377-.826l.314.314c-.472.945-1.364 1.875-2.676 2.793-1.31.918-3.068 1.377-5.271 1.377-1.259 0-2.333-.13-3.225-.392-.891-.263-1.914-.683-3.068-1.26a23.736 23.736 0 0 0-3.697-1.494c-1.207-.367-2.703-.55-4.487-.55-1.206 0-2.201.183-2.988.55v30.92h23.838c1.101 0 2.165-.301 3.187-.905a11.733 11.733 0 0 0 2.635-2.085h.63l-1.417 4.72h-38.314Zm85.521 0v-.629c1.731-.996 2.596-2.465 2.596-4.406v-45.002c0-1.94-.865-3.41-2.596-4.406v-.629h19.748c5.927 0 10.988 1.232 15.184 3.697s7.356 5.796 9.48 9.992c2.125 4.197 3.188 8.81 3.188 13.846 0 4.983-1.09 9.56-3.266 13.73-2.177 4.17-5.377 7.5-9.6 9.99-4.222 2.492-9.216 3.765-14.986 3.817h-19.748Zm-258.846-1.023c4.406 0 8.17-1.179 11.291-3.54 3.121-2.36 5.48-5.547 7.08-9.56 1.6-4.012 2.401-8.456 2.401-13.334 0-4.93-.8-9.403-2.4-13.416-1.6-4.012-3.96-7.21-7.08-9.597-3.121-2.387-6.886-3.58-11.292-3.58-4.405 0-8.168 1.193-11.289 3.58-3.12 2.386-5.482 5.585-7.082 9.597-1.6 4.013-2.398 8.486-2.398 13.416 0 4.878.799 9.322 2.398 13.334 1.6 4.013 3.962 7.2 7.082 9.56 3.121 2.361 6.884 3.54 11.29 3.54Zm268.288-.707h9.99c4.406 0 8.157-1.155 11.252-3.463 3.094-2.308 5.441-5.428 7.04-9.361 1.6-3.934 2.401-8.262 2.401-12.983 0-4.72-.788-9.034-2.361-12.941-1.574-3.908-3.92-7.017-7.041-9.325-3.121-2.307-6.858-3.486-11.211-3.539h-10.07v51.612Zm-109.832-8.498v-.63c1.73-.996 2.595-2.465 2.595-4.405v-34.774c0-1.94-.865-3.41-2.595-4.406v-.629h11.878v.629c-1.73.944-2.595 2.413-2.595 4.406v34.774c0 1.993.865 3.462 2.595 4.406v.629h-11.878Zm-274.93-7.057c2.458.02 4.685-.21 6.682-.691 2.281-.551 4-1.326 5.154-2.323.891-.891 1.336-1.914 1.336-3.068 0-.997-.276-1.757-.826-2.281-.551-.525-1.324-.787-2.32-.787-1.941 0-3.699.617-5.272 1.85a18.846 18.846 0 0 0-4.012 4.286c-.787.997-1.39 1.994-1.81 2.99.36.014.717.021 1.068.024Zm233.703-5.373h12.51c2.675-.105 5.126-.852 7.355-2.242 2.23-1.39 4-3.24 5.31-5.547 1.312-2.308 1.968-4.825 1.968-7.553 0-2.885-.577-5.481-1.73-7.789-1.155-2.308-2.886-4.131-5.194-5.469-2.308-1.337-5.088-2.005-8.34-2.005h-11.879v30.605Zm-191.578-19.826h14.006c4.143 0 7.395-1.076 9.756-3.227 2.36-2.15 3.539-5.481 3.539-9.992 0-2.465-.564-4.707-1.692-6.726-1.127-2.02-2.701-3.62-4.72-4.8-2.02-1.18-4.313-1.769-6.883-1.769H370.63v26.514Zm-45.867-.158c3.934 0 7.08-.551 9.441-1.653 2.36-1.101 4.011-2.346 4.955-3.736.944-1.39 1.416-2.584 1.416-3.58 0-1.05-.327-1.875-.982-2.479-.656-.603-2.007-.904-4.053-.904-6.032 0-11.722 3.829-17.072 11.486 2.57.577 4.669.866 6.295.866Zm166.744-3.98a1.631 1.631 0 0 1-.422-.09 13.46 13.46 0 0 0-1.242-.307c-.55-.112-1.266-.354-1.932-.65-.582-.26-1.264-.61-1.517-.776-.254-.167-.688-.549-.967-.85a3.79 3.79 0 0 1-.783-1.228c-.26-.645-.276-.754-.276-1.97 0-.907.052-1.543.176-2.147.168-.826.17-.887.017-1.534-.087-.37-.335-1.015-.548-1.435-.214-.42-.693-1.22-1.065-1.776a17.996 17.996 0 0 1-1.09-1.882 10.98 10.98 0 0 0-.888-1.516 24.426 24.426 0 0 1-.922-1.363c-.246-.397-.6-1.016-.785-1.377a37.66 37.66 0 0 0-.82-1.485 38.577 38.577 0 0 0-.878-1.421c-.216-.329-.593-.95-.837-1.38-.245-.429-.497-.979-.561-1.222a4.658 4.658 0 0 0-.256-.719 3.584 3.584 0 0 0-.43-.61 3.36 3.36 0 0 1-.46-.708c-.115-.258-.188-.732-.231-1.5-.035-.617-.037-1.147-.004-1.18.033-.033.168-.003.299.067.131.07.311.272.402.45.091.18.255.625.364.989.12.406.32.813.515 1.055.176.216.514.683.752 1.037.238.353.602.856.807 1.115.205.26.584.777.844 1.149s.606.945.771 1.273c.165.328.466.843.67 1.146.204.303.548.78.762 1.057.214.278.554.836.757 1.24.204.404.633 1.148.954 1.655.32.506.74 1.147.933 1.423.193.277.568.835.834 1.239.267.404.68 1.113.92 1.576.263.51.61 1.016.881 1.285.245.244.67.575.94.734.27.16 1.08.586 1.8.948.879.44 1.476.81 1.815 1.119.277.253.65.697.828.988.177.291.472.98.656 1.53.29.865.33 1.08.29 1.599-.027.33-.155.967-.288 1.416-.133.449-.264 1.047-.291 1.33-.027.284-.07.724-.096.977-.025.253-.076.508-.113.568a.429.429 0 0 1-.203.152.256.256 0 0 1-.082.008Z"/>
</svg>
