<?xml version="1.0" encoding="UTF-8"?>
<!-- Generated by Pixelmator Pro 3.3.6 -->
<svg width="288" height="196" viewBox="0 0 288 196" xmlns="http://www.w3.org/2000/svg">
      <defs>
        <style>
        /* .red{fill:#CB0A17}*/
            svg path,
            svg text {
                fill: black;
                color-scheme: light;
            }

            @media (prefers-color-scheme:dark) {
               /*.red{fill:#CB0A17}*/
                svg path,
                svg text {
                    fill: white;
                }
            }
        </style>
    </defs>
    <path d="M 38.106384 98.982651 C 38.602276 100.7826 38.718098 101.333313 38.683697 101.367714 C 38.6493 101.402107 38.295799 101.192451 37.898144 100.90181 C 37.500488 100.61116 36.850601 100.263924 36.453945 100.130173 C 35.826672 99.918648 34.702961 99.886978 27.825182 99.886978 L 19.917608 99.886978 L 19.917608 106.680367 L 19.917608 113.473747 L 24.853714 113.425117 C 29.171701 113.382576 29.848909 113.344139 30.261709 113.118141 C 30.521248 112.976051 30.906858 112.653877 31.11862 112.402214 C 31.330385 112.150543 31.541939 111.944641 31.588737 111.944641 C 31.635536 111.944641 31.673828 112.792442 31.673828 113.828651 C 31.673828 114.864853 31.635536 115.712662 31.588737 115.712662 C 31.541939 115.712662 31.330385 115.506752 31.11862 115.255081 C 30.906858 115.003418 30.521248 114.681252 30.261709 114.539162 C 29.848909 114.313164 29.171701 114.274719 24.853714 114.232178 L 19.917608 114.183548 L 19.917789 127.79705 L 19.917971 141.410553 L 21.538038 141.675964 C 22.429073 141.82193 24.073732 142.174591 25.192835 142.459671 C 26.311937 142.744736 28.617966 143.411972 30.317341 143.942398 C 32.016716 144.472839 35.238373 145.499298 37.476578 146.223434 C 39.714783 146.947571 42.631229 147.810501 43.957569 148.141052 C 45.283913 148.471619 47.216908 148.887466 48.253113 149.06517 C 49.660114 149.306458 50.785854 149.389587 52.699375 149.393509 C 54.108616 149.396393 55.859978 149.311325 56.591286 149.204468 C 57.322601 149.09761 58.475613 148.836227 59.153538 148.623627 C 59.83147 148.411041 60.962643 147.940781 61.667263 147.578613 C 62.37188 147.216461 63.403149 146.542648 63.958973 146.081253 C 64.514793 145.619858 65.251083 144.922791 65.595169 144.532227 C 66.047447 144.018829 66.200066 143.913483 66.145996 144.151962 C 66.104866 144.333405 65.829826 144.875992 65.534798 145.357727 C 65.239761 145.839462 64.720551 146.56691 64.380989 146.974274 C 64.041428 147.381622 63.478447 147.964355 63.129917 148.269226 C 62.781384 148.574097 62.157104 149.063416 61.742622 149.356598 C 61.32814 149.64978 60.582069 150.095535 60.084694 150.347168 C 59.587318 150.598816 58.688225 150.97879 58.08672 151.191544 C 57.485214 151.404312 56.332199 151.72168 55.524467 151.89682 C 54.356487 152.150055 53.407963 152.22551 50.890728 152.265396 C 49.149902 152.292984 47.149082 152.25383 46.444462 152.178391 C 45.739845 152.102951 44.315533 151.901123 43.279327 151.729889 C 42.243122 151.55864 40.615337 151.223083 39.662029 150.984222 C 38.708721 150.745346 36.917393 150.199768 35.681301 149.771805 C 34.445206 149.343842 32.512211 148.600296 31.385757 148.119476 C 30.259302 147.638672 28.354204 146.785934 27.152205 146.224518 C 25.950205 145.663101 24.356335 144.941345 23.610268 144.620605 C 22.864199 144.29985 21.658936 143.83284 20.931904 143.582779 C 20.204874 143.332733 19.085772 143.027496 18.445011 142.90448 C 17.804251 142.781464 16.703487 142.68045 15.998868 142.680008 C 15.292477 142.67955 14.386048 142.779953 13.978372 142.903809 C 13.54222 143.036331 12.992959 143.363403 12.639047 143.701355 C 12.180513 144.139191 12.05618 144.202652 12.111595 143.970551 C 12.151473 143.803513 12.279399 143.486771 12.395875 143.266693 C 12.512352 143.0466 12.865584 142.66217 13.180836 142.412415 C 13.496088 142.162674 14.22685 141.777649 14.804752 141.556824 C 15.592919 141.255646 15.911062 141.047836 16.077896 140.72522 C 16.270622 140.352524 16.30031 137.678162 16.30031 120.689087 C 16.30031 104.471123 16.264782 100.998032 16.094723 100.591026 C 15.981649 100.320404 15.67644 99.920013 15.416478 99.701271 C 15.156517 99.482529 14.943822 99.231354 14.943822 99.143105 C 14.943822 99.031044 18.436499 98.982651 26.525103 98.982651 L 38.106384 98.982651 Z M 226.028259 108.402702 C 225.94899 118.690895 225.94899 118.690895 226.29007 118.782288 C 226.477661 118.83255 228.123291 118.871628 229.947006 118.869125 C 232.410782 118.865738 233.41777 118.809784 233.865738 118.65139 C 234.197327 118.534142 234.689957 118.197998 234.960495 117.904404 C 235.231018 117.610802 235.485367 117.37059 235.525696 117.37059 C 235.566025 117.37059 235.59903 118.197784 235.59903 119.208801 C 235.59903 121.04702 235.59903 121.04702 235.109192 120.577499 C 234.839783 120.31926 234.381973 119.998062 234.091827 119.863724 C 233.641098 119.655029 233.015808 119.625832 229.79628 119.663116 L 226.028259 119.706757 L 226.028259 128.511017 L 226.028259 137.315292 L 227.083313 137.574402 C 227.663574 137.716919 228.6474 138.007095 229.269577 138.219223 C 229.891754 138.431366 230.875198 138.801727 231.455017 139.042252 C 232.034851 139.282791 233.763992 140.114014 235.297592 140.889435 C 236.831177 141.664856 238.654877 142.530685 239.35025 142.813538 C 240.045639 143.096375 241.063004 143.460083 241.611069 143.621765 C 242.159134 143.783463 242.946671 144.003632 243.361145 144.111023 C 243.775635 144.218414 244.61908 144.397125 245.235458 144.508118 C 245.884933 144.625092 247.500992 144.713409 249.078842 144.718185 C 250.938187 144.723801 252.064377 144.659668 252.630478 144.515915 C 253.086411 144.400146 253.866379 144.173889 254.36377 144.013138 C 254.86116 143.852386 255.669754 143.518311 256.160675 143.270752 C 256.651581 143.023193 257.49939 142.509109 258.044678 142.128342 C 258.589966 141.747589 259.365356 141.125107 259.767761 140.745056 C 260.170166 140.365021 260.831848 139.619568 261.238098 139.088516 C 261.644379 138.557465 262.205505 137.64183 262.485077 137.053787 C 262.764618 136.465729 263.086426 135.611572 263.200195 135.15564 C 263.322723 134.66449 263.402069 133.5896 263.394867 132.518021 C 263.385345 131.097687 263.311401 130.482864 263.050446 129.654327 C 262.867676 129.074051 262.500092 128.169037 262.233612 127.643173 C 261.967133 127.11731 261.349335 126.248444 260.860718 125.712349 C 260.372131 125.176254 259.592133 124.483376 259.127411 124.172615 C 258.66272 123.861855 257.916809 123.458786 257.469879 123.276909 C 257.022919 123.095032 256.209045 122.873772 255.66124 122.785225 C 255.113419 122.696678 254.292175 122.666664 253.836243 122.718536 C 253.38031 122.770409 252.652008 122.912582 252.217758 123.03447 C 251.783539 123.156357 251.035187 123.486458 250.554779 123.768021 C 250.074371 124.049583 249.301224 124.645142 248.836685 125.091484 C 248.341339 125.567436 247.792038 126.299316 247.508286 126.861389 C 247.242218 127.388496 246.930099 128.130798 246.814697 128.510971 C 246.699326 128.891129 246.604172 129.663864 246.603287 130.228149 C 246.602386 130.79245 246.679474 131.572418 246.774612 131.961441 C 246.869751 132.350464 247.0746 132.923096 247.229843 133.233948 C 247.385071 133.544815 247.457397 133.799149 247.390533 133.799149 C 247.323685 133.799149 247.02124 133.422989 246.718475 132.963242 C 246.41571 132.503494 246.080246 131.740479 245.973007 131.267639 C 245.865784 130.7948 245.776825 129.829437 245.775345 129.122391 C 245.773605 128.280319 245.870026 127.526421 246.054855 126.936943 C 246.210052 126.441994 246.568344 125.576523 246.851044 125.013687 C 247.17395 124.370811 247.741486 123.60936 248.377533 122.965622 C 249.045395 122.289665 249.725739 121.776855 250.376495 121.458893 C 250.919083 121.193779 251.732986 120.878418 252.18515 120.758087 C 252.637329 120.637756 253.64183 120.538498 254.417389 120.537514 C 255.219009 120.536499 256.223175 120.63826 256.744476 120.773346 C 257.24881 120.90403 258.174225 121.253189 258.800964 121.549248 C 259.683868 121.966324 260.213165 122.362488 261.151703 123.308678 C 261.900909 124.06398 262.553986 124.894577 262.863708 125.485985 C 263.139099 126.011864 263.500763 126.82576 263.66745 127.294632 C 263.834106 127.763504 264.064117 128.587952 264.178589 129.126755 C 264.29306 129.665558 264.384277 130.886383 264.381317 131.839722 C 264.378387 132.79306 264.285004 133.946106 264.173828 134.402039 C 264.062653 134.857971 263.831635 135.624374 263.660431 136.105164 C 263.489227 136.585968 263.10434 137.417145 262.805115 137.952255 C 262.505859 138.48735 261.864288 139.416534 261.379364 140.017136 C 260.89447 140.617722 260.129181 141.425522 259.678741 141.812241 C 259.228333 142.198959 258.424683 142.797012 257.892914 143.141235 C 257.361115 143.485474 256.451233 143.991058 255.870972 144.264771 C 255.29071 144.538483 254.408997 144.899475 253.911606 145.066986 C 253.414215 145.234497 252.583725 145.448578 252.066071 145.542725 C 251.548401 145.636841 250.782028 145.779938 250.363037 145.860703 C 249.944031 145.941467 248.36676 145.999954 246.858002 145.990677 C 245.349213 145.981415 243.775635 145.915878 243.361145 145.845047 C 242.946671 145.774231 242.166687 145.63829 241.627869 145.542969 C 241.08905 145.447647 240.105591 145.234802 239.442413 145.069992 C 238.779236 144.905167 237.729599 144.600616 237.109879 144.393219 C 236.490189 144.185822 235.472824 143.780869 234.849075 143.493317 C 234.225342 143.20575 233.22728 142.697067 232.631165 142.3629 C 232.035034 142.028732 231.15332 141.526001 230.671799 141.245728 C 230.190262 140.965454 229.253693 140.434052 228.590515 140.064819 C 227.927338 139.695602 226.883286 139.180328 226.270355 138.919769 C 225.65744 138.65921 224.610214 138.308014 223.943192 138.139343 C 223.058853 137.91571 222.442245 137.852951 221.666351 137.907593 C 221.081131 137.948822 220.263199 138.10054 219.848709 138.244751 C 219.434235 138.388977 219.047928 138.581802 218.99025 138.673279 C 218.932587 138.76474 218.844589 138.798737 218.794678 138.74884 C 218.744781 138.698929 218.796844 138.565247 218.910385 138.451752 C 219.023926 138.338272 219.385818 138.067444 219.7146 137.849915 C 220.043381 137.632401 220.527054 137.407288 220.789398 137.349655 C 221.051758 137.292038 221.440491 137.107941 221.65329 136.940552 C 221.866089 136.773178 222.140564 136.442108 222.26326 136.204865 C 222.4552 135.833694 222.486328 133.94162 222.486328 122.64846 C 222.486328 111.904236 222.449036 109.434174 222.280746 109.031387 C 222.167664 108.760765 221.862442 108.360374 221.602493 108.141632 C 221.342529 107.92289 221.129837 107.705627 221.129837 107.658829 C 221.129837 107.61203 225.35405 107.573738 230.516983 107.573738 C 239.904129 107.573738 239.904129 107.573738 240.099045 108.289658 C 240.206223 108.683418 240.359222 109.166954 240.439026 109.364182 C 240.518814 109.561417 240.55542 109.751472 240.52037 109.78653 C 240.485291 109.821594 240.030151 109.574646 239.508926 109.237762 C 238.987686 108.900871 238.318634 108.555069 238.022141 108.469315 C 237.680038 108.370361 235.390167 108.329704 231.755646 108.358047 L 226.028259 108.402702 Z M 137.373459 139.276428 C 136.561554 139.318481 135.45639 139.296982 134.917557 139.228653 C 134.378723 139.160339 133.513229 138.993881 132.994232 138.85878 C 132.475235 138.723663 131.550827 138.385361 130.940002 138.106995 C 130.329178 137.828644 129.324677 137.2603 128.707794 136.844025 C 128.090912 136.427765 127.002693 135.467346 126.289536 134.709763 C 125.576393 133.952179 124.589157 132.742188 124.095688 132.020859 C 123.602219 131.299545 122.840767 130.098953 122.403572 129.35289 C 121.96637 128.606812 121.334099 127.601173 120.998505 127.118111 C 120.662918 126.635048 120.201752 126.143326 119.973679 126.025383 C 119.66761 125.867111 118.949417 125.810951 117.231483 125.810951 C 115.248108 125.810951 114.890411 125.846207 114.812462 126.049362 C 114.762138 126.180481 114.722626 128.130432 114.724663 130.382584 C 114.726692 132.641953 114.798027 134.781403 114.883812 135.15564 C 114.977547 135.564621 115.230392 136.031097 115.520683 136.330658 C 115.785469 136.603897 116.024712 136.892151 116.052338 136.971222 C 116.083183 137.059494 114.87574 137.115005 112.924881 137.115005 C 111.177147 137.115005 109.747185 137.059875 109.747185 136.992493 C 109.747185 136.925095 109.959007 136.670761 110.217911 136.427277 C 110.476807 136.183807 110.782021 135.766357 110.896156 135.499603 C 111.066902 135.10054 111.103676 132.758591 111.103676 122.283669 C 111.103676 113.686905 111.051819 109.414948 110.943985 109.128433 C 110.856148 108.895073 110.538391 108.45105 110.237846 108.141708 C 109.937309 107.832367 109.731918 107.538773 109.781418 107.489265 C 109.830917 107.439766 113.387291 107.427742 117.684464 107.462547 C 124.343819 107.516495 125.619911 107.562172 126.326469 107.771896 C 126.78241 107.907219 127.662834 108.26857 128.282974 108.574883 C 129.089172 108.973099 129.712021 109.437431 130.46843 110.204155 C 131.050278 110.793938 131.748444 111.693779 132.019882 112.203804 C 132.291336 112.713829 132.647415 113.654999 132.811157 114.29528 C 132.987686 114.985443 133.108902 115.957863 133.108902 116.683609 C 133.108902 117.356903 133.015457 118.268051 132.90123 118.708382 C 132.787018 119.148712 132.435211 120.017975 132.119446 120.640076 C 131.7724 121.323814 131.183899 122.144775 130.631516 122.71579 C 130.128906 123.235336 129.28215 123.941536 128.749832 124.285133 C 128.217499 124.628731 127.234047 125.086929 126.564377 125.30336 C 125.709763 125.579567 124.886238 125.719765 123.801903 125.773666 C 122.952209 125.81591 122.257011 125.90358 122.257011 125.968498 C 122.257011 126.033424 122.579178 126.28717 122.972939 126.532394 C 123.366692 126.777618 124.206009 127.422531 124.838074 127.96553 C 125.470146 128.50853 126.956467 130.026276 128.141006 131.338287 C 129.325531 132.650314 130.809204 134.220856 131.438049 134.828369 C 132.066879 135.435883 133.081329 136.244965 133.692368 136.626312 C 134.303421 137.007675 135.286865 137.484177 135.877823 137.685211 C 136.485703 137.891998 137.475876 138.084732 138.158051 138.129028 C 139.007233 138.184174 139.648865 138.134232 140.327652 137.960144 C 140.857758 137.824188 141.621841 137.533142 142.025604 137.313385 C 142.429367 137.093628 143.029968 136.68251 143.36026 136.39978 C 143.756058 136.061005 143.9608 135.961304 143.9608 136.107346 C 143.9608 136.229218 143.566925 136.692322 143.085526 137.136459 C 142.604111 137.580597 141.89183 138.10141 141.502655 138.293823 C 141.11348 138.486237 140.357346 138.768845 139.822372 138.921829 C 139.287399 139.074814 138.185394 139.23439 137.373459 139.276428 Z M 208.318573 137.400711 C 207.696854 137.393311 206.611664 137.296844 205.907043 137.186356 C 205.202408 137.075851 204.049408 136.805176 203.344788 136.584824 C 202.640167 136.364487 201.554977 135.908691 200.933258 135.57196 C 200.311539 135.235229 199.419907 134.666138 198.951859 134.307312 C 198.483841 133.948502 197.814667 133.331299 197.464859 132.93576 C 197.115021 132.540207 196.574768 131.843552 196.264282 131.387619 C 195.953781 130.931686 195.528427 130.219543 195.319016 129.805054 C 195.109619 129.390564 194.763672 128.542755 194.550247 127.921043 C 194.336823 127.299316 194.057907 126.188286 193.930435 125.452087 C 193.802963 124.715881 193.698654 123.304565 193.698654 122.315819 C 193.698654 121.32708 193.771713 120.030342 193.860992 119.434189 C 193.950272 118.838036 194.191223 117.807678 194.396423 117.144508 C 194.601624 116.481339 194.924698 115.599617 195.114365 115.185135 C 195.304047 114.770653 195.706711 114.045937 196.009186 113.574661 C 196.31163 113.103378 196.8936 112.315857 197.302414 111.824623 C 197.711212 111.333389 198.508881 110.583771 199.074997 110.158798 C 199.641113 109.733833 200.661896 109.114258 201.34343 108.781967 C 202.024948 108.449677 203.173294 108.006615 203.895294 107.797386 C 204.61731 107.588158 206.004257 107.337364 206.977432 107.240059 C 208.317886 107.106041 209.147247 107.105019 210.398544 107.235855 C 211.306992 107.330833 212.753632 107.583275 213.613327 107.796814 C 214.472992 108.010361 215.583313 108.328171 216.080688 108.503067 C 216.578079 108.677963 217.375015 108.990532 217.851654 109.197662 C 218.718307 109.574272 218.718307 109.574272 218.718307 111.136261 C 218.718307 111.995354 218.699539 112.698242 218.67659 112.698242 C 218.653656 112.698242 218.094116 112.167839 217.433151 111.519577 C 216.772202 110.871307 215.751282 110.061203 215.164459 109.719337 C 214.577637 109.377472 213.628113 108.920563 213.054367 108.703979 C 212.480652 108.487396 211.350235 108.210892 210.542328 108.089523 C 209.381104 107.915085 208.781265 107.902199 207.678635 108.027985 C 206.911484 108.115501 205.791809 108.361298 205.19046 108.574196 C 204.589081 108.787102 203.707367 109.215584 203.231079 109.526375 C 202.754776 109.837173 201.948288 110.529091 201.438828 111.063972 C 200.929398 111.598854 200.236359 112.463844 199.898758 112.98616 C 199.561188 113.508476 199.076813 114.475586 198.822403 115.135292 C 198.567993 115.794998 198.261948 116.720421 198.142303 117.191795 C 198.022659 117.663162 197.813614 118.794899 197.677765 119.706757 C 197.506912 120.853317 197.457092 121.852814 197.516205 122.947258 C 197.563217 123.817665 197.70871 125.140244 197.839508 125.886314 C 197.970322 126.632378 198.254593 127.785393 198.471252 128.448563 C 198.687897 129.111725 199.031693 129.993454 199.235229 130.407928 C 199.438782 130.822418 199.78334 131.432831 200.000931 131.76442 C 200.218491 132.096008 200.656982 132.686768 200.975327 133.077225 C 201.293686 133.467682 201.973999 134.103333 202.487152 134.489777 C 203.00029 134.876236 203.810822 135.382141 204.288315 135.613998 C 204.765839 135.845871 205.613632 136.150497 206.172333 136.290955 C 206.731033 136.431427 207.561203 136.580048 208.017136 136.621216 C 208.473068 136.662384 209.456726 136.621429 210.203064 136.530182 C 210.949371 136.438934 211.966751 136.26123 212.463867 136.135269 C 212.960983 136.009308 213.922089 135.634903 214.59964 135.303268 C 215.277206 134.971634 216.175003 134.428833 216.594727 134.097046 C 217.014481 133.765259 217.637466 133.138596 217.979156 132.704468 C 218.320862 132.27034 218.660858 131.892532 218.734711 131.864899 C 218.808594 131.83728 218.869034 132.497406 218.869034 133.331894 C 218.869034 134.849121 218.869034 134.849121 218.153107 135.208969 C 217.759338 135.406891 216.928497 135.743027 216.306778 135.955933 C 215.685043 136.168854 214.437927 136.520782 213.5354 136.738007 C 212.632858 136.955215 211.344193 137.196213 210.671707 137.273544 C 209.999207 137.350891 208.940292 137.408112 208.318573 137.400711 Z M 48.056602 119.347366 C 53.296997 110.971405 54.068707 109.616371 54.109146 109.192291 C 54.145103 108.815231 54.069378 108.486359 53.883484 108.212303 C 53.729603 107.985435 53.581768 107.715034 53.554966 107.61142 C 53.517834 107.46785 53.973034 107.423019 55.467762 107.423019 C 56.560726 107.423019 57.468956 107.487198 57.518867 107.567963 C 57.568138 107.647675 57.345547 107.847023 57.024227 108.010948 C 56.702911 108.174873 56.084797 108.70311 55.650646 109.184807 C 55.216492 109.666512 53.447975 112.332748 51.7206 115.109779 C 48.579926 120.15892 48.579926 120.15892 48.917152 120.761803 C 49.102634 121.093391 50.90514 124.009834 52.922729 127.242798 C 54.940315 130.475769 57.038013 133.796936 57.584278 134.623199 C 58.145908 135.472687 58.806709 136.278915 59.105007 136.478577 C 59.395145 136.672791 59.65514 136.895432 59.682774 136.973343 C 59.71315 137.05899 58.412704 137.115005 56.393543 137.115005 C 53.793076 137.115005 53.066261 137.073318 53.109154 136.926605 C 53.139442 136.822983 53.248379 136.541412 53.351231 136.300903 C 53.500935 135.950821 53.499672 135.750992 53.344887 135.299164 C 53.238544 134.988739 51.62603 132.287933 49.76152 129.297363 C 47.134464 125.083694 46.331657 123.901405 46.194458 124.044167 C 46.097084 124.145485 44.675423 126.364853 43.035206 128.976089 C 41.394993 131.587326 39.864521 134.062912 39.634163 134.477386 C 39.403805 134.891876 39.2141 135.442291 39.212597 135.700516 C 39.211094 135.95874 39.343292 136.339661 39.506371 136.546982 C 39.669449 136.754303 39.75988 136.966919 39.707333 137.01947 C 39.654781 137.072021 38.775288 137.115005 37.752899 137.115005 C 36.730511 137.115005 35.894009 137.062607 35.894009 136.998566 C 35.894009 136.934509 36.123116 136.758728 36.403137 136.607941 C 36.683159 136.457123 37.22147 136.017807 37.59938 135.631653 C 37.997616 135.224731 39.848022 132.433441 42.000675 128.992432 C 44.113338 125.615318 45.686436 122.95076 45.648949 122.812874 C 45.612701 122.679543 43.746925 119.620094 41.502773 116.014099 C 38.531635 111.239952 37.184029 109.211922 36.545216 108.553421 C 36.06271 108.056046 35.645321 107.598228 35.617687 107.536057 C 35.590057 107.473885 37.02002 107.423019 38.795383 107.423019 C 40.570747 107.423019 42.06414 107.463837 42.114037 107.513733 C 42.163937 107.563629 42.093918 107.836876 41.958462 108.120949 C 41.762646 108.53157 41.743912 108.752419 41.867069 109.198318 C 41.952271 109.506798 42.996861 111.319153 44.188381 113.225769 C 45.379898 115.132385 46.737686 117.289726 47.205685 118.019859 L 48.056602 119.347366 Z M 66.94249 125.830734 C 66.94249 134.511398 66.977745 135.259735 67.187149 135.701035 C 67.321716 135.984604 67.62693 136.35556 67.865395 136.52536 C 68.103867 136.69516 68.298973 136.897308 68.298973 136.974548 C 68.298973 137.056992 66.960472 137.115005 65.058479 137.115005 C 63.049606 137.115005 61.817982 137.059052 61.817982 136.967758 C 61.817982 136.88678 61.991447 136.706848 62.203468 136.567932 C 62.415485 136.429016 62.720692 136.057129 62.88171 135.741501 C 63.164806 135.186584 63.174469 134.743073 63.174469 122.306885 C 63.174469 110.087379 63.160557 109.418831 62.895401 108.89875 C 62.741917 108.597687 62.419746 108.181374 62.179478 107.973602 C 61.818142 107.66114 61.784405 107.579575 61.984314 107.50177 C 62.117245 107.450027 65.711937 107.429016 69.972519 107.45507 C 77.719025 107.502441 77.719025 107.502441 78.936607 107.913277 C 79.606277 108.139236 80.555817 108.584747 81.046692 108.90329 C 81.537582 109.22184 82.360321 109.934219 82.875008 110.486366 C 83.462479 111.116562 84.015152 111.915062 84.359718 112.63147 C 84.661621 113.259148 84.986572 114.226143 85.081841 114.780357 C 85.177109 115.334572 85.252014 116.303627 85.248291 116.933807 C 85.244568 117.563995 85.121124 118.512672 84.973953 119.041992 C 84.82679 119.571304 84.456879 120.480011 84.151924 121.061333 C 83.822777 121.688797 83.199303 122.520729 82.617615 123.108658 C 82.078705 123.653366 81.253586 124.316307 80.784027 124.581863 C 80.314468 124.847427 79.534492 125.212624 79.050735 125.39341 C 78.21608 125.705345 77.884636 125.724892 72.556839 125.776428 L 66.94249 125.830734 Z M 105.903809 107.498375 C 106.518654 109.367317 106.675743 109.933678 106.64959 109.962715 C 106.623428 109.991768 106.343193 109.810616 106.02684 109.560158 C 105.710487 109.3097 105.146431 108.946815 104.773399 108.753738 C 104.101135 108.4058 104.042313 108.402321 98.104012 108.360062 L 92.112854 108.317429 L 92.112854 113.522247 L 92.112854 118.727074 L 95.885719 118.727074 C 98.731255 118.727074 99.779518 118.676544 100.150612 118.521484 C 100.421242 118.408417 100.821625 118.103203 101.040367 117.843246 C 101.259117 117.583282 101.510284 117.37059 101.598534 117.37059 C 101.703072 117.37059 101.758987 118.000824 101.758987 119.179237 C 101.758987 120.357643 101.703072 120.987885 101.598534 120.987885 C 101.510284 120.987885 101.273155 120.791878 101.071571 120.552315 C 100.869995 120.312752 100.432137 120.007538 100.098564 119.874069 C 99.598831 119.674118 98.842621 119.631401 95.80246 119.631401 L 92.112854 119.631401 L 92.112854 127.921043 L 92.112854 136.210693 L 98.782249 136.209213 C 105.451645 136.207733 105.451645 136.207733 106.280609 135.824203 C 106.736542 135.613266 107.368416 135.234085 107.684769 134.981583 C 108.001122 134.729095 108.287827 134.550369 108.321892 134.584427 C 108.355957 134.618484 108.213249 135.201813 108.004761 135.880676 L 107.625702 137.115005 L 97.382378 137.115005 C 91.748566 137.115005 87.139069 137.059875 87.139069 136.992493 C 87.139069 136.925095 87.350891 136.670761 87.609802 136.427277 C 87.868706 136.183807 88.173904 135.766357 88.28804 135.499603 C 88.458786 135.100525 88.49556 132.756378 88.49556 122.269012 C 88.49556 111.845261 88.458107 109.433792 88.28997 109.031387 C 88.176895 108.760765 87.871681 108.360374 87.611732 108.141632 C 87.351768 107.92289 87.139069 107.671204 87.139069 107.582321 C 87.139069 107.468666 89.92205 107.432251 96.521439 107.459557 L 105.903809 107.498375 Z M 150.893951 108.327339 L 150.893951 118.727074 L 154.743347 118.727074 C 158.257233 118.727074 158.642746 118.701561 159.16658 118.434319 C 159.482208 118.2733 159.854095 117.968086 159.993027 117.756073 C 160.131927 117.544052 160.311859 117.37059 160.392838 117.37059 C 160.480515 117.37059 160.540085 118.102402 160.540085 119.179237 C 160.540085 120.173996 160.48497 120.987885 160.417557 120.987885 C 160.350174 120.987885 160.09584 120.776062 159.852356 120.517159 C 159.608902 120.258263 159.191437 119.953049 158.924683 119.838921 C 158.555954 119.681152 157.535172 119.631401 154.666809 119.631401 L 150.893951 119.631401 L 150.893951 127.926796 L 150.893951 136.222183 L 157.789429 136.178757 C 164.616608 136.135757 164.691208 136.131958 165.321274 135.795273 C 165.671295 135.608246 166.199203 135.243149 166.494431 134.983932 C 166.789658 134.724731 167.059982 134.541412 167.095154 134.576584 C 167.130325 134.611755 167.012482 135.197296 166.833313 135.877777 L 166.507523 137.115005 L 156.213852 137.115005 C 149.988937 137.115005 145.920166 137.059753 145.920166 136.97522 C 145.920166 136.898346 146.105209 136.689896 146.33136 136.512009 C 146.55751 136.334106 146.862274 136.007019 147.008606 135.785141 C 147.25769 135.407471 147.274734 134.551025 147.275665 122.367149 C 147.276566 110.67025 147.251892 109.300377 147.031998 108.836998 C 146.89743 108.553421 146.591431 108.181908 146.351974 108.011406 C 146.112534 107.840904 145.955338 107.638771 146.002655 107.56221 C 146.053741 107.479546 149.842072 107.423019 155.330658 107.423019 C 162.626221 107.423019 164.606171 107.463394 164.731766 107.614754 C 164.81929 107.720215 165.028046 108.301361 165.195648 108.906197 C 165.363266 109.511032 165.44606 109.984299 165.379654 109.957901 C 165.313263 109.931503 165.028046 109.712868 164.74585 109.472038 C 164.463654 109.231209 163.893631 108.875793 163.479141 108.682228 C 162.729874 108.332321 162.691376 108.330276 156.809753 108.328812 L 150.893951 108.327339 Z M 171.165909 111.507454 C 171.09938 129.542786 171.119568 135.000275 171.167908 135.270905 C 171.219025 135.55719 171.48909 135.994019 171.813721 136.315475 C 172.12059 136.619354 172.394287 136.923569 172.421921 136.991501 C 172.449554 137.059433 171.613037 137.115005 170.563019 137.115005 C 169.428436 137.115005 168.674286 137.05719 168.704117 136.972473 C 168.731766 136.894073 168.937286 136.63974 169.160843 136.407272 C 169.38443 136.174805 169.672684 135.732437 169.801407 135.42424 C 170.006714 134.932785 170.035492 133.312424 170.035492 122.246078 C 170.035492 109.760368 170.032196 109.621475 169.720901 108.978394 C 169.547867 108.620964 169.242645 108.199799 169.042664 108.04248 C 168.842651 107.885155 168.679016 107.681412 168.679016 107.589729 C 168.679016 107.477242 169.264053 107.423019 170.477661 107.423019 C 172.276352 107.423019 172.276352 107.423019 173.161316 108.138939 C 173.648071 108.5327 175.787048 110.332375 177.914627 112.138214 C 180.042206 113.944061 183.463577 116.844467 185.51767 118.583565 C 188.680267 121.261185 189.270981 121.70414 189.373718 121.475143 C 189.440445 121.326416 189.47435 118.561653 189.449081 115.331238 C 189.40889 110.196281 189.371643 109.400894 189.152802 109.005585 C 189.015152 108.756897 188.692963 108.354218 188.436874 108.110741 C 188.180786 107.867264 187.971268 107.612923 187.971268 107.54554 C 187.971268 107.478149 188.819077 107.423019 189.855286 107.423019 C 191.086975 107.423019 191.739288 107.478569 191.739288 107.583473 C 191.739288 107.671715 191.543289 107.908852 191.303726 108.110428 C 191.064148 108.312012 190.758942 108.749863 190.625473 109.083435 C 190.409164 109.624023 190.382797 111.057648 190.382797 122.276901 C 190.382797 133.315384 190.411591 134.932816 190.616882 135.42424 C 190.745621 135.732437 191.033875 136.174805 191.257446 136.407272 C 191.481003 136.63974 191.686539 136.894073 191.714172 136.972473 C 191.744019 137.05719 190.989853 137.115005 189.855286 137.115005 C 188.70932 137.115005 187.966232 137.057526 187.996384 136.971222 C 188.024017 136.892151 188.272125 136.595428 188.547745 136.311859 C 188.823364 136.02829 189.142532 135.533432 189.25705 135.212189 C 189.412094 134.777252 189.466934 133.673386 189.471848 130.888977 C 189.47847 127.149826 189.47847 127.149826 188.837906 126.570381 C 188.485596 126.251686 187.193741 125.140312 185.967133 124.100662 C 184.740524 123.061012 182.253082 120.945862 180.439468 119.40033 C 178.62587 117.854797 175.797379 115.44664 174.153946 114.048859 L 171.165909 111.507454 Z M 140.19278 131.53833 C 138.438141 131.53833 137.025131 131.482208 137.052765 131.413605 C 137.080399 131.344986 137.35405 131.032776 137.660889 130.719772 C 138.06015 130.3125 138.266647 129.930145 138.387161 129.374985 C 138.504272 128.83548 138.540924 125.685066 138.507523 119.028519 C 138.459488 109.457748 138.459488 109.457748 138.091858 108.815834 C 137.889664 108.462784 137.558548 108.065376 137.356064 107.932693 C 137.064728 107.741806 137.031357 107.663925 137.196167 107.559547 C 137.31073 107.486992 138.70607 107.426598 140.296936 107.425323 C 141.897598 107.424049 143.227676 107.48494 143.275101 107.561668 C 143.32222 107.637924 143.197067 107.829109 142.996948 107.986519 C 142.796829 108.143929 142.491226 108.50544 142.317825 108.789879 C 142.006165 109.301102 142.002548 109.423576 142.002548 119.480675 C 142.002548 129.531464 142.006363 129.660706 142.317551 130.181854 C 142.490799 130.471985 142.777069 130.822891 142.95372 130.961639 C 143.130371 131.100372 143.299225 131.286896 143.328964 131.376129 C 143.36644 131.488525 142.403427 131.53833 140.19278 131.53833 Z M 66.94249 108.327339 L 66.94249 124.906624 L 70.702728 124.906624 C 74.294586 124.906624 74.515617 124.889816 75.638832 124.531258 C 76.285561 124.324799 77.183319 123.94323 77.63385 123.683327 C 78.084389 123.423416 78.810806 122.835403 79.248116 122.376633 C 79.685425 121.917862 80.285095 121.082214 80.580719 120.519638 C 80.87635 119.957054 81.228012 119.051895 81.36219 118.508179 C 81.541832 117.780167 81.584175 117.132469 81.522812 116.050919 C 81.465607 115.042763 81.325081 114.269417 81.074623 113.584549 C 80.873947 113.035805 80.535095 112.288788 80.321609 111.924507 C 80.108124 111.560219 79.564827 110.913536 79.114273 110.487419 C 78.663719 110.06131 77.869911 109.498039 77.35025 109.235718 C 76.830589 108.973389 75.898064 108.66169 75.277992 108.543053 C 74.495644 108.393364 73.04747 108.327339 70.546524 108.327339 L 66.94249 108.327339 Z M 114.796333 108.402702 C 114.735619 120.901222 114.75045 124.614601 114.790115 124.718224 C 114.845108 124.861877 115.731445 124.906097 118.521942 124.904396 C 121.23201 124.902748 122.429016 124.843849 123.134956 124.677429 C 123.659264 124.553825 124.463913 124.268753 124.923042 124.043938 C 125.382179 123.819122 126.225273 123.2024 126.796585 122.673454 C 127.640816 121.891823 127.961884 121.453453 128.511154 120.332443 C 128.958542 119.419357 129.241272 118.597755 129.347626 117.901672 C 129.436005 117.323357 129.465546 116.40773 129.4133 115.866943 C 129.361038 115.326157 129.215561 114.510658 129.089981 114.054733 C 128.964432 113.598801 128.621094 112.766273 128.327057 112.204674 C 128.000534 111.581055 127.476234 110.894592 126.980156 110.441216 C 126.533409 110.032913 125.745758 109.494911 125.22982 109.245644 C 124.713875 108.996384 123.852509 108.704742 123.315651 108.597572 C 122.673767 108.469421 121.04821 108.402702 118.567947 108.402702 L 114.796333 108.402702 Z" />
    
        <path d="M 41.121521 57.090408 C 39.464775 56.473297 38.373768 56.018036 37.628193 55.680588 C 36.882614 55.34314 36.130611 55.039902 35.957069 55.006729 C 35.747982 54.966766 35.471626 55.116013 35.137894 55.449142 C 34.860889 55.725647 34.392059 56.330215 34.096046 56.792633 C 33.80003 57.255035 33.236534 58.30632 32.843826 59.128799 C 32.451118 59.951279 31.729692 61.641586 31.240658 62.885025 C 30.751623 64.128479 29.905741 66.118668 29.360922 67.307663 C 28.816099 68.496674 27.927418 70.243294 27.386074 71.189041 C 26.844728 72.134789 25.965 73.569725 25.431124 74.3778 C 24.897243 75.185867 23.92137 76.491348 23.262514 77.278862 C 22.603655 78.066376 21.51338 79.175217 20.83968 79.742958 C 20.165979 80.310684 19.081656 81.095604 18.430073 81.487221 C 17.778488 81.878838 16.676659 82.393791 15.981558 82.631569 C 14.889518 83.005127 14.451425 83.069801 12.758371 83.107407 C 11.499115 83.135376 10.556654 83.082397 10.120758 82.959137 C 9.747724 82.853653 9.125121 82.607986 8.737197 82.413216 C 8.349273 82.218445 7.688018 81.758286 7.267743 81.39064 C 6.732329 80.922272 6.345674 80.393837 5.975977 79.625206 C 5.637624 78.921745 5.413337 78.193253 5.350749 77.594444 C 5.291203 77.024734 5.327554 76.32576 5.443984 75.801682 C 5.548942 75.329231 5.761082 74.693703 5.915408 74.389389 C 6.069733 74.085083 6.352112 73.654602 6.542919 73.43277 C 6.733725 73.210945 7.073357 72.99437 7.297657 72.951492 C 7.590272 72.895561 7.733002 72.945267 7.802917 73.127464 C 7.868773 73.299072 7.7252 73.561142 7.359988 73.935959 C 7.062785 74.240967 6.710869 74.751549 6.577953 75.07058 C 6.417501 75.455696 6.336997 76.097687 6.338401 76.980904 C 6.340065 78.027588 6.410074 78.459167 6.666795 79.005318 C 6.846249 79.387093 7.294278 80.034462 7.662416 80.443916 C 8.069284 80.896454 8.697298 81.367523 9.263937 81.645218 C 9.857734 81.936218 10.645844 82.165031 11.435024 82.275551 C 12.377653 82.407555 12.931542 82.406502 13.751158 82.271141 C 14.343634 82.173302 15.244349 81.954643 15.752748 81.785248 C 16.261148 81.615845 17.050144 81.269669 17.506075 81.015968 C 17.962006 80.762268 18.887188 80.124939 19.562035 79.599686 C 20.236881 79.074432 21.306158 78.083031 21.938208 77.396568 C 22.570255 76.710106 23.453651 75.639771 23.90131 75.018051 C 24.34897 74.396324 25.166883 73.141579 25.718897 72.229713 C 26.27091 71.317856 27.153698 69.690079 27.680647 68.612419 C 28.207598 67.53476 29.038908 65.703506 29.528006 64.542953 C 30.017099 63.382401 30.801521 61.517242 31.271162 60.398132 C 31.740803 59.279037 32.445633 57.796188 32.837448 57.102905 C 33.229263 56.409653 33.814339 55.541931 34.137615 55.174683 C 34.460892 54.807419 34.700077 54.483459 34.669136 54.454773 C 34.638199 54.426071 33.852478 54.05632 32.923092 53.633102 C 31.99371 53.209869 30.73896 52.667831 30.134758 52.428558 C 29.53056 52.189285 28.359253 51.777237 27.531851 51.512894 C 26.704451 51.248566 25.409363 50.905106 24.653875 50.749649 C 23.898388 50.594208 22.438885 50.392624 21.410534 50.301712 C 20.382183 50.210785 19.032124 50.176376 18.4104 50.22525 C 17.788677 50.274109 16.805223 50.383865 16.224949 50.469131 C 15.644674 50.554398 14.593397 50.795547 13.888777 51.005005 C 13.184156 51.214478 12.218678 51.5784 11.743265 51.813736 C 11.267854 52.049072 10.588609 52.44133 10.233831 52.685425 C 9.879055 52.92952 9.099921 53.643875 8.502424 54.272888 C 7.894004 54.913391 7.210798 55.823181 6.949492 56.34082 C 6.692876 56.849167 6.349677 57.783508 6.186827 58.41713 C 5.988534 59.18866 5.89104 60.067001 5.891655 61.076385 C 5.892193 61.956589 5.990382 62.955215 6.12769 63.476913 C 6.257004 63.968246 6.560866 64.782135 6.80294 65.285553 C 7.045014 65.788986 7.566511 66.568192 7.961822 67.01712 C 8.357133 67.466049 9.084499 68.094414 9.578193 68.413506 C 10.071886 68.732597 10.921567 69.133133 11.466373 69.303589 C 12.011179 69.474037 13.075176 69.652016 13.830812 69.699089 C 14.822556 69.76088 15.507545 69.716301 16.293518 69.538803 C 16.89237 69.403564 17.840778 69.052017 18.401093 68.757584 C 18.961405 68.463142 19.798048 67.844025 20.2603 67.38179 C 20.722549 66.919525 21.30798 66.152527 21.561258 65.677338 C 21.814535 65.202133 22.124281 64.371292 22.249582 63.830994 C 22.428991 63.057404 22.446081 62.601608 22.330008 61.686111 C 22.227047 60.874039 22.037493 60.251282 21.701248 59.620422 C 21.436497 59.123703 20.943827 58.479141 20.606426 58.188065 C 20.269024 57.896988 19.739286 57.528076 19.42923 57.36824 C 19.119173 57.20842 18.542667 57.012436 18.148102 56.932739 C 17.75354 56.853058 17.176374 56.749283 16.865513 56.702148 C 16.389166 56.629929 16.30031 56.558304 16.30031 56.24649 C 16.30031 55.904861 16.355949 55.876511 17.026556 55.876511 C 17.425993 55.876511 18.121193 55.985809 18.571445 56.1194 C 19.021698 56.252991 19.714685 56.526672 20.11142 56.72757 C 20.508154 56.928467 21.096844 57.331436 21.419621 57.623047 C 21.742395 57.914642 22.214596 58.477554 22.468952 58.873932 C 22.72331 59.270309 23.033127 59.928009 23.157438 60.335495 C 23.281748 60.742996 23.42572 61.517532 23.477381 62.056717 C 23.543112 62.742752 23.496817 63.330948 23.323166 64.016083 C 23.186689 64.55455 22.909431 65.334244 22.707041 65.748718 C 22.504648 66.163208 22.003872 66.914795 21.594204 67.41893 C 21.184536 67.923065 20.385368 68.65136 19.818277 69.037369 C 19.251184 69.423378 18.278519 69.917381 17.656796 70.135132 C 16.789959 70.438751 16.129868 70.549065 14.825761 70.608261 C 13.525929 70.667267 12.868788 70.62442 12.037428 70.426422 C 11.43919 70.283951 10.450276 69.929947 9.839843 69.639748 C 9.042373 69.260635 8.42309 68.808449 7.639749 68.033295 C 6.849253 67.251068 6.397638 66.643723 5.99702 65.824081 C 5.693136 65.202362 5.344826 64.218903 5.222995 63.638626 C 5.101165 63.058365 5.00082 62.00708 5.000007 61.30246 C 4.999194 60.597839 5.069338 59.584915 5.155884 59.051498 C 5.242429 58.518097 5.444206 57.692902 5.604277 57.217743 C 5.764348 56.742569 6.138689 55.938538 6.436147 55.431015 C 6.733604 54.923477 7.3868 54.070129 7.887692 53.534668 C 8.388585 52.999207 9.269916 52.24765 9.846205 51.864532 C 10.422494 51.481415 11.449135 50.932877 12.127629 50.645538 C 12.806123 50.358215 13.952019 49.993332 14.674063 49.834686 C 15.396108 49.676056 16.650858 49.474075 17.462397 49.385849 C 18.492586 49.273849 19.560553 49.2724 21.000862 49.381042 C 22.135479 49.466644 23.739511 49.674377 24.565376 49.842682 C 25.391239 50.010971 27.037779 50.461288 28.22435 50.843369 C 29.410921 51.225433 31.198109 51.894241 32.195877 52.329605 C 33.193642 52.764938 35.091393 53.610977 36.413094 54.209656 C 37.734791 54.80835 39.460888 55.539703 40.248863 55.834869 C 41.681545 56.371567 41.681545 56.371567 41.915234 56.016647 C 42.043758 55.821457 42.42638 55.286163 42.765499 54.827118 C 43.104614 54.368088 43.705173 53.635513 44.100079 53.199219 C 44.494984 52.762909 45.370537 51.962646 46.045753 51.420868 C 46.720974 50.879089 47.792065 50.175262 48.425957 49.856827 C 49.059849 49.538391 50.077816 49.160126 50.688103 49.016251 C 51.4879 48.827698 52.218174 48.771759 53.303593 48.815918 C 54.553024 48.866745 54.922821 48.940567 55.475094 49.24939 C 55.902882 49.488602 56.252934 49.837021 56.454777 50.224487 C 56.678917 50.654755 56.765068 51.088654 56.755676 51.739944 C 56.746494 52.376663 56.627583 52.900604 56.362286 53.473236 C 56.153156 53.924622 55.704193 54.606247 55.364582 54.98793 C 55.024975 55.369614 54.320286 55.957306 53.798607 56.2939 C 53.276924 56.630493 52.273586 57.10704 51.56897 57.352905 C 50.864353 57.598755 49.657677 57.885834 48.887474 57.990875 C 48.024055 58.108597 46.868217 58.146713 45.873062 58.090225 C 44.940758 58.037308 43.789059 57.862686 43.146385 57.676788 C 42.232838 57.412567 42.011005 57.391251 41.906593 57.557755 C 41.836651 57.669281 41.376492 58.540497 40.884014 59.493805 C 40.391537 60.447128 39.502632 62.312286 38.908669 63.638626 C 38.314705 64.964966 37.789513 66.151901 37.741566 66.276245 C 37.686436 66.419205 37.78793 66.382797 38.017647 66.177155 C 38.217438 65.998322 38.652199 65.716629 38.983784 65.551193 C 39.315372 65.385742 39.898491 65.207306 40.27961 65.154648 C 40.660728 65.10199 41.305058 65.132629 41.711456 65.222733 C 42.117855 65.312836 42.696491 65.548355 42.997307 65.746109 C 43.321751 65.959366 43.685631 66.39769 43.891788 66.823547 C 44.14658 67.349884 44.236942 67.794037 44.230415 68.487976 C 44.22298 69.278687 44.124336 69.627342 43.631191 70.606026 C 43.306515 71.250366 42.474243 72.557533 41.781704 73.510841 C 41.089165 74.464157 40.348484 75.617165 40.135746 76.073097 C 39.879871 76.621475 39.728519 77.245789 39.688587 77.917595 C 39.629211 78.91642 39.637222 78.942131 40.175484 79.480392 C 40.702919 80.007828 40.754974 80.02533 41.612049 79.963333 C 42.2719 79.915604 42.659542 79.789375 43.114475 79.474106 C 43.451694 79.24041 43.957108 78.701752 44.237614 78.277077 C 44.518124 77.852402 44.916798 77.165825 45.123558 76.751343 C 45.330318 76.336861 45.720371 75.387321 45.990334 74.641251 C 46.2603 73.89518 46.777538 72.708252 47.139755 72.003632 C 47.501965 71.299019 48.189674 70.216171 48.667995 69.597321 C 49.146317 68.978455 49.94384 68.144562 50.440281 67.744202 C 50.936714 67.343842 51.693073 66.844711 52.121067 66.634995 C 52.549068 66.425278 53.335014 66.179047 53.867607 66.087814 C 54.624523 65.95816 54.992508 65.965775 55.552914 66.122681 C 55.947235 66.233078 56.494091 66.534897 56.768147 66.79335 C 57.066425 67.074661 57.338657 67.531525 57.446365 67.931519 C 57.545334 68.299057 57.584183 68.863174 57.532696 69.18512 C 57.481213 69.507072 57.308216 70.027023 57.148254 70.340584 C 56.988293 70.654129 56.640862 71.092888 56.376183 71.315605 C 56.111507 71.538307 55.497925 71.920952 55.012672 72.165901 C 54.527416 72.410858 53.571026 72.749336 52.88736 72.918068 C 52.094196 73.113823 50.866863 73.257347 49.496117 73.314644 C 47.347904 73.404427 47.347904 73.404427 46.964264 74.618874 C 46.711197 75.419975 46.579506 76.185753 46.577347 76.868813 C 46.574867 77.653687 46.658707 78.074844 46.923752 78.608948 C 47.158237 79.081474 47.472027 79.42765 47.876312 79.659828 C 48.399612 79.960365 48.641434 79.998848 49.708252 79.95137 C 50.723351 79.906189 51.110958 79.81118 51.934818 79.405586 C 52.483456 79.135498 53.336815 78.540039 53.831184 78.082336 C 54.325558 77.624641 55.043507 76.778641 55.426628 76.202339 C 55.80975 75.626038 56.200653 75.179924 56.295303 75.210953 C 56.389957 75.241989 56.487637 75.43602 56.512375 75.642128 C 56.541573 75.885399 56.330624 76.357254 55.911148 76.987 C 55.555733 77.520554 54.838718 78.378082 54.31778 78.892609 C 53.709164 79.493736 52.9813 80.020027 52.281395 80.365044 C 51.68232 80.660362 50.792244 80.96656 50.303452 81.045486 C 49.726681 81.138618 49.179005 81.136154 48.743172 81.03849 C 48.373817 80.955711 47.881878 80.789871 47.649967 80.669945 C 47.418064 80.550018 46.991966 80.175774 46.703087 79.838287 C 46.410198 79.496109 46.081783 78.879311 45.96067 78.443954 C 45.743484 77.663246 45.743484 77.663246 45.210331 78.496696 C 44.917099 78.955086 44.345707 79.615685 43.940575 79.964691 C 43.521053 80.326088 42.87957 80.697754 42.450363 80.828087 C 41.97678 80.971901 41.472744 81.020439 41.093876 80.958725 C 40.762291 80.904709 40.314545 80.770264 40.098885 80.659958 C 39.883224 80.549644 39.496578 80.219994 39.239674 79.927399 C 38.982769 79.634796 38.726665 79.150696 38.670559 78.851616 C 38.614452 78.552536 38.612095 77.923714 38.665325 77.454231 C 38.718555 76.984741 38.963337 76.193672 39.209282 75.696297 C 39.455223 75.198921 40.298252 73.924751 41.082672 72.864815 C 41.867096 71.804886 42.687088 70.573463 42.904877 70.128311 C 43.189625 69.54631 43.300858 69.080627 43.300858 68.47052 C 43.300858 67.916412 43.20377 67.455856 43.021 67.142899 C 42.867077 66.879349 42.527779 66.539108 42.26701 66.38681 C 41.954376 66.204208 41.487354 66.108444 40.895893 66.105606 C 40.265495 66.1026 39.807804 66.198822 39.355923 66.429352 C 39.002277 66.609772 38.377918 67.106796 37.968456 67.533844 C 37.558994 67.960922 36.918316 68.770111 36.544727 69.332062 C 36.171143 69.894012 35.424305 71.216736 34.88509 72.271446 C 34.345875 73.326149 33.494343 74.935158 32.99279 75.847015 C 32.491241 76.758873 31.734955 78.013626 31.312153 78.635345 C 30.889351 79.257072 30.068653 80.241585 29.488377 80.823158 C 28.810904 81.502144 28.047369 82.082253 27.354849 82.444145 C 26.718418 82.776718 26.174591 82.968666 26.02807 82.912445 C 25.883392 82.856926 25.79883 82.687592 25.82543 82.50666 C 25.856148 82.297707 26.166862 82.04895 26.775402 81.746101 C 27.388123 81.441177 28.092836 80.875175 28.960854 79.990814 C 29.771807 79.164589 30.578726 78.137032 31.15954 77.190926 C 31.664198 76.368881 32.657204 74.577194 33.366219 73.209404 C 34.075233 71.841606 35.516773 68.857338 36.569637 66.577682 C 37.622501 64.298035 39.077389 61.230804 39.802731 59.761627 L 41.121521 57.090408 Z M 49.69669 72.41703 C 50.684998 72.370003 52.002293 72.215385 52.624016 72.073441 C 53.245739 71.931488 54.093544 71.644615 54.508026 71.435951 C 54.922508 71.227272 55.476097 70.893097 55.73822 70.693344 C 56.000343 70.493584 56.327961 70.047348 56.466259 69.701714 C 56.642521 69.261185 56.687943 68.874786 56.618156 68.409447 C 56.559349 68.017281 56.374657 67.601654 56.166859 67.39386 C 55.9734 67.200394 55.636578 66.997299 55.418369 66.942535 C 55.200161 66.887772 54.668682 66.872253 54.237305 66.908035 C 53.805923 66.943848 53.062813 67.151779 52.585934 67.370132 C 52.109062 67.588501 51.337624 68.126892 50.871628 68.566582 C 50.405632 69.006279 49.720646 69.759857 49.349426 70.241219 C 48.978214 70.72258 48.500183 71.428291 48.287132 71.809479 C 47.899773 72.502541 47.899773 72.502541 49.69669 72.41703 Z M 47.499508 57.109375 C 48.121231 57.079529 49.258892 56.930664 50.027645 56.778549 C 50.865139 56.612854 51.863621 56.285461 52.518757 55.961746 C 53.142174 55.653717 53.94857 55.090317 54.394852 54.651001 C 54.825344 54.227219 55.349087 53.536301 55.55872 53.115616 C 55.823673 52.583923 55.939873 52.104858 55.939873 51.544189 C 55.939873 50.869431 55.875908 50.678329 55.548477 50.374878 C 55.33321 50.175385 54.925976 49.935883 54.643517 49.842667 C 54.361053 49.749435 53.601139 49.673157 52.954815 49.673157 C 52.308491 49.673157 51.342281 49.785751 50.807678 49.923355 C 50.273083 50.060974 49.428734 50.37085 48.931355 50.612 C 48.433979 50.853165 47.687908 51.296875 47.273426 51.598022 C 46.858944 51.899185 45.841579 52.840317 45.012615 53.689438 C 44.183651 54.538559 43.284317 55.542633 43.014095 55.920715 C 42.522781 56.608124 42.522781 56.608124 43.390896 56.794571 C 43.868362 56.89711 44.733784 57.02211 45.314056 57.072327 C 45.894333 57.122543 46.877785 57.139206 47.499508 57.109375 Z" style="fill:#CB0A17;"/>
    <path d="M 69.580101 67.058197 C 69.657631 47.090637 69.657631 47.090637 69.271927 46.584961 C 69.023903 46.259781 68.460091 45.877594 67.692368 45.514267 C 67.035744 45.203506 66.496666 44.898392 66.494423 44.836212 C 66.492165 44.774048 70.576744 44.72435 75.571251 44.725784 C 82.965721 44.727921 84.845802 44.769424 85.694809 44.949295 C 86.26825 45.07077 87.082146 45.348663 87.503456 45.566864 C 87.924774 45.785034 88.583733 46.20105 88.967834 46.491333 C 89.351921 46.781616 89.909332 47.337982 90.206512 47.727661 C 90.5037 48.117355 90.916237 48.739258 91.123268 49.10968 C 91.330292 49.480087 91.611977 50.221481 91.749229 50.757217 C 91.886475 51.292953 91.996468 52.259216 91.993652 52.904465 C 91.990387 53.651611 91.875145 54.445313 91.6763 55.090118 C 91.504578 55.646988 91.149094 56.474518 90.886337 56.929108 C 90.623581 57.383682 90.02903 58.130936 89.565125 58.589676 C 89.101204 59.048401 88.286148 59.653122 87.753883 59.933502 C 87.221626 60.213867 86.509476 60.5103 86.171318 60.592239 C 85.833176 60.674194 85.505478 60.786285 85.443108 60.841339 C 85.380737 60.896408 85.821587 61.09816 86.422791 61.289703 C 87.023987 61.481232 87.9925 61.856277 88.575043 62.123138 C 89.157578 62.389984 90.141029 62.939148 90.76049 63.343491 C 91.379951 63.747833 92.331871 64.522247 92.87587 65.064407 C 93.419868 65.606583 94.148239 66.411377 94.494453 66.85289 C 94.840675 67.294373 95.42614 68.210007 95.795471 68.887611 C 96.16481 69.565224 96.707832 70.839417 97.002182 71.719147 C 97.296539 72.598892 97.656387 74.01561 97.801849 74.867424 C 97.968422 75.842842 98.06633 77.204247 98.06633 78.545013 C 98.06633 79.858795 97.967659 81.257423 97.808601 82.198059 C 97.66684 83.036369 97.368584 84.256355 97.145798 84.909149 C 96.923019 85.561935 96.544693 86.489174 96.305092 86.969704 C 96.065491 87.450218 95.65535 88.196281 95.393677 88.627632 C 95.132004 89.058968 94.526489 89.895432 94.04808 90.486435 C 93.569672 91.077431 92.684196 91.999191 92.080345 92.534782 C 91.476509 93.070374 90.568161 93.786713 90.061806 94.12664 C 89.55545 94.466576 88.707649 94.982117 88.177795 95.272293 C 87.647949 95.562477 86.685272 96.011009 86.038521 96.269043 C 85.391769 96.527069 84.340492 96.872177 83.702347 97.035965 C 83.064201 97.199745 81.881248 97.433456 81.073555 97.555321 C 80.233833 97.682007 78.652664 97.770554 77.380898 97.7621 C 76.157631 97.75396 74.512444 97.648445 73.724922 97.527611 C 72.937408 97.406776 71.703278 97.110741 70.982407 96.869751 C 70.261536 96.628769 69.074615 96.131325 68.344795 95.764328 C 67.614975 95.397324 66.610901 94.790176 66.113525 94.415115 C 65.61615 94.040047 64.857506 93.40522 64.42765 93.004379 C 63.997795 92.603539 63.26265 91.769035 62.793991 91.149918 C 62.325333 90.530807 61.608788 89.342293 61.201668 88.508766 C 60.794552 87.675247 60.284866 86.31662 60.069031 85.489601 C 59.786762 84.408005 59.653381 83.435951 59.593853 82.026566 C 59.543621 80.837273 59.582291 79.570129 59.692245 78.802475 C 59.791882 78.106873 60.071892 76.919945 60.314499 76.164856 C 60.557102 75.409775 61.05616 74.265808 61.423512 73.622726 C 61.790867 72.97963 62.443386 72.019676 62.873558 71.489479 C 63.30373 70.959282 64.073051 70.18837 64.583168 69.776344 C 65.093277 69.364319 65.864189 68.810928 66.29631 68.546577 C 66.728424 68.282234 67.644051 67.839203 68.331039 67.562088 L 69.580101 67.058197 Z M 73.272758 60.850296 L 73.272896 66.351608 L 75.034752 66.374344 C 76.003769 66.386856 77.377182 66.511292 78.086777 66.650879 C 78.796371 66.790466 79.855652 67.095123 80.440727 67.327911 C 81.02581 67.560699 81.999496 68.046669 82.6045 68.40786 C 83.209496 68.769066 84.138977 69.487656 84.670029 70.004745 C 85.201065 70.521843 85.970001 71.457237 86.378769 72.083412 C 86.787529 72.709579 87.322083 73.744728 87.566666 74.383736 C 87.811241 75.022743 88.132133 76.048271 88.279762 76.662689 C 88.438652 77.323982 88.552818 78.4002 88.559547 79.300293 C 88.565804 80.136574 88.477135 81.29557 88.362511 81.875847 C 88.247887 82.456123 87.992928 83.337837 87.795937 83.835213 C 87.598946 84.332596 87.263908 84.943016 87.051392 85.191704 C 86.674011 85.633331 86.66713 85.635086 86.755928 85.267067 C 86.805939 85.059822 86.95562 84.367378 87.088547 83.728287 C 87.268341 82.863945 87.310646 82.072525 87.253738 80.638504 C 87.189384 79.016731 87.102524 78.483421 86.706596 77.278862 C 86.447746 76.491348 85.959152 75.349991 85.620842 74.742516 C 85.282539 74.135033 84.520325 73.126991 83.92704 72.502411 C 83.252678 71.792496 82.423691 71.117599 81.715523 70.701965 C 81.092476 70.336296 79.959793 69.836945 79.198448 69.592278 C 78.312347 69.307526 77.200394 69.089455 76.108673 68.986351 C 75.170647 68.897743 74.146729 68.868462 73.833305 68.921272 C 73.263443 69.017296 73.263443 69.017296 73.305779 77.707382 C 73.348122 86.397469 73.348122 86.397469 73.70713 86.974968 C 73.904587 87.292587 74.226761 87.625641 74.423058 87.71508 C 74.619362 87.804527 74.779968 87.968552 74.779968 88.07959 C 74.779968 88.242035 74.146851 88.281479 71.539474 88.281479 C 68.879112 88.281479 68.298973 88.24411 68.298973 88.072731 C 68.298973 87.957924 68.47422 87.749161 68.688408 87.608818 C 68.902596 87.468483 69.206314 87.070686 69.363342 86.724846 C 69.632164 86.132759 69.64904 85.617867 69.652153 77.909271 C 69.655464 69.722511 69.655464 69.722511 69.316338 69.824936 C 69.129829 69.881271 68.6381 70.093407 68.223618 70.296333 C 67.809135 70.49926 67.198715 70.841621 66.867126 71.057129 C 66.535538 71.272644 65.901886 71.756927 65.459 72.133339 C 65.016113 72.509743 64.35894 73.230858 63.998608 73.735817 C 63.638275 74.240784 63.104675 75.152184 62.812832 75.761162 C 62.520988 76.370125 62.130074 77.520287 61.944122 78.317062 C 61.681087 79.444168 61.609749 80.183983 61.622749 81.649765 C 61.634148 82.934372 61.736855 83.973602 61.945564 84.916214 C 62.113918 85.676567 62.458809 86.796257 62.711994 87.404427 C 62.965176 88.012604 63.4711 89.018288 63.836266 89.639282 C 64.201431 90.260284 64.982689 91.32106 65.572403 91.996567 C 66.261658 92.786095 67.125458 93.5541 67.990944 94.146881 C 68.731438 94.65406 69.798866 95.276161 70.363022 95.529335 C 70.927177 95.782501 71.891968 96.127747 72.507011 96.296532 C 73.122047 96.465317 73.935944 96.655991 74.315659 96.720261 C 74.695374 96.784523 75.819939 96.84481 76.814697 96.854225 C 77.809456 96.863647 79.245407 96.770462 80.005707 96.647148 C 80.765999 96.523834 81.952919 96.245148 82.643318 96.02784 C 83.333702 95.810532 84.407257 95.384056 85.028984 95.080124 C 85.650703 94.776184 86.566338 94.260239 87.063713 93.933578 C 87.561089 93.606911 88.588142 92.723602 89.346031 91.970657 C 90.103928 91.21772 91.029282 90.129807 91.402382 89.553062 C 91.775467 88.976326 92.294838 88.083107 92.556526 87.56813 C 92.818222 87.053154 93.202263 86.138222 93.409966 85.534958 C 93.617653 84.931686 93.923431 83.827682 94.089447 83.081612 C 94.261429 82.3088 94.428398 80.849609 94.477493 79.690392 C 94.541115 78.188423 94.499603 77.251251 94.318962 76.111115 C 94.184364 75.261612 93.837967 73.837296 93.549179 72.945969 C 93.260391 72.054657 92.754738 70.799828 92.425491 70.157471 C 92.096252 69.515106 91.502686 68.531654 91.106468 67.972015 C 90.710236 67.412369 89.842003 66.409119 89.17704 65.742538 C 88.512093 65.075974 87.353951 64.121338 86.603401 63.62114 C 85.852852 63.120926 84.711723 62.492264 84.067581 62.224091 C 83.423439 61.955933 82.384079 61.605515 81.757904 61.445358 C 81.131721 61.285217 79.898987 61.085861 79.018486 61.002365 C 78.137993 60.918869 76.485001 60.850494 75.345169 60.850433 L 73.272758 60.850296 Z M 253.836243 79.650803 C 255.506058 82.426483 256.365417 83.774925 256.823242 84.438103 C 257.281067 85.101273 258.050323 86.129395 258.532715 86.722832 C 259.015106 87.316254 259.868286 88.256752 260.428711 88.812813 C 260.989136 89.368881 261.812073 90.095551 262.257538 90.427643 C 262.702972 90.759727 263.629852 91.294998 264.317261 91.617142 C 265.0047 91.939285 266.051422 92.312218 266.643341 92.445892 C 267.43045 92.623642 268.192993 92.670334 269.482025 92.619705 C 270.900238 92.564003 271.480011 92.468399 272.450256 92.130234 C 273.113434 91.899101 274.107758 91.447807 274.659882 91.127373 C 275.212036 90.806938 276.045227 90.196129 276.511444 89.77002 C 276.977692 89.343918 277.403564 89.039719 277.457855 89.094017 C 277.512146 89.148323 277.221558 89.536385 276.812073 89.95639 C 276.402588 90.376389 275.650177 91.020447 275.140076 91.387634 C 274.629944 91.754814 273.782135 92.249222 273.256073 92.48632 C 272.72998 92.723419 271.689117 93.069878 270.943054 93.256233 C 269.994507 93.493164 269.019989 93.609177 267.702545 93.642014 C 266.666351 93.667839 265.380341 93.622177 264.844788 93.54055 C 264.309235 93.458916 263.35968 93.221443 262.734711 93.012833 C 262.109711 92.80423 261.164856 92.3964 260.63501 92.106552 C 260.105164 91.816704 259.273804 91.309395 258.787537 90.979195 C 258.3013 90.648987 257.203949 89.679291 256.348938 88.824303 C 255.493973 87.969322 254.256683 86.589455 253.599426 85.757942 C 252.942154 84.92643 251.88681 83.543228 251.254211 82.684174 C 250.621597 81.825111 249.127914 79.664017 247.934921 77.881744 C 246.741898 76.099472 244.945633 73.386497 243.943192 71.852913 C 242.940765 70.319336 241.094437 67.453552 239.84024 65.484497 C 238.58606 63.515457 237.00383 61.027023 236.324188 59.954651 C 235.644562 58.882278 235.033813 58.038696 234.966965 58.080002 C 234.900131 58.121323 234.845428 63.216522 234.845428 69.402687 C 234.845428 80.544907 234.848404 80.656433 235.164093 81.308548 C 235.339371 81.670609 235.644562 82.072853 235.842331 82.202431 C 236.0401 82.332016 236.20192 82.531975 236.20192 82.646782 C 236.20192 82.813576 235.820709 82.85553 234.305344 82.85553 C 233.17865 82.85553 232.429169 82.797668 232.459015 82.712997 C 232.486649 82.634598 232.691483 82.380257 232.914215 82.147797 C 233.136917 81.915321 233.424774 81.521652 233.553833 81.272964 C 233.760849 80.874123 233.788635 79.313774 233.789459 68.041206 C 233.790359 55.618347 233.782089 55.245346 233.493149 54.678986 C 233.329666 54.358536 233.018768 53.957016 232.802277 53.786713 C 232.585754 53.616425 232.452225 53.406525 232.505524 53.320313 C 232.564484 53.224899 233.361954 53.163544 234.543106 53.163544 C 236.483795 53.163544 236.483795 53.163544 236.882065 53.728745 C 237.10112 54.039597 238.157196 55.633209 239.228912 57.270096 C 240.300629 58.906967 242.090622 61.638275 243.20668 63.339645 C 244.322708 65.041 246.84877 68.905624 248.820129 71.927689 C 250.791473 74.949738 252.489182 77.45575 252.592804 77.49659 C 252.742538 77.555603 252.778839 75.306541 252.769745 66.535278 C 252.76123 58.363846 252.711395 55.370331 252.577652 55.001221 C 252.478317 54.727066 252.172134 54.272705 251.897247 53.991547 C 251.62233 53.710403 251.441467 53.409073 251.495331 53.321945 C 251.554474 53.226227 252.27211 53.163544 253.308716 53.163544 C 254.300919 53.163544 255.063889 53.227707 255.118286 53.315735 C 255.170029 53.399445 255.012558 53.636047 254.768387 53.841507 C 254.5242 54.046967 254.214569 54.446548 254.080338 54.729462 C 253.861618 55.190369 253.836243 56.511917 253.836243 67.447311 L 253.836243 79.650803 Z M 178.626587 71.551476 C 178.626587 80.210403 178.666519 81.139099 178.849686 81.493263 C 178.972366 81.730545 179.292465 82.096626 179.561005 82.306778 C 179.829529 82.516937 180.010376 82.72776 179.962845 82.775269 C 179.915329 82.822784 178.425262 82.843315 176.651596 82.820915 C 173.426712 82.780174 173.426712 82.780174 173.894577 82.328011 C 174.151871 82.079323 174.490997 81.651466 174.648178 81.377228 C 174.922516 80.898514 174.933914 80.369171 174.933914 68.1138 C 174.933914 61.093155 174.881332 55.160751 174.817047 54.930679 C 174.752777 54.700592 174.431641 54.24382 174.103409 53.915604 C 173.509521 53.321716 173.508423 53.318405 173.872635 53.22699 C 174.073944 53.176468 177.616714 53.166 181.745499 53.20372 C 188.065247 53.261459 189.383484 53.31073 190.08136 53.515381 C 190.537292 53.649078 191.398987 53.999832 191.996201 54.29483 C 192.59346 54.589813 193.463745 55.179962 193.930191 55.606262 C 194.396622 56.032562 195.042191 56.77002 195.364777 57.245056 C 195.687378 57.720108 196.130615 58.573013 196.349731 59.140411 C 196.654846 59.93045 196.766617 60.540802 196.827057 61.746658 C 196.870865 62.62088 196.832855 63.714264 196.741623 64.204865 C 196.65126 64.690857 196.319595 65.610077 196.004623 66.247559 C 195.579269 67.10849 195.12178 67.71756 194.226181 68.615288 C 193.343109 69.500458 192.71788 69.974709 191.890015 70.387344 C 191.26828 70.69722 190.223099 71.085915 189.567413 71.251114 C 188.875122 71.425529 187.874451 71.551476 187.181 71.551476 C 186.524185 71.551476 186.009399 71.613335 186.037033 71.688957 C 186.064651 71.764565 186.460281 72.07634 186.916229 72.381783 C 187.372162 72.687218 188.084305 73.228157 188.498795 73.58387 C 188.913269 73.939583 189.557602 74.527451 189.930634 74.890251 C 190.303665 75.253044 191.180115 76.193237 191.878311 76.979576 C 192.576492 77.765907 193.763428 79.043182 194.515915 79.817978 C 195.268417 80.592758 196.223236 81.48661 196.637711 81.804306 C 197.0522 82.122002 197.798248 82.583397 198.295639 82.829628 C 198.79303 83.075859 199.700943 83.429222 200.313217 83.614868 C 201.245117 83.897415 201.650314 83.939018 202.80011 83.870171 C 203.599686 83.822304 204.49205 83.66684 204.93541 83.498192 C 205.354309 83.338829 206.133469 82.908623 206.66687 82.542152 C 207.200272 82.175682 207.705307 81.847588 207.789215 81.813049 C 207.873108 81.778511 207.708649 82.0159 207.423737 82.340576 C 207.138855 82.665245 206.611023 83.156105 206.250793 83.431374 C 205.890549 83.706635 205.309753 84.053467 204.960144 84.202095 C 204.610535 84.350731 203.917526 84.579407 203.420151 84.710266 C 202.92276 84.841118 201.905396 84.980797 201.159332 85.020653 C 200.413269 85.060509 199.353424 85.036942 198.804138 84.968269 C 198.254837 84.899605 197.271393 84.697563 196.618683 84.519295 C 195.965988 84.341019 194.787613 83.852486 194.000107 83.433655 C 193.212585 83.014824 192.229126 82.382835 191.814651 82.029236 C 191.400162 81.675629 190.597656 80.911812 190.031311 80.331856 C 189.464966 79.751907 188.578003 78.675125 188.060287 77.939011 C 187.542542 77.202896 186.61554 75.754692 186.000229 74.720795 C 185.384918 73.68689 184.595032 72.550827 184.244904 72.19622 C 183.608292 71.551476 183.608292 71.551476 181.117447 71.551476 L 178.626587 71.551476 Z M 113.981087 83.142372 C 113.103134 83.134346 111.808296 83.037369 111.103676 82.926872 C 110.399055 82.816376 109.279961 82.552048 108.616783 82.339478 C 107.953606 82.1269 106.886932 81.66433 106.246391 81.311531 C 105.605843 80.958733 104.620438 80.292038 104.056595 79.829987 C 103.492744 79.367935 102.651245 78.484749 102.186569 77.867355 C 101.721901 77.249962 101.101151 76.271515 100.807098 75.693039 C 100.513054 75.114548 100.105751 74.132568 99.90197 73.510841 C 99.698189 72.889122 99.439186 71.905663 99.326408 71.325394 C 99.206009 70.705856 99.121376 69.274895 99.121376 67.85881 C 99.121376 65.726685 99.169212 65.258804 99.534233 63.820648 C 99.761322 62.925995 100.187836 61.671249 100.482056 61.032318 C 100.776276 60.393387 101.262497 59.497589 101.562538 59.041656 C 101.862579 58.585709 102.412621 57.854477 102.784851 57.416656 C 103.157082 56.978836 103.909386 56.284622 104.456635 55.873962 C 105.003899 55.463272 105.843292 54.917953 106.321968 54.662125 C 106.800659 54.406281 107.784111 53.995483 108.507423 53.749222 C 109.230743 53.50296 110.466881 53.203018 111.254395 53.082672 C 112.041908 52.962326 113.398392 52.863754 114.268814 52.863586 C 115.139229 52.863434 116.475327 52.964508 117.23793 53.088181 C 118.000526 53.211868 119.130676 53.473816 119.749367 53.670288 C 120.368042 53.866745 121.405792 54.313538 122.055473 54.663147 C 122.705147 55.012756 123.596458 55.575531 124.036186 55.913757 C 124.475891 56.251984 125.147896 56.873688 125.529518 57.295334 C 125.911148 57.71698 126.52977 58.533096 126.904243 59.108917 C 127.278725 59.684723 127.801628 60.669235 128.066254 61.296692 C 128.330887 61.924149 128.689056 63.012985 128.862183 63.716324 C 129.035309 64.419662 129.246628 65.730347 129.331757 66.628967 C 129.435211 67.721085 129.437302 68.73764 129.338058 69.694832 C 129.256378 70.48243 129.053864 71.658295 128.888016 72.307877 C 128.722168 72.957451 128.362579 74.019783 128.088928 74.668625 C 127.815285 75.317459 127.231911 76.38105 126.792542 77.032166 C 126.353188 77.683273 125.594734 78.608818 125.107109 79.088936 C 124.619476 79.569054 123.731117 80.284286 123.132965 80.678352 C 122.534828 81.072411 121.635223 81.578331 121.133858 81.80262 C 120.632492 82.026909 119.747505 82.349403 119.167236 82.519272 C 118.586967 82.68914 117.541855 82.902122 116.84478 82.992554 C 116.147705 83.082985 114.859039 83.150406 113.981087 83.142372 Z M 137.473862 66.050171 C 135.78476 63.419449 134.347794 61.181244 133.190872 59.379135 C 132.033951 57.577042 130.826874 55.745087 130.508484 55.308136 C 130.190079 54.871185 129.559738 54.268112 129.107712 53.968002 C 128.655685 53.667862 128.285843 53.36409 128.285843 53.292923 C 128.285843 53.221756 129.698853 53.163544 131.425858 53.163544 C 133.152863 53.163544 134.603714 53.201385 134.649963 53.247635 C 134.696228 53.293884 134.660507 53.526596 134.570602 53.764771 C 134.461487 54.053818 134.454422 54.383469 134.549316 54.756256 C 134.627502 55.063416 135.946228 57.336655 137.479813 59.807907 C 139.013397 62.27916 140.335968 64.302139 140.418869 64.303421 C 140.501755 64.304703 141.586945 62.677719 142.830399 60.687912 C 144.073837 58.698105 145.345551 56.653595 145.656418 56.144547 C 146.002991 55.576996 146.221619 55.029984 146.221619 54.730347 C 146.221619 54.430496 146.077652 54.070618 145.849014 53.798904 C 145.644089 53.555359 145.519745 53.312775 145.572693 53.259811 C 145.625656 53.206863 146.545029 53.163544 147.615784 53.163544 C 148.786423 53.163544 149.542557 53.220901 149.512344 53.307404 C 149.484726 53.386536 149.138428 53.665237 148.742798 53.926727 C 148.347183 54.188232 147.79509 54.68306 147.51593 55.026321 C 147.236771 55.369583 145.678329 57.779587 144.052734 60.381866 L 141.097107 65.113297 L 141.097672 73.042419 C 141.098221 80.815956 141.104416 80.981873 141.413239 81.499046 C 141.586472 81.789177 141.872742 82.140083 142.049393 82.278831 C 142.226044 82.417564 142.394897 82.604088 142.424652 82.693314 C 142.462112 82.805717 141.4991 82.85553 139.288452 82.85553 C 137.348846 82.85553 136.117889 82.799652 136.148438 82.712997 C 136.176071 82.634598 136.381607 82.380257 136.605179 82.147797 C 136.828735 81.915321 137.116989 81.472961 137.245728 81.164764 C 137.446533 80.684059 137.479385 79.569939 137.476837 73.327278 L 137.473862 66.050171 Z M 170.583328 53.314255 C 171.013565 54.657562 171.170288 55.217102 171.209152 55.424347 C 171.279022 55.796677 171.273788 55.795456 170.770706 55.32045 C 170.490677 55.056076 169.88855 54.666748 169.432617 54.455276 C 168.603653 54.070801 168.603653 54.070801 162.687866 54.069336 L 156.772064 54.067856 L 156.772064 59.267731 L 156.772064 64.46759 L 160.653122 64.467041 C 164.328812 64.466507 164.562119 64.449707 165.061707 64.149612 C 165.351852 63.975342 165.739395 63.653427 165.922943 63.434265 C 166.256638 63.035751 166.256638 63.035751 166.26207 64.911652 C 166.267471 66.787537 166.267471 66.787537 165.733475 66.269974 C 165.439789 65.985306 165.049789 65.669189 164.866837 65.567505 C 164.628937 65.435272 163.42865 65.381088 160.653122 65.377258 L 156.772064 65.371918 L 156.772064 73.138878 C 156.772064 79.357765 156.813049 81.003914 156.977661 81.397881 C 157.090729 81.668503 157.392166 82.065727 157.647537 82.280602 C 157.902924 82.495476 158.070374 82.712738 158.019714 82.763412 C 157.96904 82.814072 156.586426 82.85553 154.947189 82.85553 C 153.307968 82.85553 151.93129 82.798088 151.887909 82.727875 C 151.844513 82.657661 152.018417 82.40332 152.274368 82.162666 C 152.530319 81.92202 152.833115 81.506874 152.94725 81.24012 C 153.117996 80.841064 153.15477 78.499115 153.15477 68.024193 C 153.15477 59.427429 153.102921 55.155472 152.995087 54.868958 C 152.907242 54.63559 152.588272 54.190323 152.28624 53.879456 C 151.737106 53.314255 151.737106 53.314255 161.160233 53.314255 L 170.583328 53.314255 Z M 228.577545 53.238892 C 229.119949 54.970886 229.255219 55.540329 229.228058 55.62178 C 229.200928 55.703217 228.944321 55.564056 228.657837 55.312531 C 228.371353 55.060974 227.832062 54.694992 227.459412 54.499191 C 226.784882 54.144806 226.755219 54.143021 220.79071 54.099045 L 214.799561 54.054871 L 214.799561 59.171371 L 214.799561 64.287872 L 215.648148 63.828278 C 216.272644 63.490021 216.799561 63.33902 217.643631 63.256378 C 218.274445 63.194611 219.215897 63.204315 219.735764 63.277924 C 220.316849 63.360229 221.246445 63.676132 222.148865 64.097977 C 222.956192 64.475388 224.04538 64.891937 224.56929 65.023651 C 225.2202 65.187317 225.850189 65.235626 226.558655 65.176224 C 227.128906 65.128418 227.740387 65.011749 227.917496 64.916962 C 228.09462 64.822174 228.276672 64.781754 228.322083 64.827164 C 228.367493 64.872574 228.174271 65.140076 227.892715 65.421631 C 227.61116 65.703171 227.008652 66.123489 226.553818 66.355652 C 225.932724 66.672668 225.445374 66.794342 224.59642 66.844345 C 223.86554 66.887405 223.173035 66.831299 222.637039 66.685608 C 222.181107 66.561691 221.180954 66.178162 220.414444 65.833313 C 219.647934 65.488464 218.606079 65.13327 218.099197 65.043991 C 217.592331 64.954697 216.71962 64.914429 216.159866 64.954468 C 215.600082 64.994522 215.065033 65.074921 214.97084 65.133148 C 214.846298 65.210114 214.799561 67.518585 214.799561 73.5951 L 214.799561 81.95121 L 221.468964 81.944595 C 226.570374 81.939529 228.268265 81.891579 228.690933 81.740608 C 228.994858 81.632057 229.600174 81.278954 230.036072 80.95594 C 230.47197 80.632927 230.876602 80.348694 230.935242 80.324318 C 230.993881 80.29995 230.868103 80.859497 230.655746 81.567764 L 230.269623 82.85553 L 220.047714 82.85553 C 212.920303 82.85553 209.825775 82.806961 209.825775 82.695076 C 209.825775 82.606827 210.038467 82.355659 210.298431 82.136909 C 210.558411 81.918175 210.863602 81.517784 210.976685 81.247162 C 211.144806 80.844757 211.182266 78.433105 211.182266 68.008377 C 211.182266 55.619171 211.173935 55.245285 210.885025 54.678986 C 210.721542 54.358536 210.416336 53.961487 210.206772 53.796646 C 209.997238 53.631821 209.825775 53.421432 209.825775 53.329102 C 209.825775 53.207169 212.390427 53.171875 219.20166 53.200073 L 228.577545 53.238892 Z M 262.917175 82.852921 C 259.995087 82.854355 257.604279 82.797195 257.604279 82.725891 C 257.604279 82.654594 257.83902 82.347336 258.125946 82.043098 C 258.412903 81.738861 258.717712 81.237648 258.803375 80.929291 C 258.904633 80.564667 258.959381 76.053391 258.9599 68.027023 C 258.960541 58.940399 258.913605 55.528 258.781921 55.088577 C 258.683594 54.76033 258.395355 54.277695 258.141388 54.016052 C 257.887421 53.75441 257.656677 53.450317 257.628632 53.340271 C 257.5867 53.175613 258.693176 53.151855 263.883545 53.206024 C 269.668579 53.266403 270.32016 53.299423 271.772003 53.605881 C 272.642426 53.789597 273.860107 54.141739 274.477997 54.388428 C 275.095856 54.635086 275.9776 55.066727 276.437378 55.34761 C 276.897156 55.628479 277.655121 56.184555 278.121765 56.583328 C 278.588409 56.982101 279.288879 57.681396 279.678375 58.137329 C 280.067871 58.593262 280.625305 59.371262 280.917145 59.866257 C 281.208984 60.361221 281.640778 61.252136 281.876678 61.846039 C 282.11261 62.439957 282.4617 63.66275 282.652435 64.563385 C 282.908203 65.770859 282.999451 66.695847 283 68.085648 C 283.000519 69.510658 282.915588 70.348831 282.651825 71.521713 C 282.45993 72.374924 282.103729 73.541145 281.86026 74.113312 C 281.616791 74.685478 281.184479 75.547005 280.899597 76.027832 C 280.614716 76.508659 280.055267 77.288574 279.656433 77.760971 C 279.257599 78.233376 278.456268 79.013939 277.875763 79.495552 C 277.295227 79.977165 276.176147 80.694687 275.388885 81.090057 C 274.54892 81.511871 273.334686 81.964874 272.450256 82.186394 C 271.621307 82.394012 270.332642 82.628334 269.586578 82.707092 C 268.840515 82.785866 265.839264 82.851486 262.917175 82.852921 Z M 114.570251 82.190811 C 116.393105 82.14856 116.731087 82.096725 117.815994 81.692993 C 118.482056 81.445129 119.329865 81.052315 119.700005 80.820061 C 120.070152 80.587822 120.881683 79.882561 121.50341 79.252815 C 122.12513 78.62307 122.889442 77.666969 123.201889 77.128143 C 123.51432 76.58931 123.975838 75.615379 124.227493 74.963852 C 124.479149 74.312309 124.820946 73.159294 124.987061 72.401596 C 125.15905 71.617065 125.326782 70.132111 125.376656 68.952438 C 125.44236 67.39859 125.400864 66.468063 125.210602 65.22876 C 125.071106 64.320068 124.859055 63.200699 124.739395 62.741287 C 124.619736 62.281876 124.312836 61.364075 124.057411 60.701721 C 123.801971 60.039368 123.32354 59.093933 122.994202 58.600754 C 122.664871 58.107574 122.08403 57.357727 121.703453 56.934448 C 121.322891 56.511154 120.583076 55.8591 120.059448 55.485458 C 119.535805 55.111786 118.544334 54.599686 117.856178 54.347427 C 116.82653 53.970016 116.297081 53.874298 114.866081 53.806915 C 113.598633 53.747223 112.811241 53.789459 111.96183 53.962677 C 111.320877 54.093384 110.300377 54.438934 109.694031 54.730576 C 109.087708 55.022202 108.206642 55.577744 107.736115 55.965103 C 107.265594 56.352463 106.502853 57.171341 106.041138 57.784805 C 105.579422 58.398285 104.940796 59.457687 104.621948 60.139023 C 104.303116 60.820358 103.901764 61.915421 103.730057 62.572479 C 103.558357 63.229538 103.33287 64.348648 103.228996 65.059372 C 103.125107 65.770096 103.040871 67.165497 103.041794 68.160255 C 103.042725 69.155006 103.131477 70.511497 103.239044 71.174667 C 103.346603 71.837845 103.570381 72.889122 103.73632 73.510841 C 103.902267 74.132568 104.32917 75.251663 104.685013 75.997734 C 105.04084 76.743805 105.642097 77.771439 106.021133 78.281372 C 106.400162 78.791306 107.127777 79.555969 107.638054 79.980629 C 108.148338 80.405289 108.911583 80.92794 109.334175 81.142082 C 109.756752 81.356224 110.378647 81.630661 110.716125 81.751938 C 111.053627 81.873215 111.601051 82.032188 111.93264 82.105209 C 112.264229 82.17823 113.451149 82.216751 114.570251 82.190811 Z M 262.578064 54.040878 L 262.578064 81.978195 L 266.30838 81.916382 C 269.68631 81.860413 270.138397 81.822037 271.093781 81.510208 C 271.674042 81.320816 272.578888 80.926331 273.104523 80.633575 C 273.630127 80.340828 274.460938 79.730293 274.950745 79.27684 C 275.440521 78.82338 276.169922 77.96096 276.571655 77.360352 C 276.973358 76.759735 277.520081 75.744576 277.78656 75.104424 C 278.05307 74.464279 278.396423 73.450539 278.549591 72.851669 C 278.702759 72.252808 278.908813 70.979576 279.007507 70.022263 C 279.144287 68.695534 279.145905 67.827301 279.014191 66.370468 C 278.919159 65.319275 278.715118 63.969376 278.560791 63.370682 C 278.406433 62.771988 278.114838 61.829712 277.912811 61.276718 C 277.710785 60.723724 277.217072 59.74028 276.815674 59.091263 C 276.414276 58.442245 275.669464 57.499329 275.160583 56.99588 C 274.651672 56.492416 273.831757 55.835358 273.338531 55.535736 C 272.845306 55.236115 271.901062 54.805115 271.240234 54.577988 C 270.083466 54.180374 269.89978 54.162674 266.30838 54.102936 L 262.578064 54.040878 Z M 204.023026 77.278862 C 202.130753 77.278862 200.927841 77.222916 200.958389 77.13633 C 200.986008 77.05793 201.187393 76.803589 201.405899 76.571129 C 201.62439 76.338661 201.912643 75.931396 202.046463 75.6661 C 202.26297 75.236809 202.289749 74.097092 202.289749 65.307098 C 202.289749 56.725067 202.259018 55.353683 202.05542 54.844818 C 201.926559 54.52272 201.623749 54.070114 201.382553 53.83902 C 201.141327 53.607925 200.979477 53.361404 201.022873 53.291199 C 201.066269 53.220978 202.416321 53.163544 204.023026 53.163544 C 205.758255 53.163544 206.981186 53.223206 207.035126 53.310501 C 207.085098 53.391342 206.916672 53.645676 206.660904 53.875702 C 206.405121 54.105743 206.09993 54.565247 205.982697 54.89682 C 205.807419 55.392609 205.769547 57.226608 205.769547 65.221207 C 205.769547 73.094337 205.809006 75.053383 205.977097 75.524887 C 206.091248 75.845093 206.376541 76.306595 206.611038 76.550438 C 206.845566 76.794281 207.060059 77.05793 207.087677 77.13633 C 207.11821 77.222916 205.915298 77.278862 204.023026 77.278862 Z M 178.626587 54.067856 L 178.626587 70.647148 L 182.356918 70.644791 C 184.965042 70.64315 186.34903 70.580841 186.957382 70.437691 C 187.435944 70.325081 188.27977 70.010292 188.832535 69.738159 C 189.484177 69.417374 190.185196 68.893463 190.826126 68.248314 C 191.504684 67.565247 191.987183 66.899033 192.36496 66.123627 C 192.667648 65.502335 192.99968 64.565002 193.102844 64.040665 C 193.221619 63.436874 193.256409 62.569946 193.197708 61.676346 C 193.146744 60.900314 192.972153 59.871353 192.809753 59.389755 C 192.647369 58.908157 192.325729 58.175003 192.095001 57.760529 C 191.864288 57.346039 191.343201 56.681793 190.937042 56.284439 C 190.530869 55.887085 189.743408 55.332779 189.18718 55.052658 C 188.630936 54.772522 187.657867 54.436356 187.024841 54.305603 C 186.163116 54.127609 184.963287 54.067856 182.250244 54.067856 L 178.626587 54.067856 Z M 73.272758 45.627502 L 73.272758 59.945969 L 77.698456 59.945969 C 80.132584 59.945969 82.48452 59.87764 82.924973 59.794098 C 83.365425 59.710571 84.10379 59.469833 84.565788 59.259125 C 85.027786 59.048401 85.735725 58.55719 86.138985 58.167542 C 86.542244 57.777893 87.062866 57.062485 87.295929 56.577759 C 87.528992 56.093033 87.801422 55.211777 87.901329 54.619415 C 88.004227 54.00943 88.04586 53.016235 87.997375 52.329056 C 87.949692 51.653412 87.764099 50.71788 87.578568 50.217941 C 87.395317 49.724152 87.059242 49.047302 86.831734 48.713821 C 86.604225 48.380341 86.111664 47.825043 85.737129 47.479813 C 85.362602 47.134583 84.702866 46.673096 84.271057 46.454269 C 83.839233 46.235458 83.036171 45.96109 82.486488 45.844574 C 81.769913 45.692688 80.324608 45.631989 77.379906 45.630112 L 73.272758 45.627502 Z"/>
</svg>
