<svg width="200" height="46" viewBox="80 -5.960464477539063e-8 247.38607788085938 96"
    xmlns="http://www.w3.org/2000/svg">
    <defs>
        <style>
            .red {
                fill: #CB0A17
            }

            svg path,
            svg text {
                fill: black;
                color-scheme: light;
            }

            @media (prefers-color-scheme:dark) {
                .red {
                    fill: #CB0A17
                }

                svg path,
                svg text {
                    fill: white;
                }
            }
        </style>
    </defs>
    <path class="red"
        d="M 130.516769 35.595013 C 128.199768 34.731754 126.673973 34.09491 125.631264 33.622845 C 124.588562 33.150795 123.536865 32.726604 123.294159 32.680187 C 123.001747 32.624287 122.615257 32.833069 122.148529 33.299084 C 121.761131 33.685879 121.105461 34.531597 120.691475 35.178467 C 120.277496 35.825325 119.489426 37.295948 118.940216 38.446499 C 118.391006 39.597054 117.38208 41.961586 116.698151 43.701023 C 116.014229 45.44046 114.831238 48.224503 114.069298 49.887783 C 113.30735 51.55106 112.064514 53.994377 111.307426 55.317371 C 110.550346 56.640366 109.320023 58.647675 108.573387 59.778076 C 107.826744 60.908463 106.46196 62.73468 105.540535 63.836327 C 104.61911 64.937973 103.094337 66.489105 102.152145 67.283302 C 101.209961 68.077499 99.693512 69.175507 98.782257 69.723335 C 97.871002 70.271149 96.33007 70.991516 95.357956 71.324135 C 93.830711 71.846703 93.218033 71.937172 90.850258 71.989784 C 89.089157 72.028908 87.771103 71.954796 87.161491 71.782372 C 86.639801 71.634811 85.769073 71.291153 85.226555 71.018692 C 84.684029 70.746231 83.759254 70.102524 83.171486 69.588226 C 82.422699 68.933029 81.881958 68.193817 81.364922 67.118591 C 80.891731 66.134529 80.578056 65.115448 80.490532 64.277794 C 80.407249 63.480835 80.458092 62.503052 80.620918 61.76992 C 80.767708 61.10902 81.064392 60.219986 81.28022 59.794292 C 81.496048 59.368595 81.890961 58.766403 82.157806 58.456085 C 82.424652 58.145782 82.899635 57.842815 83.213326 57.782833 C 83.622551 57.704594 83.822166 57.774124 83.919945 58.028999 C 84.012039 58.269066 83.811249 58.63567 83.300499 59.159992 C 82.88485 59.586666 82.392685 60.300907 82.206802 60.747192 C 81.982407 61.285927 81.86982 62.183994 81.87178 63.419521 C 81.874107 64.883713 81.972023 65.487442 82.331047 66.251442 C 82.582024 66.785492 83.208595 67.691086 83.72345 68.26387 C 84.292465 68.896919 85.170753 69.555893 85.963211 69.944351 C 86.793648 70.351425 87.895844 70.671509 88.999527 70.826111 C 90.317818 71.010773 91.092438 71.009293 92.238693 70.819946 C 93.067284 70.683075 94.32695 70.377197 95.037956 70.140236 C 95.74897 69.903259 96.852402 69.418999 97.490028 69.064102 C 98.127655 68.709198 99.421547 67.817657 100.365334 67.082886 C 101.30912 66.348122 102.804527 64.961258 103.688461 64.000977 C 104.572395 63.040703 105.807846 61.54343 106.433907 60.673714 C 107.059975 59.803993 108.203842 58.04874 108.975845 56.773155 C 109.747849 55.49757 110.982445 53.220493 111.719398 51.712975 C 112.456352 50.20546 113.618958 47.643749 114.302971 46.020271 C 114.986977 44.396793 116.084007 41.78764 116.740814 40.222149 C 117.397614 38.656658 118.383339 36.582325 118.931297 35.612514 C 119.479263 34.642715 120.297501 33.42889 120.749611 32.915146 C 121.201721 32.401386 121.536224 31.948204 121.492958 31.908066 C 121.449692 31.867928 120.350845 31.350693 119.051079 30.758659 C 117.751312 30.166603 115.996513 29.408356 115.151527 29.073631 C 114.306541 28.738914 112.668442 28.162514 111.511307 27.792732 C 110.354164 27.422958 108.542953 26.942497 107.486389 26.725037 C 106.429825 26.507584 104.388672 26.225601 102.9505 26.098419 C 101.512329 25.97123 99.624237 25.923103 98.754745 25.991455 C 97.885254 26.059814 96.509872 26.213341 95.698341 26.332619 C 94.886818 26.451897 93.41658 26.789238 92.431152 27.082245 C 91.445724 27.375267 90.095482 27.884354 89.430611 28.213577 C 88.765732 28.542778 87.815796 29.091507 87.319633 29.432961 C 86.823471 29.774422 85.733833 30.773727 84.898216 31.653633 C 84.047325 32.549637 83.09185 33.822311 82.72641 34.546432 C 82.367523 35.257557 81.88755 36.564594 81.659805 37.450951 C 81.382484 38.530224 81.24614 39.758926 81.247002 41.170933 C 81.247749 42.402248 81.385071 43.799198 81.577103 44.528996 C 81.75795 45.216312 82.182907 46.354847 82.521454 47.059086 C 82.860001 47.763325 83.589325 48.853329 84.142174 49.481335 C 84.695023 50.109329 85.712265 50.98835 86.402702 51.434715 C 87.093147 51.881092 88.281441 52.441395 89.043365 52.67984 C 89.80529 52.918285 91.29332 53.167255 92.35009 53.233105 C 93.737068 53.319542 94.695038 53.257183 95.794235 53.008881 C 96.631744 52.819698 97.958122 52.327919 98.74173 51.916042 C 99.525337 51.504154 100.695404 50.638092 101.341873 49.991463 C 101.988342 49.344826 102.807076 48.271885 103.161293 47.60714 C 103.515511 46.94239 103.948692 45.780128 104.123932 45.024326 C 104.37484 43.942158 104.398735 43.30455 104.236404 42.023869 C 104.092415 40.887871 103.827316 40.016727 103.357071 39.134216 C 102.986809 38.439369 102.297798 37.537701 101.825935 37.13052 C 101.354073 36.723343 100.61322 36.207268 100.179604 35.983688 C 99.745979 35.760105 98.939728 35.48595 98.387917 35.37447 C 97.836113 35.262989 97.028931 35.117828 96.594185 35.051903 C 95.928001 34.950871 95.803734 34.850662 95.803734 34.414478 C 95.803734 33.936573 95.881546 33.896923 96.819412 33.896923 C 97.378029 33.896923 98.350281 34.049816 98.979973 34.236698 C 99.609657 34.423576 100.578819 34.806419 101.133659 35.087448 C 101.688507 35.368484 102.511803 35.932186 102.963211 36.340111 C 103.414619 36.748035 104.074997 37.535473 104.430725 38.089958 C 104.786446 38.644459 105.219734 39.564507 105.393585 40.134525 C 105.567436 40.704559 105.768784 41.788052 105.841034 42.542313 C 105.932961 43.501995 105.868217 44.324821 105.625359 45.283241 C 105.434494 46.036499 105.046745 47.127186 104.763695 47.707001 C 104.480644 48.286812 103.780296 49.338196 103.207367 50.043427 C 102.634438 50.748646 101.516785 51.767448 100.723694 52.307434 C 99.930603 52.847416 98.570305 53.538464 97.700813 53.843082 C 96.488525 54.267799 95.565369 54.422119 93.741547 54.504932 C 91.923706 54.587471 91.004677 54.527527 89.842003 54.250557 C 89.005348 54.051258 87.622337 53.556046 86.768631 53.150089 C 85.653351 52.619755 84.78727 51.987194 83.69175 50.902851 C 82.58622 49.808613 81.954628 48.958996 81.394356 47.81242 C 80.969368 46.942699 80.482246 45.566959 80.311859 44.755226 C 80.141479 43.943497 80.001144 42.472874 80.000008 41.487194 C 79.998871 40.501514 80.09697 39.084545 80.218002 38.338364 C 80.339043 37.592186 80.621231 36.437836 80.845093 35.773144 C 81.068954 35.108437 81.592484 33.983696 82.008484 33.27372 C 82.424484 32.56374 83.33799 31.369995 84.038506 30.620949 C 84.739014 29.87191 85.971573 28.820564 86.777527 28.284637 C 87.583481 27.748695 89.019264 26.981346 89.968147 26.579407 C 90.917038 26.17746 92.5196 25.667023 93.529396 25.445114 C 94.539192 25.223198 96.293983 24.940651 97.42894 24.81723 C 98.869682 24.660561 100.363258 24.658546 102.377563 24.810524 C 103.964355 24.930267 106.207626 25.220856 107.362617 25.456284 C 108.517609 25.691719 110.820335 26.32164 112.479774 26.856133 C 114.139221 27.39061 116.638649 28.326187 118.03405 28.935204 C 119.429443 29.544197 122.083488 30.727707 123.931915 31.565193 C 125.78035 32.402687 128.194336 33.425762 129.296326 33.83868 C 131.299973 34.589455 131.299973 34.589455 131.626785 34.092964 C 131.806534 33.819904 132.341644 33.071087 132.815903 32.428951 C 133.290161 31.786804 134.130066 30.762032 134.682343 30.151695 C 135.234619 29.541344 136.459106 28.421867 137.403412 27.663994 C 138.347733 26.906105 139.845673 25.921539 140.732178 25.476082 C 141.618698 25.030617 143.042343 24.50148 143.895844 24.300217 C 145.014374 24.036446 146.03569 23.958206 147.553665 24.019974 C 149.301025 24.091072 149.818192 24.194328 150.590561 24.626343 C 151.188828 24.960983 151.678391 25.448372 151.960663 25.990387 C 152.274139 26.592285 152.394623 27.199265 152.381485 28.110344 C 152.368637 29.001038 152.202332 29.733971 151.831314 30.535011 C 151.538849 31.166451 150.91095 32.119961 150.436005 32.653896 C 149.96106 33.187832 148.97554 34.009949 148.245956 34.480804 C 147.516373 34.951656 146.113174 35.618294 145.127762 35.962223 C 144.142334 36.306137 142.454773 36.707733 141.377625 36.854668 C 140.17012 37.01936 138.55365 37.072662 137.161896 36.993649 C 135.858047 36.919628 134.247375 36.675343 133.348572 36.415302 C 132.070969 36.045677 131.760727 36.015873 131.6147 36.248783 C 131.516891 36.404789 130.873337 37.623535 130.184601 38.957104 C 129.495865 40.290676 128.252701 42.89983 127.422043 44.755226 C 126.59137 46.610622 125.856873 48.270996 125.789818 48.444942 C 125.712723 48.644936 125.85466 48.593987 126.175926 48.306332 C 126.455338 48.056152 127.063362 47.662113 127.527092 47.430668 C 127.990822 47.199238 128.80632 46.949612 129.339325 46.87595 C 129.87233 46.802292 130.773438 46.845158 131.341797 46.971191 C 131.910156 47.09724 132.719391 47.426704 133.140091 47.703331 C 133.593826 48.001667 134.102722 48.614822 134.391037 49.210552 C 134.747375 49.946835 134.873749 50.568161 134.864624 51.538898 C 134.854218 52.645004 134.716263 53.13274 134.026596 54.501804 C 133.572525 55.403152 132.408569 57.231731 131.440048 58.565304 C 130.471512 59.898876 129.435654 61.511799 129.138138 62.149597 C 128.780289 62.916721 128.568619 63.790062 128.512772 64.729836 C 128.429733 66.127075 128.440933 66.16304 129.19371 66.916008 C 129.931335 67.653824 130.004135 67.678307 131.202774 67.591583 C 132.125595 67.524818 132.667709 67.348244 133.303955 66.907211 C 133.775558 66.580307 134.482391 65.826782 134.874695 65.232712 C 135.266983 64.638641 135.824539 63.678196 136.113708 63.098381 C 136.402863 62.51857 136.948364 61.190273 137.325912 60.14661 C 137.703461 59.102943 138.426834 57.442574 138.933395 56.456894 C 139.439957 55.471214 140.401733 53.95644 141.070679 53.090736 C 141.739624 52.225021 142.85498 51.058498 143.549255 50.49844 C 144.24353 49.938393 145.301315 49.24015 145.899872 48.946781 C 146.498444 48.653416 147.59761 48.308971 148.342453 48.181351 C 149.401016 47.999981 149.915649 48.010635 150.699387 48.230125 C 151.250854 48.384563 152.015656 48.806759 152.398926 49.168316 C 152.816071 49.561844 153.196793 50.200928 153.347427 50.760487 C 153.48584 51.274616 153.540161 52.063751 153.46817 52.514118 C 153.396164 52.964497 153.154221 53.691849 152.930511 54.130478 C 152.706802 54.569096 152.220917 55.182869 151.850754 55.494419 C 151.480591 55.805958 150.622482 56.341232 149.943848 56.683887 C 149.265213 57.026554 147.927673 57.500046 146.971558 57.736084 C 145.862305 58.009914 144.145844 58.210693 142.228821 58.29084 C 139.224503 58.416439 139.224503 58.416439 138.687973 60.115314 C 138.334045 61.235958 138.149872 62.307194 138.146851 63.262711 C 138.143387 64.360657 138.260635 64.949814 138.631317 65.69696 C 138.959244 66.357971 139.398087 66.842232 139.963486 67.167023 C 140.695343 67.587433 141.033524 67.641273 142.525497 67.574852 C 143.945145 67.511642 144.487213 67.378738 145.639404 66.811371 C 146.406677 66.433548 147.600128 65.600555 148.291519 64.960289 C 148.98291 64.32003 149.986969 63.13657 150.522781 62.330399 C 151.058578 61.52422 151.60527 60.90015 151.73764 60.943558 C 151.87001 60.986977 152.006622 61.2584 152.041214 61.546726 C 152.082047 61.887032 151.787033 62.547108 151.200394 63.42804 C 150.703339 64.174423 149.700577 65.374008 148.972031 66.093765 C 148.120865 66.934669 147.102936 67.670898 146.1241 68.153534 C 145.28627 68.56665 144.041489 68.99498 143.357895 69.105392 C 142.55127 69.235672 141.785339 69.232231 141.175812 69.095604 C 140.659256 68.979813 139.971268 68.747818 139.646942 68.580055 C 139.322617 68.412292 138.726715 67.888771 138.322708 67.416664 C 137.913101 66.937988 137.453796 66.075172 137.284424 65.466156 C 136.980682 64.374031 136.980682 64.374031 136.235062 65.539932 C 135.824966 66.181168 135.025864 67.10527 134.459274 67.593483 C 133.872559 68.099037 132.975433 68.618958 132.375183 68.801277 C 131.71286 69.002457 131.00795 69.070358 130.478104 68.984024 C 130.014374 68.908463 129.388184 68.72039 129.086578 68.566086 C 128.784973 68.411774 128.244247 67.95063 127.884964 67.541313 C 127.525673 67.132004 127.167503 66.454803 127.089043 66.03643 C 127.010574 65.61805 127.007278 64.738396 127.081718 64.081642 C 127.156166 63.424889 127.498497 62.318268 127.842453 61.622498 C 128.186401 60.926723 129.365402 59.144318 130.462433 57.661587 C 131.559464 56.178867 132.706238 54.456249 133.010818 53.83353 C 133.409058 53.019379 133.564621 52.367943 133.564621 51.514477 C 133.564621 50.739353 133.428833 50.09507 133.173218 49.657291 C 132.957962 49.288616 132.483444 48.812653 132.118744 48.599609 C 131.681534 48.344181 131.028381 48.210205 130.201218 48.206242 C 129.319595 48.202034 128.679504 48.336628 128.047531 48.659115 C 127.552956 48.911495 126.679779 49.606781 126.107132 50.204185 C 125.534492 50.801601 124.638489 51.933571 124.116013 52.719669 C 123.593552 53.505779 122.54908 55.356117 121.794975 56.831528 C 121.040871 58.306938 119.849983 60.557751 119.148552 61.833336 C 118.447121 63.108921 117.389435 64.864174 116.798141 65.733894 C 116.206841 66.603607 115.059074 67.980835 114.247551 68.794388 C 113.300087 69.744202 112.232269 70.55571 111.263763 71.061951 C 110.373695 71.527191 109.613144 71.7957 109.408234 71.717049 C 109.205894 71.639389 109.087631 71.402512 109.124832 71.149406 C 109.167793 70.857109 109.602333 70.509125 110.453392 70.08548 C 111.310295 69.65892 112.295853 68.867142 113.509796 67.630028 C 114.643929 66.474236 115.77243 65.036804 116.584709 63.713314 C 117.290482 62.563366 118.679222 60.057007 119.670799 58.143623 C 120.662369 56.23024 122.678398 52.055592 124.150848 48.866623 C 125.623306 45.677654 127.658005 41.386959 128.672409 39.331753 L 130.516769 35.595013 Z M 142.509323 57.035191 C 143.891495 56.969402 145.733765 56.753105 146.603256 56.554543 C 147.472748 56.355965 148.658432 55.954666 149.238098 55.662766 C 149.817749 55.370853 150.591965 54.903385 150.958542 54.623955 C 151.325134 54.344509 151.78331 53.720276 151.97673 53.236771 C 152.223236 52.620529 152.286758 52.080002 152.189163 51.429039 C 152.106918 50.880447 151.848618 50.299038 151.558014 50.008347 C 151.287445 49.73772 150.816391 49.453617 150.51123 49.376995 C 150.206055 49.300388 149.462769 49.278679 148.859482 49.328751 C 148.25618 49.378838 147.216919 49.66972 146.550003 49.975174 C 145.883087 50.280624 144.804214 51.033779 144.152512 51.648849 C 143.500793 52.263935 142.542831 53.318115 142.023666 53.991482 C 141.504517 54.664852 140.835983 55.652061 140.538025 56.185287 C 139.996307 57.154804 139.996307 57.154804 142.509323 57.035191 Z M 139.436523 35.621548 C 140.306015 35.579803 141.897064 35.371563 142.972183 35.158779 C 144.143433 34.926975 145.539841 34.46899 146.456055 34.016167 C 147.327911 33.585258 148.455688 32.797127 149.079819 32.182568 C 149.68187 31.58976 150.414337 30.623238 150.707504 30.034752 C 151.078049 29.290977 151.240555 28.620819 151.240555 27.836494 C 151.240555 26.892586 151.151108 26.625267 150.693192 26.200783 C 150.392136 25.9217 149.822601 25.586662 149.427582 25.456261 C 149.032547 25.325851 147.969788 25.219154 147.065887 25.219154 C 146.161987 25.219154 144.81073 25.376656 144.06308 25.569145 C 143.31543 25.76165 142.134583 26.195145 141.438995 26.532486 C 140.743408 26.869835 139.700012 27.490532 139.120346 27.911819 C 138.54068 28.333099 137.117874 29.649643 135.958542 30.837463 C 134.799225 32.025288 133.541489 33.429867 133.163574 33.958759 C 132.476456 34.920372 132.476456 34.920372 133.690536 35.181183 C 134.358276 35.324631 135.568588 35.499477 136.380127 35.569725 C 137.19165 35.639977 138.567032 35.663296 139.436523 35.621548 Z" />
    <path
        d="M 181.721649 95.997711 C 178.580505 95.960823 174.880676 95.664818 173.499832 95.33992 C 172.118988 95.015015 169.474915 93.983101 167.6241 93.046776 C 165.773285 92.110443 163.08316 90.283836 161.646057 88.98764 C 160.208923 87.691437 158.296432 85.373497 157.396042 83.836655 C 156.495651 82.299805 155.274704 79.410507 154.682831 77.415985 C 154.090958 75.421463 153.609955 71.966309 153.613937 69.737869 C 153.617935 67.50943 154.045273 64.29113 154.563614 62.586098 C 155.08194 60.881062 156.24678 58.314541 157.152161 56.882725 C 158.057526 55.450909 159.931519 53.28606 161.316605 52.071949 C 162.701691 50.857841 165.144928 49.303879 166.746048 48.618702 C 169.657135 47.372921 169.657135 47.372921 169.657135 32.282906 C 169.657135 23.252983 169.381821 16.679306 168.971558 15.914009 C 168.594498 15.210602 167.465927 14.190811 166.463684 13.647812 C 164.811005 12.752411 166.107666 12.658028 180.393677 12.633789 C 196.146011 12.607048 196.146011 12.607048 199.190002 14.534309 C 201.213455 15.815414 202.714752 17.453041 203.667938 19.418739 C 204.456573 21.045189 205.101852 23.642715 205.101852 25.191032 C 205.101852 26.739365 204.665695 29.048309 204.132599 30.322037 C 203.599518 31.595764 202.320496 33.428249 201.290359 34.394218 C 200.260193 35.360184 198.518921 36.534283 197.420868 37.003326 C 195.424454 37.856133 195.424454 37.856133 199.239731 39.540627 C 201.338089 40.467098 204.52388 42.596836 206.319183 44.273376 C 208.471512 46.283291 210.357819 48.971161 211.856812 52.164101 C 214.077332 56.893929 214.130219 57.208729 214.130219 65.698029 C 214.130219 74.208031 214.08342 74.484421 211.888901 78.936874 C 210.561752 81.629501 208.204788 84.901855 206.110184 86.959854 C 204.164612 88.871429 200.908508 91.249008 198.874405 92.243362 C 196.840317 93.237709 193.433823 94.504311 191.304459 95.058022 C 189.160233 95.615601 184.884735 96.034859 181.721649 95.997711 Z M 183.701263 94.212242 C 185.724304 94.022362 188.664154 93.487877 190.234283 93.02449 C 191.804398 92.561104 194.599884 91.214088 196.446442 90.031113 C 198.292999 88.848145 200.837219 86.621193 202.100296 85.082336 C 203.363358 83.54348 205.232529 80.502724 206.254028 78.325096 C 207.961594 74.684898 208.111298 73.718857 208.111298 66.33979 C 208.111298 58.552437 208.043289 58.175919 205.824371 53.676102 C 204.56575 51.123699 202.082153 47.585491 200.300873 45.807148 C 198.444595 43.953976 195.182037 41.696552 192.650894 40.514057 C 189.001617 38.809177 187.150162 38.395432 181.956802 38.124233 C 175.676071 37.796257 175.676071 37.796257 175.676071 42.139229 C 175.676071 46.482201 175.676071 46.482201 180.568832 46.795681 C 183.882462 47.00798 186.489838 47.621838 188.647385 48.697582 C 190.399567 49.571217 192.896393 51.460907 194.195877 52.8969 C 195.495331 54.33289 197.150604 56.844021 197.874237 58.4772 C 198.59787 60.110371 199.354797 63.041344 199.55629 64.990463 C 199.757797 66.939598 199.556808 70.05687 199.10968 71.917732 C 198.662506 73.778603 197.921707 75.611786 197.463455 75.99147 C 196.806747 76.535599 196.691376 75.588013 196.9189 71.517822 C 197.149719 67.387901 196.92453 65.605331 195.794373 62.615925 C 195.017166 60.560078 193.257309 57.7402 191.883545 56.349525 C 190.509781 54.958866 188.065674 53.228668 186.452194 52.504654 C 184.838684 51.780647 181.754013 51.028534 179.597321 50.833294 C 175.676071 50.478313 175.676071 50.478313 175.676071 63.96817 C 175.676071 73.53717 175.919006 77.881905 176.512024 78.916382 C 176.971802 79.718468 177.448273 80.600067 177.570908 80.875473 C 177.693512 81.150879 175.486557 81.376221 172.666611 81.376221 C 169.846619 81.376221 167.639694 81.150879 167.762299 80.875473 C 167.884918 80.600067 168.361404 79.718468 168.821167 78.916382 C 169.408005 77.892677 169.657135 73.74044 169.657135 64.984528 C 169.657135 52.729771 169.633041 52.517315 168.283279 52.869701 C 167.527649 53.066975 166.248627 53.669788 165.441025 54.209282 C 164.633392 54.748779 163.178131 56.049538 162.207077 57.099869 C 161.236038 58.150196 159.822693 60.242863 159.06633 61.750252 C 158.309967 63.257633 157.491013 65.996994 157.246429 67.837708 C 157.001846 69.678421 157.131607 72.7201 157.534805 74.596992 C 157.937973 76.473892 158.939926 79.443039 159.761353 81.195114 C 160.582764 82.947182 162.698578 85.826775 164.46315 87.594193 C 166.227753 89.361618 169.057404 91.419731 170.751282 92.167778 C 172.445175 92.915833 175.224258 93.759529 176.927078 94.042671 C 178.629852 94.325813 181.678253 94.402122 183.701263 94.212242 Z M 253.695129 77.036415 C 254.449203 74.966667 254.93721 74.270424 255.266068 74.153885 C 255.595016 74.037354 256.856567 73.274399 258.069672 72.45845 C 260.275208 70.974884 260.275208 70.974884 260.461914 50.303661 C 260.601837 34.811584 260.439667 29.214226 259.814606 27.963272 C 259.355865 27.045242 258.870575 26.068787 258.736206 25.793373 C 258.601807 25.51796 265.279572 25.292625 273.575684 25.292625 C 288.659576 25.292625 288.659576 25.292625 289.246826 27.462532 C 289.569733 28.655975 289.762756 29.723732 289.67572 29.835327 C 289.588654 29.946915 288.505402 29.422256 287.268524 28.669403 C 285.289856 27.465065 283.914795 27.300301 275.824066 27.298111 L 266.628479 27.295609 L 266.628479 35.307556 C 266.628479 43.319496 266.628479 43.319496 272.356964 43.319496 C 275.714844 43.319496 278.690002 42.974121 279.546234 42.484921 C 280.34964 42.025898 281.232697 41.55019 281.508575 41.427784 C 281.784454 41.305382 282.010162 42.582291 282.010162 44.26535 C 282.010162 45.948414 281.746063 47.325466 281.423248 47.325466 C 281.100464 47.325466 280.461761 46.87479 280.003845 46.323975 C 279.372131 45.564049 277.65863 45.322479 272.899902 45.322479 L 266.628479 45.322479 L 266.628479 58.900082 C 266.628479 72.477692 266.628479 72.477692 270.473907 73.551857 C 272.588898 74.142647 277.479248 76.174454 281.3414 78.066971 C 285.203522 79.959488 290.593414 82.079178 293.319 82.77739 C 296.044525 83.475601 300.472229 84.046867 303.158234 84.046867 C 306.482635 84.046867 309.240936 83.599007 311.79715 82.64418 C 314.369995 81.683144 316.782318 80.039978 319.458679 77.425499 C 322.549347 74.406281 323.587524 72.845261 324.430786 69.949356 C 325.275055 67.049812 325.356049 65.549484 324.820374 62.729519 C 324.448456 60.771698 323.513397 58.150883 322.742401 56.905495 C 321.971466 55.66011 320.391144 53.919064 319.23056 53.036503 C 318.070038 52.153942 315.71228 51.078491 313.99115 50.646618 C 311.546661 50.03323 310.302582 50.044399 308.30661 50.697643 C 306.901245 51.157593 305.06192 51.981644 304.219269 52.528881 C 303.376587 53.076118 301.947113 54.784531 301.042633 56.325359 C 300.091705 57.94529 299.398102 60.176624 299.398102 61.615829 C 299.398102 62.984764 299.705597 64.678406 300.081421 65.379486 C 300.457275 66.080551 300.965027 67.187485 301.209808 67.839317 C 301.606201 68.894951 301.526733 68.920334 300.482391 68.071609 C 299.837524 67.547531 298.878326 66.285553 298.350861 65.267212 C 297.823364 64.248856 297.398438 61.973614 297.406525 60.211113 C 297.414581 58.448612 297.969421 55.804771 298.639496 54.335918 C 299.30957 52.867058 301.085236 50.560509 302.585358 49.210243 C 304.546997 47.44455 306.182892 46.624962 308.411469 46.291321 C 310.115692 46.036182 312.531311 45.992882 313.779541 46.195103 C 315.02774 46.397327 317.130676 47.07523 318.452759 47.701557 C 319.77478 48.327881 321.868469 50.076839 323.105255 51.58812 C 324.342102 53.099407 325.870728 56.117001 326.502289 58.293892 C 327.264618 60.921661 327.535492 63.518387 327.308228 66.020332 C 327.119995 68.092995 326.299225 71.119064 325.484314 72.744949 C 324.669403 74.370827 322.755127 77.001976 321.230316 78.591949 C 319.705536 80.181915 317.183197 82.236023 315.625092 83.156631 C 314.067017 84.07724 311.208008 85.25148 309.27179 85.76606 C 307.317383 86.285484 302.77652 86.688835 299.063751 86.672829 C 294.686676 86.653954 290.670868 86.198135 287.440674 85.353577 C 284.546967 84.596977 278.737213 82.071075 273.396545 79.247604 C 265.276245 74.95462 263.878326 74.428459 260.514252 74.398911 C 257.661255 74.373856 256.369202 74.691521 255.217896 75.701096 L 253.695129 77.036415 Z M 219.587921 10.937897 C 222.351074 13.357277 223.536438 13.597252 227.412491 13.548515 C 231.706116 13.494553 233.399216 13.004066 244.224747 8.67823 C 250.845581 6.032578 258.511047 3.277855 261.259186 2.556618 C 264.007294 1.835365 269.673279 0.889626 273.85022 0.454948 C 279.609253 -0.144379 282.715881 -0.150406 286.704681 0.430016 C 289.597748 0.850983 293.443909 1.943703 295.25174 2.858284 C 297.05954 3.772858 299.467712 5.301598 300.603241 6.255478 C 301.738739 7.209366 303.271088 8.964355 304.008423 10.155457 C 304.745789 11.34655 305.567108 12.888268 305.833557 13.581474 C 306.100006 14.274689 305.03125 13.557259 303.458588 11.987167 C 301.885925 10.417107 298.899414 8.338959 296.821991 7.369095 C 293.719543 5.92067 291.86145 5.563293 286.420227 5.368416 C 282.254089 5.2192 277.662567 5.521591 274.048004 6.183197 C 270.886841 6.761833 263.635742 8.610596 257.934509 10.291565 C 252.233246 11.972542 244.860123 13.953873 241.549683 14.694527 C 238.239288 15.435181 234.853638 16.175568 234.026062 16.339813 C 232.554794 16.631821 232.521317 16.838707 232.521317 25.639175 L 232.521317 34.639893 L 240.799011 34.639893 C 247.341156 34.639893 249.251312 34.429909 249.909302 33.638397 C 250.367188 33.087582 251.005936 32.636909 251.32872 32.636909 C 251.651505 32.636909 251.915588 34.013958 251.915588 35.697025 C 251.915588 37.380089 251.68988 38.656994 251.414017 38.534588 C 251.138138 38.412182 250.255112 37.936474 249.451675 37.477451 C 248.514404 36.941959 245.219025 36.642876 240.256134 36.642876 L 232.521317 36.642876 L 232.521317 56.916523 C 232.521317 76.066681 232.594223 77.2827 233.83696 78.859955 C 234.560562 79.778336 234.961823 80.7202 234.728622 80.95298 C 234.495483 81.18576 232.097763 81.376221 229.400421 81.376221 C 226.703064 81.376221 224.496124 81.112564 224.496124 80.790306 C 224.496124 80.468056 224.94751 79.830376 225.499252 79.37323 C 226.364258 78.656532 226.502396 74.32605 226.502396 47.928524 C 226.502396 17.314972 226.502396 17.314972 224.328903 16.223755 C 223.133484 15.623596 221.795502 14.78965 221.355606 14.370544 C 220.91571 13.951439 220.337997 13.007652 220.071854 12.273224 L 219.587921 10.937897 Z M 175.676071 13.798264 L 175.676071 36.642876 L 180.934937 36.642876 C 183.827316 36.642876 187.799149 36.338928 189.761307 35.96743 C 191.754745 35.590008 194.046097 34.63261 194.954529 33.797535 C 195.848679 32.97559 196.992874 31.336273 197.497192 30.154617 C 198.001541 28.972969 198.414154 26.760513 198.414154 25.23806 C 198.414154 23.618629 197.800323 21.379578 196.934921 19.842331 C 196.121323 18.397133 194.390869 16.555161 193.089493 15.749054 C 191.10347 14.518852 189.514694 14.244431 183.199692 14.040833 L 175.676071 13.798264 Z" />
</svg>